<ttFont>
<head>
    <!-- Most of this table will be recalculated by the compiler -->
    <tableVersion value="1.0"/>
    <fontRevision value="1.002"/>
    <checkSumAdjustment value="0x5fb4da7"/>
    <magicNumber value="0x5f0f3cf5"/>
    <flags value="00000000 00000011"/>
    <unitsPerEm value="1000"/>
    <created value="Sun Jan 10 02:33:07 2016"/>
    <modified value="Sun Jan 10 02:33:09 2016"/>
    <xMin value="-88"/>
    <yMin value="-279"/>
    <xMax value="987"/>
    <yMax value="1138"/>
    <macStyle value="00000000 00000000"/>
    <lowestRecPPEM value="6"/>
    <fontDirectionHint value="2"/>
    <indexToLocFormat value="0"/>
    <glyphDataFormat value="0"/>
  </head>
    <TTGlyph name=".notdef" xMin="0" yMin="-200" xMax="500" yMax="800">
      <contour>
        <pt x="0" y="-200" on="1"/>
        <pt x="0" y="800" on="1"/>
        <pt x="500" y="800" on="1"/>
        <pt x="500" y="-200" on="1"/>
      </contour>
      <contour>
        <pt x="71" y="750" on="1"/>
        <pt x="250" y="360" on="1"/>
        <pt x="429" y="750" on="1"/>
      </contour>
      <contour>
        <pt x="450" y="676" on="1"/>
        <pt x="278" y="300" on="1"/>
        <pt x="450" y="-76" on="1"/>
      </contour>
      <contour>
        <pt x="50" y="-76" on="1"/>
        <pt x="222" y="300" on="1"/>
        <pt x="50" y="676" on="1"/>
      </contour>
      <contour>
        <pt x="250" y="240" on="1"/>
        <pt x="71" y="-150" on="1"/>
        <pt x="429" y="-150" on="1"/>
      </contour>
    </TTGlyph>
    <TTGlyph name="A" xMin="48" yMin="-2" xMax="536" yMax="623">
      <contour>
        <pt x="491" y="-2" on="1"/>
        <pt x="474" y="52" on="0"/>
        <pt x="439" y="159" on="0"/>
        <pt x="421" y="212" on="1"/>
        <pt x="160" y="212" on="1"/>
        <pt x="143" y="160" on="0"/>
        <pt x="108" y="53" on="0"/>
        <pt x="91" y="0" on="1"/>
        <pt x="48" y="0" on="1"/>
        <pt x="98" y="154" on="0"/>
        <pt x="204" y="466" on="0"/>
        <pt x="259" y="623" on="1"/>
        <pt x="324" y="623" on="1"/>
        <pt x="380" y="467" on="0"/>
        <pt x="485" y="156" on="0"/>
        <pt x="536" y="2" on="1"/>
      </contour>
      <contour>
        <pt x="287" y="582" on="1"/>
        <pt x="258" y="498" on="0"/>
        <pt x="201" y="331" on="0"/>
        <pt x="173" y="248" on="1"/>
        <pt x="409" y="248" on="1"/>
        <pt x="381" y="332" on="0"/>
        <pt x="324" y="499" on="0"/>
        <pt x="294" y="582" on="1"/>
      </contour>
    </TTGlyph>
    <TTGlyph name="A.sc" xMin="47" yMin="-2" xMax="473" yMax="525">
      <contour>
        <pt x="429" y="-2" on="1"/>
        <pt x="415" y="42" on="0"/>
        <pt x="385" y="131" on="0"/>
        <pt x="370" y="176" on="1"/>
        <pt x="149" y="176" on="1"/>
        <pt x="134" y="132" on="0"/>
        <pt x="104" y="44" on="0"/>
        <pt x="90" y="0" on="1"/>
        <pt x="47" y="0" on="1"/>
        <pt x="90" y="130" on="0"/>
        <pt x="182" y="395" on="0"/>
        <pt x="231" y="525" on="1"/>
        <pt x="294" y="525" on="1"/>
        <pt x="340" y="394" on="0"/>
        <pt x="430" y="132" on="0"/>
        <pt x="473" y="2" on="1"/>
      </contour>
      <contour>
        <pt x="258" y="486" on="1"/>
        <pt x="233" y="417" on="0"/>
        <pt x="184" y="279" on="0"/>
        <pt x="160" y="210" on="1"/>
        <pt x="358" y="210" on="1"/>
        <pt x="335" y="279" on="0"/>
        <pt x="288" y="418" on="0"/>
        <pt x="264" y="486" on="1"/>
      </contour>
    </TTGlyph>
    <TTGlyph name="AE" xMin="16" yMin="0" xMax="768" yMax="620">
      <contour>
        <pt x="401" y="580" on="1"/>
        <pt x="350" y="497" on="0"/>
        <pt x="247" y="324" on="0"/>
        <pt x="198" y="238" on="1"/>
        <pt x="408" y="238" on="1"/>
        <pt x="408" y="580" on="1"/>
      </contour>
      <contour>
        <pt x="408" y="0" on="1"/>
        <pt x="408" y="202" on="1"/>
        <pt x="177" y="202" on="1"/>
        <pt x="148" y="151" on="0"/>
        <pt x="90" y="49" on="0"/>
        <pt x="62" y="0" on="1"/>
        <pt x="16" y="0" on="1"/>
        <pt x="103" y="154" on="0"/>
        <pt x="285" y="466" on="0"/>
        <pt x="381" y="620" on="1"/>
        <pt x="765" y="620" on="1"/>
        <pt x="765" y="580" on="1"/>
        <pt x="453" y="580" on="1"/>
        <pt x="453" y="333" on="1"/>
        <pt x="725" y="333" on="1"/>
        <pt x="725" y="297" on="1"/>
        <pt x="453" y="297" on="1"/>
        <pt x="453" y="40" on="1"/>
        <pt x="768" y="40" on="1"/>
        <pt x="763" y="0" on="1"/>
      </contour>
    </TTGlyph>
    <TTGlyph name="AE.sc" xMin="16" yMin="0" xMax="671" yMax="523">
      <contour>
        <pt x="350" y="485" on="1"/>
        <pt x="309" y="419" on="0"/>
        <pt x="224" y="278" on="0"/>
        <pt x="183" y="208" on="1"/>
        <pt x="356" y="208" on="1"/>
        <pt x="356" y="485" on="1"/>
      </contour>
      <contour>
        <pt x="356" y="0" on="1"/>
        <pt x="356" y="174" on="1"/>
        <pt x="163" y="174" on="1"/>
        <pt x="137" y="130" on="0"/>
        <pt x="86" y="42" on="0"/>
        <pt x="63" y="0" on="1"/>
        <pt x="16" y="0" on="1"/>
        <pt x="89" y="130" on="0"/>
        <pt x="248" y="393" on="0"/>
        <pt x="329" y="523" on="1"/>
        <pt x="669" y="523" on="1"/>
        <pt x="669" y="484" on="1"/>
        <pt x="401" y="484" on="1"/>
        <pt x="401" y="282" on="1"/>
        <pt x="634" y="282" on="1"/>
        <pt x="634" y="248" on="1"/>
        <pt x="401" y="248" on="1"/>
        <pt x="401" y="39" on="1"/>
        <pt x="671" y="39" on="1"/>
        <pt x="667" y="0" on="1"/>
      </contour>
    </TTGlyph>
    <TTGlyph name="AEacute" xMin="16" yMin="0" xMax="768" yMax="896">
      <contour>
        <pt x="414" y="717" on="1"/>
        <pt x="434" y="733" on="0"/>
        <pt x="480" y="778" on="0"/>
        <pt x="524" y="826" on="0"/>
        <pt x="565" y="875" on="0"/>
        <pt x="580" y="896" on="1"/>
        <pt x="621" y="859" on="1"/>
        <pt x="603" y="840" on="0"/>
        <pt x="555" y="795" on="0"/>
        <pt x="504" y="752" on="0"/>
        <pt x="451" y="711" on="0"/>
        <pt x="429" y="696" on="1"/>
      </contour>
      <contour>
        <pt x="401" y="580" on="1"/>
        <pt x="350" y="497" on="0"/>
        <pt x="247" y="324" on="0"/>
        <pt x="198" y="238" on="1"/>
        <pt x="408" y="238" on="1"/>
        <pt x="408" y="580" on="1"/>
      </contour>
      <contour>
        <pt x="408" y="0" on="1"/>
        <pt x="408" y="202" on="1"/>
        <pt x="177" y="202" on="1"/>
        <pt x="148" y="151" on="0"/>
        <pt x="90" y="49" on="0"/>
        <pt x="62" y="0" on="1"/>
        <pt x="16" y="0" on="1"/>
        <pt x="103" y="154" on="0"/>
        <pt x="285" y="466" on="0"/>
        <pt x="381" y="620" on="1"/>
        <pt x="765" y="620" on="1"/>
        <pt x="765" y="580" on="1"/>
        <pt x="453" y="580" on="1"/>
        <pt x="453" y="333" on="1"/>
        <pt x="725" y="333" on="1"/>
        <pt x="725" y="297" on="1"/>
        <pt x="453" y="297" on="1"/>
        <pt x="453" y="40" on="1"/>
        <pt x="768" y="40" on="1"/>
        <pt x="763" y="0" on="1"/>
      </contour>
    </TTGlyph>
    <TTGlyph name="AEacute.sc" xMin="16" yMin="0" xMax="671" yMax="799">
      <contour>
        <pt x="362" y="620" on="1"/>
        <pt x="382" y="636" on="0"/>
        <pt x="428" y="681" on="0"/>
        <pt x="472" y="729" on="0"/>
        <pt x="513" y="778" on="0"/>
        <pt x="528" y="799" on="1"/>
        <pt x="569" y="762" on="1"/>
        <pt x="551" y="743" on="0"/>
        <pt x="503" y="698" on="0"/>
        <pt x="452" y="655" on="0"/>
        <pt x="399" y="614" on="0"/>
        <pt x="377" y="599" on="1"/>
      </contour>
      <contour>
        <pt x="350" y="485" on="1"/>
        <pt x="309" y="419" on="0"/>
        <pt x="224" y="278" on="0"/>
        <pt x="183" y="208" on="1"/>
        <pt x="356" y="208" on="1"/>
        <pt x="356" y="485" on="1"/>
      </contour>
      <contour>
        <pt x="356" y="0" on="1"/>
        <pt x="356" y="174" on="1"/>
        <pt x="163" y="174" on="1"/>
        <pt x="137" y="130" on="0"/>
        <pt x="86" y="42" on="0"/>
        <pt x="63" y="0" on="1"/>
        <pt x="16" y="0" on="1"/>
        <pt x="89" y="130" on="0"/>
        <pt x="248" y="393" on="0"/>
        <pt x="329" y="523" on="1"/>
        <pt x="669" y="523" on="1"/>
        <pt x="669" y="484" on="1"/>
        <pt x="401" y="484" on="1"/>
        <pt x="401" y="282" on="1"/>
        <pt x="634" y="282" on="1"/>
        <pt x="634" y="248" on="1"/>
        <pt x="401" y="248" on="1"/>
        <pt x="401" y="39" on="1"/>
        <pt x="671" y="39" on="1"/>
        <pt x="667" y="0" on="1"/>
      </contour>
    </TTGlyph>
    <TTGlyph name="Aacute" xMin="48" yMin="-2" xMax="536" yMax="896">
      <contour>
        <pt x="209" y="717" on="1"/>
        <pt x="229" y="733" on="0"/>
        <pt x="275" y="778" on="0"/>
        <pt x="319" y="826" on="0"/>
        <pt x="360" y="875" on="0"/>
        <pt x="375" y="896" on="1"/>
        <pt x="416" y="859" on="1"/>
        <pt x="398" y="840" on="0"/>
        <pt x="350" y="795" on="0"/>
        <pt x="299" y="752" on="0"/>
        <pt x="246" y="711" on="0"/>
        <pt x="224" y="696" on="1"/>
      </contour>
      <contour>
        <pt x="491" y="-2" on="1"/>
        <pt x="474" y="52" on="0"/>
        <pt x="439" y="159" on="0"/>
        <pt x="421" y="212" on="1"/>
        <pt x="160" y="212" on="1"/>
        <pt x="143" y="160" on="0"/>
        <pt x="108" y="53" on="0"/>
        <pt x="91" y="0" on="1"/>
        <pt x="48" y="0" on="1"/>
        <pt x="98" y="154" on="0"/>
        <pt x="204" y="466" on="0"/>
        <pt x="259" y="623" on="1"/>
        <pt x="324" y="623" on="1"/>
        <pt x="380" y="467" on="0"/>
        <pt x="485" y="156" on="0"/>
        <pt x="536" y="2" on="1"/>
      </contour>
      <contour>
        <pt x="287" y="582" on="1"/>
        <pt x="258" y="498" on="0"/>
        <pt x="201" y="331" on="0"/>
        <pt x="173" y="248" on="1"/>
        <pt x="409" y="248" on="1"/>
        <pt x="381" y="332" on="0"/>
        <pt x="324" y="499" on="0"/>
        <pt x="294" y="582" on="1"/>
      </contour>
    </TTGlyph>
    <TTGlyph name="Aacute.sc" xMin="47" yMin="-2" xMax="473" yMax="799">
      <contour>
        <pt x="177" y="620" on="1"/>
        <pt x="197" y="636" on="0"/>
        <pt x="243" y="681" on="0"/>
        <pt x="287" y="729" on="0"/>
        <pt x="328" y="778" on="0"/>
        <pt x="343" y="799" on="1"/>
        <pt x="384" y="762" on="1"/>
        <pt x="366" y="743" on="0"/>
        <pt x="318" y="698" on="0"/>
        <pt x="267" y="655" on="0"/>
        <pt x="214" y="614" on="0"/>
        <pt x="192" y="599" on="1"/>
      </contour>
      <contour>
        <pt x="429" y="-2" on="1"/>
        <pt x="415" y="42" on="0"/>
        <pt x="385" y="131" on="0"/>
        <pt x="370" y="176" on="1"/>
        <pt x="149" y="176" on="1"/>
        <pt x="134" y="132" on="0"/>
        <pt x="104" y="44" on="0"/>
        <pt x="90" y="0" on="1"/>
        <pt x="47" y="0" on="1"/>
        <pt x="90" y="130" on="0"/>
        <pt x="182" y="395" on="0"/>
        <pt x="231" y="525" on="1"/>
        <pt x="294" y="525" on="1"/>
        <pt x="340" y="394" on="0"/>
        <pt x="430" y="132" on="0"/>
        <pt x="473" y="2" on="1"/>
      </contour>
      <contour>
        <pt x="258" y="486" on="1"/>
        <pt x="233" y="417" on="0"/>
        <pt x="184" y="279" on="0"/>
        <pt x="160" y="210" on="1"/>
        <pt x="358" y="210" on="1"/>
        <pt x="335" y="279" on="0"/>
        <pt x="288" y="418" on="0"/>
        <pt x="264" y="486" on="1"/>
      </contour>
    </TTGlyph>
    <TTGlyph name="Abreve" xMin="48" yMin="-2" xMax="536" yMax="867">
      <contour>
        <pt x="287" y="705" on="1"/>
        <pt x="243" y="705" on="0"/>
        <pt x="164" y="775" on="0"/>
        <pt x="125" y="847" on="1"/>
        <pt x="158" y="867" on="1"/>
        <pt x="195" y="800" on="0"/>
        <pt x="255" y="742" on="0"/>
        <pt x="291" y="742" on="1"/>
        <pt x="330" y="742" on="0"/>
        <pt x="393" y="805" on="0"/>
        <pt x="430" y="863" on="1"/>
        <pt x="459" y="848" on="1"/>
        <pt x="420" y="781" on="0"/>
        <pt x="333" y="705" on="0"/>
      </contour>
      <contour>
        <pt x="491" y="-2" on="1"/>
        <pt x="474" y="52" on="0"/>
        <pt x="439" y="159" on="0"/>
        <pt x="421" y="212" on="1"/>
        <pt x="160" y="212" on="1"/>
        <pt x="143" y="160" on="0"/>
        <pt x="108" y="53" on="0"/>
        <pt x="91" y="0" on="1"/>
        <pt x="48" y="0" on="1"/>
        <pt x="98" y="154" on="0"/>
        <pt x="204" y="466" on="0"/>
        <pt x="259" y="623" on="1"/>
        <pt x="324" y="623" on="1"/>
        <pt x="380" y="467" on="0"/>
        <pt x="485" y="156" on="0"/>
        <pt x="536" y="2" on="1"/>
      </contour>
      <contour>
        <pt x="287" y="582" on="1"/>
        <pt x="258" y="498" on="0"/>
        <pt x="201" y="331" on="0"/>
        <pt x="173" y="248" on="1"/>
        <pt x="409" y="248" on="1"/>
        <pt x="381" y="332" on="0"/>
        <pt x="324" y="499" on="0"/>
        <pt x="294" y="582" on="1"/>
      </contour>
    </TTGlyph>
    <TTGlyph name="Abreve.sc" xMin="47" yMin="-2" xMax="473" yMax="770">
      <contour>
        <pt x="256" y="608" on="1"/>
        <pt x="212" y="608" on="0"/>
        <pt x="133" y="678" on="0"/>
        <pt x="94" y="750" on="1"/>
        <pt x="127" y="770" on="1"/>
        <pt x="164" y="703" on="0"/>
        <pt x="224" y="645" on="0"/>
        <pt x="260" y="645" on="1"/>
        <pt x="299" y="645" on="0"/>
        <pt x="362" y="708" on="0"/>
        <pt x="399" y="766" on="1"/>
        <pt x="428" y="751" on="1"/>
        <pt x="389" y="684" on="0"/>
        <pt x="302" y="608" on="0"/>
      </contour>
      <contour>
        <pt x="429" y="-2" on="1"/>
        <pt x="415" y="42" on="0"/>
        <pt x="385" y="131" on="0"/>
        <pt x="370" y="176" on="1"/>
        <pt x="149" y="176" on="1"/>
        <pt x="134" y="132" on="0"/>
        <pt x="104" y="44" on="0"/>
        <pt x="90" y="0" on="1"/>
        <pt x="47" y="0" on="1"/>
        <pt x="90" y="130" on="0"/>
        <pt x="182" y="395" on="0"/>
        <pt x="231" y="525" on="1"/>
        <pt x="294" y="525" on="1"/>
        <pt x="340" y="394" on="0"/>
        <pt x="430" y="132" on="0"/>
        <pt x="473" y="2" on="1"/>
      </contour>
      <contour>
        <pt x="258" y="486" on="1"/>
        <pt x="233" y="417" on="0"/>
        <pt x="184" y="279" on="0"/>
        <pt x="160" y="210" on="1"/>
        <pt x="358" y="210" on="1"/>
        <pt x="335" y="279" on="0"/>
        <pt x="288" y="418" on="0"/>
        <pt x="264" y="486" on="1"/>
      </contour>
    </TTGlyph>
    <TTGlyph name="Acircumflex" xMin="48" yMin="-2" xMax="536" yMax="876">
      <contour>
        <pt x="420" y="700" on="1"/>
        <pt x="292" y="826" on="1"/>
        <pt x="161" y="701" on="1"/>
        <pt x="136" y="724" on="1"/>
        <pt x="294" y="876" on="1"/>
        <pt x="295" y="876" on="1"/>
        <pt x="449" y="728" on="1"/>
      </contour>
      <contour>
        <pt x="491" y="-2" on="1"/>
        <pt x="474" y="52" on="0"/>
        <pt x="439" y="159" on="0"/>
        <pt x="421" y="212" on="1"/>
        <pt x="160" y="212" on="1"/>
        <pt x="143" y="160" on="0"/>
        <pt x="108" y="53" on="0"/>
        <pt x="91" y="0" on="1"/>
        <pt x="48" y="0" on="1"/>
        <pt x="98" y="154" on="0"/>
        <pt x="204" y="466" on="0"/>
        <pt x="259" y="623" on="1"/>
        <pt x="324" y="623" on="1"/>
        <pt x="380" y="467" on="0"/>
        <pt x="485" y="156" on="0"/>
        <pt x="536" y="2" on="1"/>
      </contour>
      <contour>
        <pt x="287" y="582" on="1"/>
        <pt x="258" y="498" on="0"/>
        <pt x="201" y="331" on="0"/>
        <pt x="173" y="248" on="1"/>
        <pt x="409" y="248" on="1"/>
        <pt x="381" y="332" on="0"/>
        <pt x="324" y="499" on="0"/>
        <pt x="294" y="582" on="1"/>
      </contour>
    </TTGlyph>
    <TTGlyph name="Acircumflex.sc" xMin="47" yMin="-2" xMax="473" yMax="779">
      <contour>
        <pt x="388" y="603" on="1"/>
        <pt x="260" y="729" on="1"/>
        <pt x="129" y="604" on="1"/>
        <pt x="104" y="627" on="1"/>
        <pt x="262" y="779" on="1"/>
        <pt x="263" y="779" on="1"/>
        <pt x="417" y="631" on="1"/>
      </contour>
      <contour>
        <pt x="429" y="-2" on="1"/>
        <pt x="415" y="42" on="0"/>
        <pt x="385" y="131" on="0"/>
        <pt x="370" y="176" on="1"/>
        <pt x="149" y="176" on="1"/>
        <pt x="134" y="132" on="0"/>
        <pt x="104" y="44" on="0"/>
        <pt x="90" y="0" on="1"/>
        <pt x="47" y="0" on="1"/>
        <pt x="90" y="130" on="0"/>
        <pt x="182" y="395" on="0"/>
        <pt x="231" y="525" on="1"/>
        <pt x="294" y="525" on="1"/>
        <pt x="340" y="394" on="0"/>
        <pt x="430" y="132" on="0"/>
        <pt x="473" y="2" on="1"/>
      </contour>
      <contour>
        <pt x="258" y="486" on="1"/>
        <pt x="233" y="417" on="0"/>
        <pt x="184" y="279" on="0"/>
        <pt x="160" y="210" on="1"/>
        <pt x="358" y="210" on="1"/>
        <pt x="335" y="279" on="0"/>
        <pt x="288" y="418" on="0"/>
        <pt x="264" y="486" on="1"/>
      </contour>
    </TTGlyph>
    <TTGlyph name="Adieresis" xMin="48" yMin="-2" xMax="536" yMax="835">
      <contour>
        <pt x="415" y="705" on="1"/>
        <pt x="370" y="705" on="1"/>
        <pt x="370" y="835" on="1"/>
        <pt x="416" y="835" on="1"/>
      </contour>
      <contour>
        <pt x="214" y="705" on="1"/>
        <pt x="170" y="705" on="1"/>
        <pt x="169" y="835" on="1"/>
        <pt x="216" y="835" on="1"/>
      </contour>
      <contour>
        <pt x="491" y="-2" on="1"/>
        <pt x="474" y="52" on="0"/>
        <pt x="439" y="159" on="0"/>
        <pt x="421" y="212" on="1"/>
        <pt x="160" y="212" on="1"/>
        <pt x="143" y="160" on="0"/>
        <pt x="108" y="53" on="0"/>
        <pt x="91" y="0" on="1"/>
        <pt x="48" y="0" on="1"/>
        <pt x="98" y="154" on="0"/>
        <pt x="204" y="466" on="0"/>
        <pt x="259" y="623" on="1"/>
        <pt x="324" y="623" on="1"/>
        <pt x="380" y="467" on="0"/>
        <pt x="485" y="156" on="0"/>
        <pt x="536" y="2" on="1"/>
      </contour>
      <contour>
        <pt x="287" y="582" on="1"/>
        <pt x="258" y="498" on="0"/>
        <pt x="201" y="331" on="0"/>
        <pt x="173" y="248" on="1"/>
        <pt x="409" y="248" on="1"/>
        <pt x="381" y="332" on="0"/>
        <pt x="324" y="499" on="0"/>
        <pt x="294" y="582" on="1"/>
      </contour>
    </TTGlyph>
    <TTGlyph name="Adieresis.sc" xMin="47" yMin="-2" xMax="473" yMax="738">
      <contour>
        <pt x="383" y="608" on="1"/>
        <pt x="338" y="608" on="1"/>
        <pt x="338" y="738" on="1"/>
        <pt x="384" y="738" on="1"/>
      </contour>
      <contour>
        <pt x="182" y="608" on="1"/>
        <pt x="138" y="608" on="1"/>
        <pt x="137" y="738" on="1"/>
        <pt x="184" y="738" on="1"/>
      </contour>
      <contour>
        <pt x="429" y="-2" on="1"/>
        <pt x="415" y="42" on="0"/>
        <pt x="385" y="131" on="0"/>
        <pt x="370" y="176" on="1"/>
        <pt x="149" y="176" on="1"/>
        <pt x="134" y="132" on="0"/>
        <pt x="104" y="44" on="0"/>
        <pt x="90" y="0" on="1"/>
        <pt x="47" y="0" on="1"/>
        <pt x="90" y="130" on="0"/>
        <pt x="182" y="395" on="0"/>
        <pt x="231" y="525" on="1"/>
        <pt x="294" y="525" on="1"/>
        <pt x="340" y="394" on="0"/>
        <pt x="430" y="132" on="0"/>
        <pt x="473" y="2" on="1"/>
      </contour>
      <contour>
        <pt x="258" y="486" on="1"/>
        <pt x="233" y="417" on="0"/>
        <pt x="184" y="279" on="0"/>
        <pt x="160" y="210" on="1"/>
        <pt x="358" y="210" on="1"/>
        <pt x="335" y="279" on="0"/>
        <pt x="288" y="418" on="0"/>
        <pt x="264" y="486" on="1"/>
      </contour>
    </TTGlyph>
    <TTGlyph name="Agrave" xMin="48" yMin="-2" xMax="536" yMax="888">
      <contour>
        <pt x="371" y="708" on="1"/>
        <pt x="356" y="688" on="1"/>
        <pt x="334" y="703" on="0"/>
        <pt x="282" y="744" on="0"/>
        <pt x="231" y="787" on="0"/>
        <pt x="182" y="830" on="0"/>
        <pt x="164" y="849" on="1"/>
        <pt x="204" y="888" on="1"/>
        <pt x="219" y="868" on="0"/>
        <pt x="261" y="819" on="0"/>
        <pt x="306" y="770" on="0"/>
        <pt x="352" y="724" on="0"/>
      </contour>
      <contour>
        <pt x="491" y="-2" on="1"/>
        <pt x="474" y="52" on="0"/>
        <pt x="439" y="159" on="0"/>
        <pt x="421" y="212" on="1"/>
        <pt x="160" y="212" on="1"/>
        <pt x="143" y="160" on="0"/>
        <pt x="108" y="53" on="0"/>
        <pt x="91" y="0" on="1"/>
        <pt x="48" y="0" on="1"/>
        <pt x="98" y="154" on="0"/>
        <pt x="204" y="466" on="0"/>
        <pt x="259" y="623" on="1"/>
        <pt x="324" y="623" on="1"/>
        <pt x="380" y="467" on="0"/>
        <pt x="485" y="156" on="0"/>
        <pt x="536" y="2" on="1"/>
      </contour>
      <contour>
        <pt x="287" y="582" on="1"/>
        <pt x="258" y="498" on="0"/>
        <pt x="201" y="331" on="0"/>
        <pt x="173" y="248" on="1"/>
        <pt x="409" y="248" on="1"/>
        <pt x="381" y="332" on="0"/>
        <pt x="324" y="499" on="0"/>
        <pt x="294" y="582" on="1"/>
      </contour>
    </TTGlyph>
    <TTGlyph name="Agrave.sc" xMin="47" yMin="-2" xMax="473" yMax="791">
      <contour>
        <pt x="340" y="611" on="1"/>
        <pt x="325" y="591" on="1"/>
        <pt x="303" y="606" on="0"/>
        <pt x="251" y="647" on="0"/>
        <pt x="200" y="690" on="0"/>
        <pt x="151" y="733" on="0"/>
        <pt x="133" y="752" on="1"/>
        <pt x="173" y="791" on="1"/>
        <pt x="188" y="771" on="0"/>
        <pt x="230" y="722" on="0"/>
        <pt x="275" y="673" on="0"/>
        <pt x="321" y="627" on="0"/>
      </contour>
      <contour>
        <pt x="429" y="-2" on="1"/>
        <pt x="415" y="42" on="0"/>
        <pt x="385" y="131" on="0"/>
        <pt x="370" y="176" on="1"/>
        <pt x="149" y="176" on="1"/>
        <pt x="134" y="132" on="0"/>
        <pt x="104" y="44" on="0"/>
        <pt x="90" y="0" on="1"/>
        <pt x="47" y="0" on="1"/>
        <pt x="90" y="130" on="0"/>
        <pt x="182" y="395" on="0"/>
        <pt x="231" y="525" on="1"/>
        <pt x="294" y="525" on="1"/>
        <pt x="340" y="394" on="0"/>
        <pt x="430" y="132" on="0"/>
        <pt x="473" y="2" on="1"/>
      </contour>
      <contour>
        <pt x="258" y="486" on="1"/>
        <pt x="233" y="417" on="0"/>
        <pt x="184" y="279" on="0"/>
        <pt x="160" y="210" on="1"/>
        <pt x="358" y="210" on="1"/>
        <pt x="335" y="279" on="0"/>
        <pt x="288" y="418" on="0"/>
        <pt x="264" y="486" on="1"/>
      </contour>
    </TTGlyph>
    <TTGlyph name="Amacron" xMin="48" yMin="-2" xMax="536" yMax="793">
      <contour>
        <pt x="439" y="793" on="1"/>
        <pt x="439" y="754" on="1"/>
        <pt x="143" y="754" on="1"/>
        <pt x="143" y="793" on="1"/>
      </contour>
      <contour>
        <pt x="491" y="-2" on="1"/>
        <pt x="474" y="52" on="0"/>
        <pt x="439" y="159" on="0"/>
        <pt x="421" y="212" on="1"/>
        <pt x="160" y="212" on="1"/>
        <pt x="143" y="160" on="0"/>
        <pt x="108" y="53" on="0"/>
        <pt x="91" y="0" on="1"/>
        <pt x="48" y="0" on="1"/>
        <pt x="98" y="154" on="0"/>
        <pt x="204" y="466" on="0"/>
        <pt x="259" y="623" on="1"/>
        <pt x="324" y="623" on="1"/>
        <pt x="380" y="467" on="0"/>
        <pt x="485" y="156" on="0"/>
        <pt x="536" y="2" on="1"/>
      </contour>
      <contour>
        <pt x="287" y="582" on="1"/>
        <pt x="258" y="498" on="0"/>
        <pt x="201" y="331" on="0"/>
        <pt x="173" y="248" on="1"/>
        <pt x="409" y="248" on="1"/>
        <pt x="381" y="332" on="0"/>
        <pt x="324" y="499" on="0"/>
        <pt x="294" y="582" on="1"/>
      </contour>
    </TTGlyph>
    <TTGlyph name="Amacron.sc" xMin="47" yMin="-2" xMax="473" yMax="696">
      <contour>
        <pt x="407" y="696" on="1"/>
        <pt x="407" y="657" on="1"/>
        <pt x="111" y="657" on="1"/>
        <pt x="111" y="696" on="1"/>
      </contour>
      <contour>
        <pt x="429" y="-2" on="1"/>
        <pt x="415" y="42" on="0"/>
        <pt x="385" y="131" on="0"/>
        <pt x="370" y="176" on="1"/>
        <pt x="149" y="176" on="1"/>
        <pt x="134" y="132" on="0"/>
        <pt x="104" y="44" on="0"/>
        <pt x="90" y="0" on="1"/>
        <pt x="47" y="0" on="1"/>
        <pt x="90" y="130" on="0"/>
        <pt x="182" y="395" on="0"/>
        <pt x="231" y="525" on="1"/>
        <pt x="294" y="525" on="1"/>
        <pt x="340" y="394" on="0"/>
        <pt x="430" y="132" on="0"/>
        <pt x="473" y="2" on="1"/>
      </contour>
      <contour>
        <pt x="258" y="486" on="1"/>
        <pt x="233" y="417" on="0"/>
        <pt x="184" y="279" on="0"/>
        <pt x="160" y="210" on="1"/>
        <pt x="358" y="210" on="1"/>
        <pt x="335" y="279" on="0"/>
        <pt x="288" y="418" on="0"/>
        <pt x="264" y="486" on="1"/>
      </contour>
    </TTGlyph>
    <TTGlyph name="Aogonek" xMin="48" yMin="-203" xMax="536" yMax="623">
      <contour>
        <pt x="511" y="-203" on="1"/>
        <pt x="437" y="-191" on="0"/>
        <pt x="369" y="-148" on="0"/>
        <pt x="369" y="-115" on="1"/>
        <pt x="369" y="-89" on="0"/>
        <pt x="419" y="-31" on="0"/>
        <pt x="488" y="6" on="1"/>
        <pt x="472" y="57" on="0"/>
        <pt x="438" y="161" on="0"/>
        <pt x="421" y="212" on="1"/>
        <pt x="160" y="212" on="1"/>
        <pt x="143" y="160" on="0"/>
        <pt x="108" y="53" on="0"/>
        <pt x="91" y="0" on="1"/>
        <pt x="48" y="0" on="1"/>
        <pt x="98" y="154" on="0"/>
        <pt x="204" y="466" on="0"/>
        <pt x="259" y="623" on="1"/>
        <pt x="324" y="623" on="1"/>
        <pt x="380" y="467" on="0"/>
        <pt x="485" y="156" on="0"/>
        <pt x="536" y="2" on="1"/>
        <pt x="458" y="-38" on="0"/>
        <pt x="408" y="-89" on="0"/>
        <pt x="408" y="-106" on="1"/>
        <pt x="408" y="-127" on="0"/>
        <pt x="462" y="-155" on="0"/>
        <pt x="516" y="-165" on="1"/>
      </contour>
      <contour>
        <pt x="287" y="582" on="1"/>
        <pt x="258" y="498" on="0"/>
        <pt x="201" y="331" on="0"/>
        <pt x="173" y="248" on="1"/>
        <pt x="409" y="248" on="1"/>
        <pt x="381" y="332" on="0"/>
        <pt x="324" y="499" on="0"/>
        <pt x="294" y="582" on="1"/>
      </contour>
    </TTGlyph>
    <TTGlyph name="Aogonek.sc" xMin="47" yMin="-203" xMax="473" yMax="525">
      <contour>
        <pt x="448" y="-203" on="1"/>
        <pt x="374" y="-191" on="0"/>
        <pt x="306" y="-148" on="0"/>
        <pt x="306" y="-115" on="1"/>
        <pt x="306" y="-89" on="0"/>
        <pt x="357" y="-31" on="0"/>
        <pt x="426" y="6" on="1"/>
        <pt x="413" y="49" on="0"/>
        <pt x="384" y="133" on="0"/>
        <pt x="370" y="176" on="1"/>
        <pt x="149" y="176" on="1"/>
        <pt x="134" y="132" on="0"/>
        <pt x="104" y="44" on="0"/>
        <pt x="90" y="0" on="1"/>
        <pt x="47" y="0" on="1"/>
        <pt x="90" y="130" on="0"/>
        <pt x="182" y="395" on="0"/>
        <pt x="231" y="525" on="1"/>
        <pt x="294" y="525" on="1"/>
        <pt x="340" y="394" on="0"/>
        <pt x="430" y="132" on="0"/>
        <pt x="473" y="2" on="1"/>
        <pt x="395" y="-38" on="0"/>
        <pt x="345" y="-90" on="0"/>
        <pt x="345" y="-106" on="1"/>
        <pt x="345" y="-127" on="0"/>
        <pt x="400" y="-155" on="0"/>
        <pt x="454" y="-165" on="1"/>
      </contour>
      <contour>
        <pt x="258" y="486" on="1"/>
        <pt x="233" y="417" on="0"/>
        <pt x="184" y="279" on="0"/>
        <pt x="160" y="210" on="1"/>
        <pt x="358" y="210" on="1"/>
        <pt x="335" y="279" on="0"/>
        <pt x="288" y="418" on="0"/>
        <pt x="264" y="486" on="1"/>
      </contour>
    </TTGlyph>
    <TTGlyph name="Aring" xMin="48" yMin="-2" xMax="536" yMax="889">
      <contour>
        <pt x="290" y="889" on="1"/>
        <pt x="342" y="889" on="0"/>
        <pt x="410" y="829" on="0"/>
        <pt x="410" y="788" on="1"/>
        <pt x="410" y="743" on="0"/>
        <pt x="344" y="683" on="0"/>
        <pt x="290" y="683" on="1"/>
        <pt x="238" y="683" on="0"/>
        <pt x="171" y="742" on="0"/>
        <pt x="171" y="784" on="1"/>
        <pt x="171" y="829" on="0"/>
        <pt x="236" y="889" on="0"/>
      </contour>
      <contour>
        <pt x="290" y="858" on="1"/>
        <pt x="252" y="858" on="0"/>
        <pt x="206" y="816" on="0"/>
        <pt x="206" y="786" on="1"/>
        <pt x="206" y="755" on="0"/>
        <pt x="253" y="714" on="0"/>
        <pt x="290" y="714" on="1"/>
        <pt x="328" y="714" on="0"/>
        <pt x="376" y="756" on="0"/>
        <pt x="376" y="786" on="1"/>
        <pt x="376" y="816" on="0"/>
        <pt x="327" y="858" on="0"/>
      </contour>
      <contour>
        <pt x="491" y="-2" on="1"/>
        <pt x="474" y="52" on="0"/>
        <pt x="439" y="159" on="0"/>
        <pt x="421" y="212" on="1"/>
        <pt x="160" y="212" on="1"/>
        <pt x="143" y="160" on="0"/>
        <pt x="108" y="53" on="0"/>
        <pt x="91" y="0" on="1"/>
        <pt x="48" y="0" on="1"/>
        <pt x="98" y="154" on="0"/>
        <pt x="204" y="466" on="0"/>
        <pt x="259" y="623" on="1"/>
        <pt x="324" y="623" on="1"/>
        <pt x="380" y="467" on="0"/>
        <pt x="485" y="156" on="0"/>
        <pt x="536" y="2" on="1"/>
      </contour>
      <contour>
        <pt x="287" y="582" on="1"/>
        <pt x="258" y="498" on="0"/>
        <pt x="201" y="331" on="0"/>
        <pt x="173" y="248" on="1"/>
        <pt x="409" y="248" on="1"/>
        <pt x="381" y="332" on="0"/>
        <pt x="324" y="499" on="0"/>
        <pt x="294" y="582" on="1"/>
      </contour>
    </TTGlyph>
    <TTGlyph name="Aring.sc" xMin="47" yMin="-2" xMax="473" yMax="792">
      <contour>
        <pt x="258" y="792" on="1"/>
        <pt x="310" y="792" on="0"/>
        <pt x="378" y="732" on="0"/>
        <pt x="378" y="691" on="1"/>
        <pt x="378" y="646" on="0"/>
        <pt x="312" y="586" on="0"/>
        <pt x="258" y="586" on="1"/>
        <pt x="206" y="586" on="0"/>
        <pt x="139" y="645" on="0"/>
        <pt x="139" y="687" on="1"/>
        <pt x="139" y="732" on="0"/>
        <pt x="204" y="792" on="0"/>
      </contour>
      <contour>
        <pt x="258" y="761" on="1"/>
        <pt x="220" y="761" on="0"/>
        <pt x="174" y="719" on="0"/>
        <pt x="174" y="689" on="1"/>
        <pt x="174" y="658" on="0"/>
        <pt x="221" y="617" on="0"/>
        <pt x="258" y="617" on="1"/>
        <pt x="296" y="617" on="0"/>
        <pt x="344" y="659" on="0"/>
        <pt x="344" y="689" on="1"/>
        <pt x="344" y="719" on="0"/>
        <pt x="295" y="761" on="0"/>
      </contour>
      <contour>
        <pt x="429" y="-2" on="1"/>
        <pt x="415" y="42" on="0"/>
        <pt x="385" y="131" on="0"/>
        <pt x="370" y="176" on="1"/>
        <pt x="149" y="176" on="1"/>
        <pt x="134" y="132" on="0"/>
        <pt x="104" y="44" on="0"/>
        <pt x="90" y="0" on="1"/>
        <pt x="47" y="0" on="1"/>
        <pt x="90" y="130" on="0"/>
        <pt x="182" y="395" on="0"/>
        <pt x="231" y="525" on="1"/>
        <pt x="294" y="525" on="1"/>
        <pt x="340" y="394" on="0"/>
        <pt x="430" y="132" on="0"/>
        <pt x="473" y="2" on="1"/>
      </contour>
      <contour>
        <pt x="258" y="486" on="1"/>
        <pt x="233" y="417" on="0"/>
        <pt x="184" y="279" on="0"/>
        <pt x="160" y="210" on="1"/>
        <pt x="358" y="210" on="1"/>
        <pt x="335" y="279" on="0"/>
        <pt x="288" y="418" on="0"/>
        <pt x="264" y="486" on="1"/>
      </contour>
    </TTGlyph>
    <TTGlyph name="Aringacute" xMin="48" yMin="-2" xMax="536" yMax="1138">
      <contour>
        <pt x="209" y="959" on="1"/>
        <pt x="229" y="975" on="0"/>
        <pt x="275" y="1020" on="0"/>
        <pt x="319" y="1068" on="0"/>
        <pt x="360" y="1117" on="0"/>
        <pt x="375" y="1138" on="1"/>
        <pt x="416" y="1101" on="1"/>
        <pt x="398" y="1082" on="0"/>
        <pt x="350" y="1037" on="0"/>
        <pt x="299" y="994" on="0"/>
        <pt x="246" y="953" on="0"/>
        <pt x="224" y="938" on="1"/>
      </contour>
      <contour>
        <pt x="290" y="889" on="1"/>
        <pt x="342" y="889" on="0"/>
        <pt x="410" y="829" on="0"/>
        <pt x="410" y="788" on="1"/>
        <pt x="410" y="743" on="0"/>
        <pt x="344" y="683" on="0"/>
        <pt x="290" y="683" on="1"/>
        <pt x="238" y="683" on="0"/>
        <pt x="171" y="742" on="0"/>
        <pt x="171" y="784" on="1"/>
        <pt x="171" y="829" on="0"/>
        <pt x="236" y="889" on="0"/>
      </contour>
      <contour>
        <pt x="290" y="858" on="1"/>
        <pt x="252" y="858" on="0"/>
        <pt x="206" y="816" on="0"/>
        <pt x="206" y="786" on="1"/>
        <pt x="206" y="755" on="0"/>
        <pt x="253" y="714" on="0"/>
        <pt x="290" y="714" on="1"/>
        <pt x="328" y="714" on="0"/>
        <pt x="376" y="756" on="0"/>
        <pt x="376" y="786" on="1"/>
        <pt x="376" y="816" on="0"/>
        <pt x="327" y="858" on="0"/>
      </contour>
      <contour>
        <pt x="491" y="-2" on="1"/>
        <pt x="474" y="52" on="0"/>
        <pt x="439" y="159" on="0"/>
        <pt x="421" y="212" on="1"/>
        <pt x="160" y="212" on="1"/>
        <pt x="143" y="160" on="0"/>
        <pt x="108" y="53" on="0"/>
        <pt x="91" y="0" on="1"/>
        <pt x="48" y="0" on="1"/>
        <pt x="98" y="154" on="0"/>
        <pt x="204" y="466" on="0"/>
        <pt x="259" y="623" on="1"/>
        <pt x="324" y="623" on="1"/>
        <pt x="380" y="467" on="0"/>
        <pt x="485" y="156" on="0"/>
        <pt x="536" y="2" on="1"/>
      </contour>
      <contour>
        <pt x="287" y="582" on="1"/>
        <pt x="258" y="498" on="0"/>
        <pt x="201" y="331" on="0"/>
        <pt x="173" y="248" on="1"/>
        <pt x="409" y="248" on="1"/>
        <pt x="381" y="332" on="0"/>
        <pt x="324" y="499" on="0"/>
        <pt x="294" y="582" on="1"/>
      </contour>
    </TTGlyph>
    <TTGlyph name="Aringacute.sc" xMin="47" yMin="-2" xMax="473" yMax="1040">
      <contour>
        <pt x="177" y="861" on="1"/>
        <pt x="197" y="877" on="0"/>
        <pt x="243" y="922" on="0"/>
        <pt x="287" y="970" on="0"/>
        <pt x="328" y="1019" on="0"/>
        <pt x="343" y="1040" on="1"/>
        <pt x="384" y="1003" on="1"/>
        <pt x="366" y="984" on="0"/>
        <pt x="318" y="939" on="0"/>
        <pt x="267" y="896" on="0"/>
        <pt x="214" y="855" on="0"/>
        <pt x="192" y="840" on="1"/>
      </contour>
      <contour>
        <pt x="258" y="792" on="1"/>
        <pt x="310" y="792" on="0"/>
        <pt x="378" y="732" on="0"/>
        <pt x="378" y="691" on="1"/>
        <pt x="378" y="646" on="0"/>
        <pt x="312" y="586" on="0"/>
        <pt x="258" y="586" on="1"/>
        <pt x="206" y="586" on="0"/>
        <pt x="139" y="645" on="0"/>
        <pt x="139" y="687" on="1"/>
        <pt x="139" y="732" on="0"/>
        <pt x="204" y="792" on="0"/>
      </contour>
      <contour>
        <pt x="258" y="761" on="1"/>
        <pt x="220" y="761" on="0"/>
        <pt x="174" y="719" on="0"/>
        <pt x="174" y="689" on="1"/>
        <pt x="174" y="658" on="0"/>
        <pt x="221" y="617" on="0"/>
        <pt x="258" y="617" on="1"/>
        <pt x="296" y="617" on="0"/>
        <pt x="344" y="659" on="0"/>
        <pt x="344" y="689" on="1"/>
        <pt x="344" y="719" on="0"/>
        <pt x="295" y="761" on="0"/>
      </contour>
      <contour>
        <pt x="429" y="-2" on="1"/>
        <pt x="415" y="42" on="0"/>
        <pt x="385" y="131" on="0"/>
        <pt x="370" y="176" on="1"/>
        <pt x="149" y="176" on="1"/>
        <pt x="134" y="132" on="0"/>
        <pt x="104" y="44" on="0"/>
        <pt x="90" y="0" on="1"/>
        <pt x="47" y="0" on="1"/>
        <pt x="90" y="130" on="0"/>
        <pt x="182" y="395" on="0"/>
        <pt x="231" y="525" on="1"/>
        <pt x="294" y="525" on="1"/>
        <pt x="340" y="394" on="0"/>
        <pt x="430" y="132" on="0"/>
        <pt x="473" y="2" on="1"/>
      </contour>
      <contour>
        <pt x="258" y="486" on="1"/>
        <pt x="233" y="417" on="0"/>
        <pt x="184" y="279" on="0"/>
        <pt x="160" y="210" on="1"/>
        <pt x="358" y="210" on="1"/>
        <pt x="335" y="279" on="0"/>
        <pt x="288" y="418" on="0"/>
        <pt x="264" y="486" on="1"/>
      </contour>
    </TTGlyph>
    <TTGlyph name="Atilde" xMin="48" yMin="-2" xMax="536" yMax="862">
      <contour>
        <pt x="367" y="705" on="1"/>
        <pt x="343" y="705" on="0"/>
        <pt x="306" y="742" on="0"/>
        <pt x="272" y="787" on="0"/>
        <pt x="241" y="824" on="0"/>
        <pt x="223" y="824" on="1"/>
        <pt x="201" y="824" on="0"/>
        <pt x="162" y="762" on="0"/>
        <pt x="143" y="714" on="1"/>
        <pt x="114" y="726" on="1"/>
        <pt x="139" y="791" on="0"/>
        <pt x="196" y="862" on="0"/>
        <pt x="228" y="862" on="1"/>
        <pt x="252" y="862" on="0"/>
        <pt x="289" y="825" on="0"/>
        <pt x="322" y="780" on="0"/>
        <pt x="353" y="743" on="0"/>
        <pt x="371" y="743" on="1"/>
        <pt x="393" y="743" on="0"/>
        <pt x="433" y="805" on="0"/>
        <pt x="452" y="853" on="1"/>
        <pt x="480" y="841" on="1"/>
        <pt x="456" y="776" on="0"/>
        <pt x="398" y="705" on="0"/>
      </contour>
      <contour>
        <pt x="491" y="-2" on="1"/>
        <pt x="474" y="52" on="0"/>
        <pt x="439" y="159" on="0"/>
        <pt x="421" y="212" on="1"/>
        <pt x="160" y="212" on="1"/>
        <pt x="143" y="160" on="0"/>
        <pt x="108" y="53" on="0"/>
        <pt x="91" y="0" on="1"/>
        <pt x="48" y="0" on="1"/>
        <pt x="98" y="154" on="0"/>
        <pt x="204" y="466" on="0"/>
        <pt x="259" y="623" on="1"/>
        <pt x="324" y="623" on="1"/>
        <pt x="380" y="467" on="0"/>
        <pt x="485" y="156" on="0"/>
        <pt x="536" y="2" on="1"/>
      </contour>
      <contour>
        <pt x="287" y="582" on="1"/>
        <pt x="258" y="498" on="0"/>
        <pt x="201" y="331" on="0"/>
        <pt x="173" y="248" on="1"/>
        <pt x="409" y="248" on="1"/>
        <pt x="381" y="332" on="0"/>
        <pt x="324" y="499" on="0"/>
        <pt x="294" y="582" on="1"/>
      </contour>
    </TTGlyph>
    <TTGlyph name="Atilde.sc" xMin="47" yMin="-2" xMax="473" yMax="765">
      <contour>
        <pt x="335" y="608" on="1"/>
        <pt x="311" y="608" on="0"/>
        <pt x="274" y="645" on="0"/>
        <pt x="240" y="690" on="0"/>
        <pt x="209" y="727" on="0"/>
        <pt x="191" y="727" on="1"/>
        <pt x="169" y="727" on="0"/>
        <pt x="130" y="665" on="0"/>
        <pt x="111" y="617" on="1"/>
        <pt x="82" y="629" on="1"/>
        <pt x="107" y="694" on="0"/>
        <pt x="164" y="765" on="0"/>
        <pt x="196" y="765" on="1"/>
        <pt x="220" y="765" on="0"/>
        <pt x="257" y="728" on="0"/>
        <pt x="290" y="683" on="0"/>
        <pt x="321" y="646" on="0"/>
        <pt x="339" y="646" on="1"/>
        <pt x="361" y="646" on="0"/>
        <pt x="401" y="708" on="0"/>
        <pt x="420" y="756" on="1"/>
        <pt x="448" y="744" on="1"/>
        <pt x="424" y="679" on="0"/>
        <pt x="366" y="608" on="0"/>
      </contour>
      <contour>
        <pt x="429" y="-2" on="1"/>
        <pt x="415" y="42" on="0"/>
        <pt x="385" y="131" on="0"/>
        <pt x="370" y="176" on="1"/>
        <pt x="149" y="176" on="1"/>
        <pt x="134" y="132" on="0"/>
        <pt x="104" y="44" on="0"/>
        <pt x="90" y="0" on="1"/>
        <pt x="47" y="0" on="1"/>
        <pt x="90" y="130" on="0"/>
        <pt x="182" y="395" on="0"/>
        <pt x="231" y="525" on="1"/>
        <pt x="294" y="525" on="1"/>
        <pt x="340" y="394" on="0"/>
        <pt x="430" y="132" on="0"/>
        <pt x="473" y="2" on="1"/>
      </contour>
      <contour>
        <pt x="258" y="486" on="1"/>
        <pt x="233" y="417" on="0"/>
        <pt x="184" y="279" on="0"/>
        <pt x="160" y="210" on="1"/>
        <pt x="358" y="210" on="1"/>
        <pt x="335" y="279" on="0"/>
        <pt x="288" y="418" on="0"/>
        <pt x="264" y="486" on="1"/>
      </contour>
    </TTGlyph>
    <TTGlyph name="B" xMin="108" yMin="-9" xMax="504" yMax="628">
      <contour>
        <pt x="229" y="-9" on="1"/>
        <pt x="201" y="-9" on="0"/>
        <pt x="140" y="-4" on="0"/>
        <pt x="108" y="0" on="1"/>
        <pt x="108" y="620" on="1"/>
        <pt x="142" y="624" on="0"/>
        <pt x="206" y="628" on="0"/>
        <pt x="234" y="628" on="1"/>
        <pt x="350" y="628" on="0"/>
        <pt x="482" y="557" on="0"/>
        <pt x="482" y="479" on="1"/>
        <pt x="482" y="410" on="0"/>
        <pt x="392" y="333" on="0"/>
        <pt x="329" y="320" on="1"/>
        <pt x="404" y="312" on="0"/>
        <pt x="504" y="240" on="0"/>
        <pt x="504" y="169" on="1"/>
        <pt x="504" y="123" on="0"/>
        <pt x="463" y="55" on="0"/>
        <pt x="391" y="12" on="0"/>
        <pt x="289" y="-9" on="0"/>
      </contour>
      <contour>
        <pt x="178" y="331" on="1"/>
        <pt x="318" y="331" on="0"/>
        <pt x="439" y="400" on="0"/>
        <pt x="439" y="469" on="1"/>
        <pt x="439" y="533" on="0"/>
        <pt x="332" y="590" on="0"/>
        <pt x="242" y="590" on="1"/>
        <pt x="222" y="590" on="0"/>
        <pt x="177" y="588" on="0"/>
        <pt x="153" y="585" on="1"/>
        <pt x="153" y="332" on="1"/>
        <pt x="160" y="331" on="0"/>
        <pt x="172" y="331" on="0"/>
      </contour>
      <contour>
        <pt x="256" y="30" on="1"/>
        <pt x="349" y="30" on="0"/>
        <pt x="461" y="92" on="0"/>
        <pt x="461" y="164" on="1"/>
        <pt x="461" y="240" on="0"/>
        <pt x="327" y="296" on="0"/>
        <pt x="192" y="296" on="1"/>
        <pt x="183" y="296" on="0"/>
        <pt x="163" y="295" on="0"/>
        <pt x="153" y="295" on="1"/>
        <pt x="153" y="37" on="1"/>
        <pt x="181" y="33" on="0"/>
        <pt x="232" y="30" on="0"/>
      </contour>
    </TTGlyph>
    <TTGlyph name="B.sc" xMin="99" yMin="-7" xMax="450" yMax="530">
      <contour>
        <pt x="206" y="-7" on="1"/>
        <pt x="181" y="-7" on="0"/>
        <pt x="127" y="-4" on="0"/>
        <pt x="99" y="0" on="1"/>
        <pt x="99" y="523" on="1"/>
        <pt x="130" y="527" on="0"/>
        <pt x="187" y="530" on="0"/>
        <pt x="212" y="530" on="1"/>
        <pt x="314" y="530" on="0"/>
        <pt x="430" y="469" on="0"/>
        <pt x="430" y="403" on="1"/>
        <pt x="430" y="346" on="0"/>
        <pt x="351" y="281" on="0"/>
        <pt x="294" y="270" on="1"/>
        <pt x="361" y="263" on="0"/>
        <pt x="450" y="204" on="0"/>
        <pt x="450" y="143" on="1"/>
        <pt x="450" y="104" on="0"/>
        <pt x="414" y="47" on="0"/>
        <pt x="350" y="10" on="0"/>
        <pt x="260" y="-7" on="0"/>
      </contour>
      <contour>
        <pt x="166" y="281" on="1"/>
        <pt x="285" y="281" on="0"/>
        <pt x="387" y="337" on="0"/>
        <pt x="387" y="394" on="1"/>
        <pt x="387" y="447" on="0"/>
        <pt x="295" y="493" on="0"/>
        <pt x="219" y="493" on="1"/>
        <pt x="202" y="493" on="0"/>
        <pt x="164" y="491" on="0"/>
        <pt x="144" y="489" on="1"/>
        <pt x="144" y="282" on="1"/>
        <pt x="150" y="281" on="0"/>
        <pt x="161" y="281" on="0"/>
      </contour>
      <contour>
        <pt x="235" y="30" on="1"/>
        <pt x="313" y="30" on="0"/>
        <pt x="407" y="81" on="0"/>
        <pt x="407" y="139" on="1"/>
        <pt x="407" y="202" on="0"/>
        <pt x="295" y="247" on="0"/>
        <pt x="182" y="247" on="1"/>
        <pt x="173" y="247" on="0"/>
        <pt x="154" y="246" on="0"/>
        <pt x="144" y="246" on="1"/>
        <pt x="144" y="36" on="1"/>
        <pt x="169" y="33" on="0"/>
        <pt x="214" y="30" on="0"/>
      </contour>
    </TTGlyph>
    <TTGlyph name="C" xMin="63" yMin="-8" xMax="471" yMax="628">
      <contour>
        <pt x="471" y="34" on="1"/>
        <pt x="467" y="-7" on="1"/>
        <pt x="454" y="-8" on="0"/>
        <pt x="428" y="-8" on="0"/>
        <pt x="416" y="-8" on="1"/>
        <pt x="315" y="-8" on="0"/>
        <pt x="179" y="38" on="0"/>
        <pt x="98" y="119" on="0"/>
        <pt x="63" y="232" on="0"/>
        <pt x="63" y="297" on="1"/>
        <pt x="63" y="361" on="0"/>
        <pt x="104" y="477" on="0"/>
        <pt x="197" y="566" on="0"/>
        <pt x="350" y="623" on="0"/>
        <pt x="462" y="628" on="1"/>
        <pt x="465" y="585" on="1"/>
        <pt x="360" y="580" on="0"/>
        <pt x="222" y="534" on="0"/>
        <pt x="141" y="461" on="0"/>
        <pt x="108" y="361" on="0"/>
        <pt x="108" y="304" on="1"/>
        <pt x="108" y="242" on="0"/>
        <pt x="140" y="141" on="0"/>
        <pt x="214" y="71" on="0"/>
        <pt x="339" y="33" on="0"/>
        <pt x="430" y="33" on="1"/>
        <pt x="440" y="33" on="0"/>
        <pt x="461" y="33" on="0"/>
      </contour>
    </TTGlyph>
    <TTGlyph name="C.sc" xMin="58" yMin="-6" xMax="415" yMax="530">
      <contour>
        <pt x="415" y="33" on="1"/>
        <pt x="411" y="-5" on="1"/>
        <pt x="399" y="-6" on="0"/>
        <pt x="376" y="-6" on="0"/>
        <pt x="365" y="-6" on="1"/>
        <pt x="277" y="-6" on="0"/>
        <pt x="159" y="33" on="0"/>
        <pt x="88" y="102" on="0"/>
        <pt x="58" y="196" on="0"/>
        <pt x="58" y="250" on="1"/>
        <pt x="58" y="304" on="0"/>
        <pt x="94" y="402" on="0"/>
        <pt x="175" y="477" on="0"/>
        <pt x="310" y="526" on="0"/>
        <pt x="407" y="530" on="1"/>
        <pt x="410" y="489" on="1"/>
        <pt x="319" y="485" on="0"/>
        <pt x="200" y="448" on="0"/>
        <pt x="131" y="387" on="0"/>
        <pt x="103" y="305" on="0"/>
        <pt x="103" y="257" on="1"/>
        <pt x="103" y="153" on="0"/>
        <pt x="225" y="32" on="0"/>
        <pt x="382" y="32" on="1"/>
        <pt x="390" y="32" on="0"/>
        <pt x="407" y="33" on="0"/>
      </contour>
    </TTGlyph>
    <TTGlyph name="Cacute" xMin="63" yMin="-8" xMax="471" yMax="898">
      <contour>
        <pt x="227" y="719" on="1"/>
        <pt x="247" y="735" on="0"/>
        <pt x="293" y="780" on="0"/>
        <pt x="337" y="828" on="0"/>
        <pt x="378" y="877" on="0"/>
        <pt x="393" y="898" on="1"/>
        <pt x="434" y="861" on="1"/>
        <pt x="416" y="842" on="0"/>
        <pt x="368" y="797" on="0"/>
        <pt x="317" y="754" on="0"/>
        <pt x="264" y="713" on="0"/>
        <pt x="242" y="698" on="1"/>
      </contour>
      <contour>
        <pt x="471" y="34" on="1"/>
        <pt x="467" y="-7" on="1"/>
        <pt x="454" y="-8" on="0"/>
        <pt x="428" y="-8" on="0"/>
        <pt x="416" y="-8" on="1"/>
        <pt x="315" y="-8" on="0"/>
        <pt x="179" y="38" on="0"/>
        <pt x="98" y="119" on="0"/>
        <pt x="63" y="232" on="0"/>
        <pt x="63" y="297" on="1"/>
        <pt x="63" y="361" on="0"/>
        <pt x="104" y="477" on="0"/>
        <pt x="197" y="566" on="0"/>
        <pt x="350" y="623" on="0"/>
        <pt x="462" y="628" on="1"/>
        <pt x="465" y="585" on="1"/>
        <pt x="360" y="580" on="0"/>
        <pt x="222" y="534" on="0"/>
        <pt x="141" y="461" on="0"/>
        <pt x="108" y="361" on="0"/>
        <pt x="108" y="304" on="1"/>
        <pt x="108" y="242" on="0"/>
        <pt x="140" y="141" on="0"/>
        <pt x="214" y="71" on="0"/>
        <pt x="339" y="33" on="0"/>
        <pt x="430" y="33" on="1"/>
        <pt x="440" y="33" on="0"/>
        <pt x="461" y="33" on="0"/>
      </contour>
    </TTGlyph>
    <TTGlyph name="Cacute.sc" xMin="58" yMin="-6" xMax="415" yMax="801">
      <contour>
        <pt x="191" y="622" on="1"/>
        <pt x="211" y="638" on="0"/>
        <pt x="257" y="683" on="0"/>
        <pt x="301" y="731" on="0"/>
        <pt x="342" y="780" on="0"/>
        <pt x="357" y="801" on="1"/>
        <pt x="398" y="764" on="1"/>
        <pt x="380" y="745" on="0"/>
        <pt x="332" y="700" on="0"/>
        <pt x="281" y="657" on="0"/>
        <pt x="228" y="616" on="0"/>
        <pt x="206" y="601" on="1"/>
      </contour>
      <contour>
        <pt x="415" y="33" on="1"/>
        <pt x="411" y="-5" on="1"/>
        <pt x="399" y="-6" on="0"/>
        <pt x="376" y="-6" on="0"/>
        <pt x="365" y="-6" on="1"/>
        <pt x="277" y="-6" on="0"/>
        <pt x="159" y="33" on="0"/>
        <pt x="88" y="102" on="0"/>
        <pt x="58" y="196" on="0"/>
        <pt x="58" y="250" on="1"/>
        <pt x="58" y="304" on="0"/>
        <pt x="94" y="402" on="0"/>
        <pt x="175" y="477" on="0"/>
        <pt x="310" y="526" on="0"/>
        <pt x="407" y="530" on="1"/>
        <pt x="410" y="489" on="1"/>
        <pt x="319" y="485" on="0"/>
        <pt x="200" y="448" on="0"/>
        <pt x="131" y="387" on="0"/>
        <pt x="103" y="305" on="0"/>
        <pt x="103" y="257" on="1"/>
        <pt x="103" y="153" on="0"/>
        <pt x="225" y="32" on="0"/>
        <pt x="382" y="32" on="1"/>
        <pt x="390" y="32" on="0"/>
        <pt x="407" y="33" on="0"/>
      </contour>
    </TTGlyph>
    <TTGlyph name="Ccaron" xMin="63" yMin="-8" xMax="471" yMax="872">
      <contour>
        <pt x="314" y="697" on="1"/>
        <pt x="313" y="697" on="1"/>
        <pt x="158" y="844" on="1"/>
        <pt x="188" y="872" on="1"/>
        <pt x="316" y="746" on="1"/>
        <pt x="447" y="872" on="1"/>
        <pt x="471" y="848" on="1"/>
      </contour>
      <contour>
        <pt x="471" y="34" on="1"/>
        <pt x="467" y="-7" on="1"/>
        <pt x="454" y="-8" on="0"/>
        <pt x="428" y="-8" on="0"/>
        <pt x="416" y="-8" on="1"/>
        <pt x="315" y="-8" on="0"/>
        <pt x="179" y="38" on="0"/>
        <pt x="98" y="119" on="0"/>
        <pt x="63" y="232" on="0"/>
        <pt x="63" y="297" on="1"/>
        <pt x="63" y="361" on="0"/>
        <pt x="104" y="477" on="0"/>
        <pt x="197" y="566" on="0"/>
        <pt x="350" y="623" on="0"/>
        <pt x="462" y="628" on="1"/>
        <pt x="465" y="585" on="1"/>
        <pt x="360" y="580" on="0"/>
        <pt x="222" y="534" on="0"/>
        <pt x="141" y="461" on="0"/>
        <pt x="108" y="361" on="0"/>
        <pt x="108" y="304" on="1"/>
        <pt x="108" y="242" on="0"/>
        <pt x="140" y="141" on="0"/>
        <pt x="214" y="71" on="0"/>
        <pt x="339" y="33" on="0"/>
        <pt x="430" y="33" on="1"/>
        <pt x="440" y="33" on="0"/>
        <pt x="461" y="33" on="0"/>
      </contour>
    </TTGlyph>
    <TTGlyph name="Ccaron.sc" xMin="58" yMin="-6" xMax="436" yMax="775">
      <contour>
        <pt x="279" y="600" on="1"/>
        <pt x="278" y="600" on="1"/>
        <pt x="123" y="747" on="1"/>
        <pt x="153" y="775" on="1"/>
        <pt x="281" y="649" on="1"/>
        <pt x="412" y="775" on="1"/>
        <pt x="436" y="751" on="1"/>
      </contour>
      <contour>
        <pt x="415" y="33" on="1"/>
        <pt x="411" y="-5" on="1"/>
        <pt x="399" y="-6" on="0"/>
        <pt x="376" y="-6" on="0"/>
        <pt x="365" y="-6" on="1"/>
        <pt x="277" y="-6" on="0"/>
        <pt x="159" y="33" on="0"/>
        <pt x="88" y="102" on="0"/>
        <pt x="58" y="196" on="0"/>
        <pt x="58" y="250" on="1"/>
        <pt x="58" y="304" on="0"/>
        <pt x="94" y="402" on="0"/>
        <pt x="175" y="477" on="0"/>
        <pt x="310" y="526" on="0"/>
        <pt x="407" y="530" on="1"/>
        <pt x="410" y="489" on="1"/>
        <pt x="319" y="485" on="0"/>
        <pt x="200" y="448" on="0"/>
        <pt x="131" y="387" on="0"/>
        <pt x="103" y="305" on="0"/>
        <pt x="103" y="257" on="1"/>
        <pt x="103" y="153" on="0"/>
        <pt x="225" y="32" on="0"/>
        <pt x="382" y="32" on="1"/>
        <pt x="390" y="32" on="0"/>
        <pt x="407" y="33" on="0"/>
      </contour>
    </TTGlyph>
    <TTGlyph name="Ccedilla" xMin="63" yMin="-206" xMax="471" yMax="628">
      <contour>
        <pt x="471" y="34" on="1"/>
        <pt x="467" y="-7" on="1"/>
        <pt x="454" y="-8" on="0"/>
        <pt x="428" y="-8" on="0"/>
        <pt x="416" y="-8" on="1"/>
        <pt x="315" y="-8" on="0"/>
        <pt x="179" y="38" on="0"/>
        <pt x="98" y="119" on="0"/>
        <pt x="63" y="232" on="0"/>
        <pt x="63" y="297" on="1"/>
        <pt x="63" y="361" on="0"/>
        <pt x="104" y="477" on="0"/>
        <pt x="197" y="566" on="0"/>
        <pt x="350" y="623" on="0"/>
        <pt x="462" y="628" on="1"/>
        <pt x="465" y="585" on="1"/>
        <pt x="360" y="580" on="0"/>
        <pt x="222" y="534" on="0"/>
        <pt x="141" y="461" on="0"/>
        <pt x="108" y="361" on="0"/>
        <pt x="108" y="304" on="1"/>
        <pt x="108" y="242" on="0"/>
        <pt x="140" y="141" on="0"/>
        <pt x="214" y="71" on="0"/>
        <pt x="339" y="33" on="0"/>
        <pt x="430" y="33" on="1"/>
        <pt x="440" y="33" on="0"/>
        <pt x="461" y="33" on="0"/>
      </contour>
      <contour>
        <pt x="222" y="-56" on="1"/>
        <pt x="231" y="-29" on="1"/>
        <pt x="301" y="-50" on="0"/>
        <pt x="370" y="-101" on="0"/>
        <pt x="370" y="-130" on="1"/>
        <pt x="370" y="-163" on="0"/>
        <pt x="291" y="-206" on="0"/>
        <pt x="204" y="-206" on="1"/>
        <pt x="193" y="-206" on="1"/>
        <pt x="192" y="-168" on="1"/>
        <pt x="206" y="-168" on="1"/>
        <pt x="274" y="-168" on="0"/>
        <pt x="333" y="-144" on="0"/>
        <pt x="333" y="-125" on="1"/>
        <pt x="333" y="-107" on="0"/>
        <pt x="274" y="-72" on="0"/>
      </contour>
    </TTGlyph>
    <TTGlyph name="Ccedilla.sc" xMin="58" yMin="-205" xMax="415" yMax="530">
      <contour>
        <pt x="415" y="33" on="1"/>
        <pt x="411" y="-5" on="1"/>
        <pt x="399" y="-6" on="0"/>
        <pt x="376" y="-6" on="0"/>
        <pt x="365" y="-6" on="1"/>
        <pt x="277" y="-6" on="0"/>
        <pt x="159" y="33" on="0"/>
        <pt x="88" y="102" on="0"/>
        <pt x="58" y="196" on="0"/>
        <pt x="58" y="250" on="1"/>
        <pt x="58" y="304" on="0"/>
        <pt x="94" y="402" on="0"/>
        <pt x="175" y="477" on="0"/>
        <pt x="310" y="526" on="0"/>
        <pt x="407" y="530" on="1"/>
        <pt x="410" y="489" on="1"/>
        <pt x="319" y="485" on="0"/>
        <pt x="200" y="448" on="0"/>
        <pt x="131" y="387" on="0"/>
        <pt x="103" y="305" on="0"/>
        <pt x="103" y="257" on="1"/>
        <pt x="103" y="153" on="0"/>
        <pt x="225" y="32" on="0"/>
        <pt x="382" y="32" on="1"/>
        <pt x="390" y="32" on="0"/>
        <pt x="407" y="33" on="0"/>
      </contour>
      <contour>
        <pt x="186" y="-55" on="1"/>
        <pt x="195" y="-28" on="1"/>
        <pt x="265" y="-49" on="0"/>
        <pt x="334" y="-100" on="0"/>
        <pt x="334" y="-129" on="1"/>
        <pt x="334" y="-162" on="0"/>
        <pt x="255" y="-205" on="0"/>
        <pt x="168" y="-205" on="1"/>
        <pt x="157" y="-205" on="1"/>
        <pt x="156" y="-167" on="1"/>
        <pt x="170" y="-167" on="1"/>
        <pt x="238" y="-167" on="0"/>
        <pt x="297" y="-143" on="0"/>
        <pt x="297" y="-124" on="1"/>
        <pt x="297" y="-106" on="0"/>
        <pt x="238" y="-71" on="0"/>
      </contour>
    </TTGlyph>
    <TTGlyph name="Cdotaccent" xMin="63" yMin="-8" xMax="471" yMax="837">
      <contour>
        <pt x="331" y="707" on="1"/>
        <pt x="286" y="707" on="1"/>
        <pt x="289" y="837" on="1"/>
        <pt x="335" y="837" on="1"/>
      </contour>
      <contour>
        <pt x="471" y="34" on="1"/>
        <pt x="467" y="-7" on="1"/>
        <pt x="454" y="-8" on="0"/>
        <pt x="428" y="-8" on="0"/>
        <pt x="416" y="-8" on="1"/>
        <pt x="315" y="-8" on="0"/>
        <pt x="179" y="38" on="0"/>
        <pt x="98" y="119" on="0"/>
        <pt x="63" y="232" on="0"/>
        <pt x="63" y="297" on="1"/>
        <pt x="63" y="361" on="0"/>
        <pt x="104" y="477" on="0"/>
        <pt x="197" y="566" on="0"/>
        <pt x="350" y="623" on="0"/>
        <pt x="462" y="628" on="1"/>
        <pt x="465" y="585" on="1"/>
        <pt x="360" y="580" on="0"/>
        <pt x="222" y="534" on="0"/>
        <pt x="141" y="461" on="0"/>
        <pt x="108" y="361" on="0"/>
        <pt x="108" y="304" on="1"/>
        <pt x="108" y="242" on="0"/>
        <pt x="140" y="141" on="0"/>
        <pt x="214" y="71" on="0"/>
        <pt x="339" y="33" on="0"/>
        <pt x="430" y="33" on="1"/>
        <pt x="440" y="33" on="0"/>
        <pt x="461" y="33" on="0"/>
      </contour>
    </TTGlyph>
    <TTGlyph name="Cdotaccent.sc" xMin="58" yMin="-6" xMax="415" yMax="740">
      <contour>
        <pt x="295" y="610" on="1"/>
        <pt x="250" y="610" on="1"/>
        <pt x="253" y="740" on="1"/>
        <pt x="299" y="740" on="1"/>
      </contour>
      <contour>
        <pt x="415" y="33" on="1"/>
        <pt x="411" y="-5" on="1"/>
        <pt x="399" y="-6" on="0"/>
        <pt x="376" y="-6" on="0"/>
        <pt x="365" y="-6" on="1"/>
        <pt x="277" y="-6" on="0"/>
        <pt x="159" y="33" on="0"/>
        <pt x="88" y="102" on="0"/>
        <pt x="58" y="196" on="0"/>
        <pt x="58" y="250" on="1"/>
        <pt x="58" y="304" on="0"/>
        <pt x="94" y="402" on="0"/>
        <pt x="175" y="477" on="0"/>
        <pt x="310" y="526" on="0"/>
        <pt x="407" y="530" on="1"/>
        <pt x="410" y="489" on="1"/>
        <pt x="319" y="485" on="0"/>
        <pt x="200" y="448" on="0"/>
        <pt x="131" y="387" on="0"/>
        <pt x="103" y="305" on="0"/>
        <pt x="103" y="257" on="1"/>
        <pt x="103" y="153" on="0"/>
        <pt x="225" y="32" on="0"/>
        <pt x="382" y="32" on="1"/>
        <pt x="390" y="32" on="0"/>
        <pt x="407" y="33" on="0"/>
      </contour>
    </TTGlyph>
    <TTGlyph name="D" xMin="108" yMin="-9" xMax="563" yMax="630">
      <contour>
        <pt x="563" y="323" on="1"/>
        <pt x="563" y="168" on="0"/>
        <pt x="379" y="-9" on="0"/>
        <pt x="213" y="-9" on="1"/>
        <pt x="188" y="-9" on="0"/>
        <pt x="136" y="-5" on="0"/>
        <pt x="108" y="-1" on="1"/>
        <pt x="108" y="621" on="1"/>
        <pt x="142" y="625" on="0"/>
        <pt x="206" y="630" on="0"/>
        <pt x="235" y="630" on="1"/>
        <pt x="404" y="630" on="0"/>
        <pt x="563" y="474" on="0"/>
      </contour>
      <contour>
        <pt x="518" y="313" on="1"/>
        <pt x="518" y="453" on="0"/>
        <pt x="384" y="590" on="0"/>
        <pt x="243" y="590" on="1"/>
        <pt x="222" y="590" on="0"/>
        <pt x="177" y="587" on="0"/>
        <pt x="153" y="584" on="1"/>
        <pt x="153" y="37" on="1"/>
        <pt x="175" y="34" on="0"/>
        <pt x="217" y="31" on="0"/>
        <pt x="236" y="31" on="1"/>
        <pt x="373" y="31" on="0"/>
        <pt x="518" y="181" on="0"/>
      </contour>
    </TTGlyph>
    <TTGlyph name="D.sc" xMin="99" yMin="-8" xMax="497" yMax="532">
      <contour>
        <pt x="497" y="272" on="1"/>
        <pt x="497" y="141" on="0"/>
        <pt x="337" y="-8" on="0"/>
        <pt x="190" y="-8" on="1"/>
        <pt x="169" y="-8" on="0"/>
        <pt x="123" y="-5" on="0"/>
        <pt x="99" y="-1" on="1"/>
        <pt x="99" y="524" on="1"/>
        <pt x="129" y="528" on="0"/>
        <pt x="184" y="532" on="0"/>
        <pt x="209" y="532" on="1"/>
        <pt x="358" y="532" on="0"/>
        <pt x="497" y="400" on="0"/>
      </contour>
      <contour>
        <pt x="452" y="263" on="1"/>
        <pt x="452" y="379" on="0"/>
        <pt x="339" y="493" on="0"/>
        <pt x="218" y="493" on="1"/>
        <pt x="201" y="493" on="0"/>
        <pt x="163" y="491" on="0"/>
        <pt x="144" y="489" on="1"/>
        <pt x="144" y="36" on="1"/>
        <pt x="163" y="33" on="0"/>
        <pt x="200" y="30" on="0"/>
        <pt x="217" y="30" on="1"/>
        <pt x="332" y="30" on="0"/>
        <pt x="452" y="154" on="0"/>
      </contour>
    </TTGlyph>
    <TTGlyph name="Dcaron" xMin="108" yMin="-9" xMax="563" yMax="876">
      <contour>
        <pt x="312" y="701" on="1"/>
        <pt x="311" y="701" on="1"/>
        <pt x="156" y="848" on="1"/>
        <pt x="186" y="876" on="1"/>
        <pt x="314" y="750" on="1"/>
        <pt x="445" y="876" on="1"/>
        <pt x="469" y="852" on="1"/>
      </contour>
      <contour>
        <pt x="563" y="323" on="1"/>
        <pt x="563" y="168" on="0"/>
        <pt x="379" y="-9" on="0"/>
        <pt x="213" y="-9" on="1"/>
        <pt x="188" y="-9" on="0"/>
        <pt x="136" y="-5" on="0"/>
        <pt x="108" y="-1" on="1"/>
        <pt x="108" y="621" on="1"/>
        <pt x="142" y="625" on="0"/>
        <pt x="206" y="630" on="0"/>
        <pt x="235" y="630" on="1"/>
        <pt x="404" y="630" on="0"/>
        <pt x="563" y="474" on="0"/>
      </contour>
      <contour>
        <pt x="518" y="313" on="1"/>
        <pt x="518" y="453" on="0"/>
        <pt x="384" y="590" on="0"/>
        <pt x="243" y="590" on="1"/>
        <pt x="222" y="590" on="0"/>
        <pt x="177" y="587" on="0"/>
        <pt x="153" y="584" on="1"/>
        <pt x="153" y="37" on="1"/>
        <pt x="175" y="34" on="0"/>
        <pt x="217" y="31" on="0"/>
        <pt x="236" y="31" on="1"/>
        <pt x="373" y="31" on="0"/>
        <pt x="518" y="181" on="0"/>
      </contour>
    </TTGlyph>
    <TTGlyph name="Dcaron.sc" xMin="99" yMin="-8" xMax="497" yMax="778">
      <contour>
        <pt x="281" y="603" on="1"/>
        <pt x="280" y="603" on="1"/>
        <pt x="125" y="750" on="1"/>
        <pt x="155" y="778" on="1"/>
        <pt x="283" y="652" on="1"/>
        <pt x="414" y="778" on="1"/>
        <pt x="438" y="754" on="1"/>
      </contour>
      <contour>
        <pt x="497" y="272" on="1"/>
        <pt x="497" y="141" on="0"/>
        <pt x="337" y="-8" on="0"/>
        <pt x="190" y="-8" on="1"/>
        <pt x="169" y="-8" on="0"/>
        <pt x="123" y="-5" on="0"/>
        <pt x="99" y="-1" on="1"/>
        <pt x="99" y="524" on="1"/>
        <pt x="129" y="528" on="0"/>
        <pt x="184" y="532" on="0"/>
        <pt x="209" y="532" on="1"/>
        <pt x="358" y="532" on="0"/>
        <pt x="497" y="400" on="0"/>
      </contour>
      <contour>
        <pt x="452" y="263" on="1"/>
        <pt x="452" y="379" on="0"/>
        <pt x="339" y="493" on="0"/>
        <pt x="218" y="493" on="1"/>
        <pt x="201" y="493" on="0"/>
        <pt x="163" y="491" on="0"/>
        <pt x="144" y="489" on="1"/>
        <pt x="144" y="36" on="1"/>
        <pt x="163" y="33" on="0"/>
        <pt x="200" y="30" on="0"/>
        <pt x="217" y="30" on="1"/>
        <pt x="332" y="30" on="0"/>
        <pt x="452" y="154" on="0"/>
      </contour>
    </TTGlyph>
    <TTGlyph name="Dcroat" xMin="29" yMin="-9" xMax="563" yMax="630">
      <contour>
        <pt x="213" y="-9" on="1"/>
        <pt x="188" y="-9" on="0"/>
        <pt x="136" y="-5" on="0"/>
        <pt x="108" y="-1" on="1"/>
        <pt x="108" y="298" on="1"/>
        <pt x="29" y="298" on="1"/>
        <pt x="29" y="333" on="1"/>
        <pt x="108" y="333" on="1"/>
        <pt x="108" y="621" on="1"/>
        <pt x="142" y="625" on="0"/>
        <pt x="206" y="630" on="0"/>
        <pt x="235" y="630" on="1"/>
        <pt x="404" y="630" on="0"/>
        <pt x="563" y="474" on="0"/>
        <pt x="563" y="323" on="1"/>
        <pt x="563" y="168" on="0"/>
        <pt x="379" y="-9" on="0"/>
      </contour>
      <contour>
        <pt x="236" y="31" on="1"/>
        <pt x="373" y="31" on="0"/>
        <pt x="518" y="181" on="0"/>
        <pt x="518" y="313" on="1"/>
        <pt x="518" y="453" on="0"/>
        <pt x="384" y="590" on="0"/>
        <pt x="243" y="590" on="1"/>
        <pt x="222" y="590" on="0"/>
        <pt x="177" y="587" on="0"/>
        <pt x="153" y="584" on="1"/>
        <pt x="153" y="333" on="1"/>
        <pt x="320" y="333" on="1"/>
        <pt x="318" y="298" on="1"/>
        <pt x="153" y="298" on="1"/>
        <pt x="153" y="37" on="1"/>
        <pt x="175" y="34" on="0"/>
        <pt x="217" y="31" on="0"/>
      </contour>
    </TTGlyph>
    <TTGlyph name="Dcroat.sc" xMin="30" yMin="-8" xMax="497" yMax="532">
      <contour>
        <pt x="190" y="-8" on="1"/>
        <pt x="169" y="-8" on="0"/>
        <pt x="123" y="-5" on="0"/>
        <pt x="99" y="-1" on="1"/>
        <pt x="99" y="251" on="1"/>
        <pt x="30" y="251" on="1"/>
        <pt x="30" y="284" on="1"/>
        <pt x="99" y="284" on="1"/>
        <pt x="99" y="524" on="1"/>
        <pt x="129" y="528" on="0"/>
        <pt x="184" y="532" on="0"/>
        <pt x="209" y="532" on="1"/>
        <pt x="358" y="532" on="0"/>
        <pt x="497" y="400" on="0"/>
        <pt x="497" y="272" on="1"/>
        <pt x="497" y="141" on="0"/>
        <pt x="337" y="-8" on="0"/>
      </contour>
      <contour>
        <pt x="217" y="30" on="1"/>
        <pt x="332" y="30" on="0"/>
        <pt x="452" y="154" on="0"/>
        <pt x="452" y="263" on="1"/>
        <pt x="452" y="379" on="0"/>
        <pt x="339" y="493" on="0"/>
        <pt x="218" y="493" on="1"/>
        <pt x="201" y="493" on="0"/>
        <pt x="163" y="491" on="0"/>
        <pt x="144" y="489" on="1"/>
        <pt x="144" y="284" on="1"/>
        <pt x="290" y="284" on="1"/>
        <pt x="288" y="251" on="1"/>
        <pt x="144" y="251" on="1"/>
        <pt x="144" y="36" on="1"/>
        <pt x="163" y="33" on="0"/>
        <pt x="200" y="30" on="0"/>
      </contour>
    </TTGlyph>
    <TTGlyph name="E" xMin="108" yMin="0" xMax="468" yMax="620">
      <contour>
        <pt x="468" y="40" on="1"/>
        <pt x="463" y="0" on="1"/>
        <pt x="108" y="0" on="1"/>
        <pt x="108" y="620" on="1"/>
        <pt x="465" y="620" on="1"/>
        <pt x="465" y="580" on="1"/>
        <pt x="153" y="580" on="1"/>
        <pt x="153" y="333" on="1"/>
        <pt x="425" y="333" on="1"/>
        <pt x="425" y="297" on="1"/>
        <pt x="153" y="297" on="1"/>
        <pt x="153" y="40" on="1"/>
      </contour>
    </TTGlyph>
    <TTGlyph name="E.sc" xMin="99" yMin="0" xMax="414" yMax="523">
      <contour>
        <pt x="414" y="39" on="1"/>
        <pt x="410" y="0" on="1"/>
        <pt x="99" y="0" on="1"/>
        <pt x="99" y="523" on="1"/>
        <pt x="411" y="523" on="1"/>
        <pt x="411" y="484" on="1"/>
        <pt x="144" y="484" on="1"/>
        <pt x="144" y="282" on="1"/>
        <pt x="377" y="282" on="1"/>
        <pt x="377" y="248" on="1"/>
        <pt x="144" y="248" on="1"/>
        <pt x="144" y="39" on="1"/>
      </contour>
    </TTGlyph>
    <TTGlyph name="Eacute" xMin="108" yMin="0" xMax="468" yMax="896">
      <contour>
        <pt x="208" y="717" on="1"/>
        <pt x="228" y="733" on="0"/>
        <pt x="274" y="778" on="0"/>
        <pt x="318" y="826" on="0"/>
        <pt x="359" y="875" on="0"/>
        <pt x="374" y="896" on="1"/>
        <pt x="415" y="859" on="1"/>
        <pt x="397" y="840" on="0"/>
        <pt x="349" y="795" on="0"/>
        <pt x="298" y="752" on="0"/>
        <pt x="245" y="711" on="0"/>
        <pt x="223" y="696" on="1"/>
      </contour>
      <contour>
        <pt x="468" y="40" on="1"/>
        <pt x="463" y="0" on="1"/>
        <pt x="108" y="0" on="1"/>
        <pt x="108" y="620" on="1"/>
        <pt x="465" y="620" on="1"/>
        <pt x="465" y="580" on="1"/>
        <pt x="153" y="580" on="1"/>
        <pt x="153" y="333" on="1"/>
        <pt x="425" y="333" on="1"/>
        <pt x="425" y="297" on="1"/>
        <pt x="153" y="297" on="1"/>
        <pt x="153" y="40" on="1"/>
      </contour>
    </TTGlyph>
    <TTGlyph name="Eacute.sc" xMin="99" yMin="0" xMax="414" yMax="799">
      <contour>
        <pt x="174" y="620" on="1"/>
        <pt x="194" y="636" on="0"/>
        <pt x="240" y="681" on="0"/>
        <pt x="284" y="729" on="0"/>
        <pt x="325" y="778" on="0"/>
        <pt x="340" y="799" on="1"/>
        <pt x="381" y="762" on="1"/>
        <pt x="363" y="743" on="0"/>
        <pt x="315" y="698" on="0"/>
        <pt x="264" y="655" on="0"/>
        <pt x="211" y="614" on="0"/>
        <pt x="189" y="599" on="1"/>
      </contour>
      <contour>
        <pt x="414" y="39" on="1"/>
        <pt x="410" y="0" on="1"/>
        <pt x="99" y="0" on="1"/>
        <pt x="99" y="523" on="1"/>
        <pt x="411" y="523" on="1"/>
        <pt x="411" y="484" on="1"/>
        <pt x="144" y="484" on="1"/>
        <pt x="144" y="282" on="1"/>
        <pt x="377" y="282" on="1"/>
        <pt x="377" y="248" on="1"/>
        <pt x="144" y="248" on="1"/>
        <pt x="144" y="39" on="1"/>
      </contour>
    </TTGlyph>
    <TTGlyph name="Ebreve" xMin="108" yMin="0" xMax="468" yMax="867">
      <contour>
        <pt x="287" y="705" on="1"/>
        <pt x="243" y="705" on="0"/>
        <pt x="164" y="775" on="0"/>
        <pt x="125" y="847" on="1"/>
        <pt x="158" y="867" on="1"/>
        <pt x="195" y="800" on="0"/>
        <pt x="255" y="742" on="0"/>
        <pt x="291" y="742" on="1"/>
        <pt x="330" y="742" on="0"/>
        <pt x="393" y="805" on="0"/>
        <pt x="430" y="863" on="1"/>
        <pt x="459" y="848" on="1"/>
        <pt x="420" y="781" on="0"/>
        <pt x="333" y="705" on="0"/>
      </contour>
      <contour>
        <pt x="468" y="40" on="1"/>
        <pt x="463" y="0" on="1"/>
        <pt x="108" y="0" on="1"/>
        <pt x="108" y="620" on="1"/>
        <pt x="465" y="620" on="1"/>
        <pt x="465" y="580" on="1"/>
        <pt x="153" y="580" on="1"/>
        <pt x="153" y="333" on="1"/>
        <pt x="425" y="333" on="1"/>
        <pt x="425" y="297" on="1"/>
        <pt x="153" y="297" on="1"/>
        <pt x="153" y="40" on="1"/>
      </contour>
    </TTGlyph>
    <TTGlyph name="Ebreve.sc" xMin="91" yMin="0" xMax="425" yMax="770">
      <contour>
        <pt x="253" y="608" on="1"/>
        <pt x="209" y="608" on="0"/>
        <pt x="130" y="678" on="0"/>
        <pt x="91" y="750" on="1"/>
        <pt x="124" y="770" on="1"/>
        <pt x="161" y="703" on="0"/>
        <pt x="221" y="645" on="0"/>
        <pt x="257" y="645" on="1"/>
        <pt x="296" y="645" on="0"/>
        <pt x="359" y="708" on="0"/>
        <pt x="396" y="766" on="1"/>
        <pt x="425" y="751" on="1"/>
        <pt x="386" y="684" on="0"/>
        <pt x="299" y="608" on="0"/>
      </contour>
      <contour>
        <pt x="414" y="39" on="1"/>
        <pt x="410" y="0" on="1"/>
        <pt x="99" y="0" on="1"/>
        <pt x="99" y="523" on="1"/>
        <pt x="411" y="523" on="1"/>
        <pt x="411" y="484" on="1"/>
        <pt x="144" y="484" on="1"/>
        <pt x="144" y="282" on="1"/>
        <pt x="377" y="282" on="1"/>
        <pt x="377" y="248" on="1"/>
        <pt x="144" y="248" on="1"/>
        <pt x="144" y="39" on="1"/>
      </contour>
    </TTGlyph>
    <TTGlyph name="Ecaron" xMin="108" yMin="0" xMax="468" yMax="870">
      <contour>
        <pt x="296" y="695" on="1"/>
        <pt x="295" y="695" on="1"/>
        <pt x="140" y="842" on="1"/>
        <pt x="170" y="870" on="1"/>
        <pt x="298" y="744" on="1"/>
        <pt x="429" y="870" on="1"/>
        <pt x="453" y="846" on="1"/>
      </contour>
      <contour>
        <pt x="468" y="40" on="1"/>
        <pt x="463" y="0" on="1"/>
        <pt x="108" y="0" on="1"/>
        <pt x="108" y="620" on="1"/>
        <pt x="465" y="620" on="1"/>
        <pt x="465" y="580" on="1"/>
        <pt x="153" y="580" on="1"/>
        <pt x="153" y="333" on="1"/>
        <pt x="425" y="333" on="1"/>
        <pt x="425" y="297" on="1"/>
        <pt x="153" y="297" on="1"/>
        <pt x="153" y="40" on="1"/>
      </contour>
    </TTGlyph>
    <TTGlyph name="Ecaron.sc" xMin="99" yMin="0" xMax="418" yMax="773">
      <contour>
        <pt x="261" y="598" on="1"/>
        <pt x="260" y="598" on="1"/>
        <pt x="105" y="745" on="1"/>
        <pt x="135" y="773" on="1"/>
        <pt x="263" y="647" on="1"/>
        <pt x="394" y="773" on="1"/>
        <pt x="418" y="749" on="1"/>
      </contour>
      <contour>
        <pt x="414" y="39" on="1"/>
        <pt x="410" y="0" on="1"/>
        <pt x="99" y="0" on="1"/>
        <pt x="99" y="523" on="1"/>
        <pt x="411" y="523" on="1"/>
        <pt x="411" y="484" on="1"/>
        <pt x="144" y="484" on="1"/>
        <pt x="144" y="282" on="1"/>
        <pt x="377" y="282" on="1"/>
        <pt x="377" y="248" on="1"/>
        <pt x="144" y="248" on="1"/>
        <pt x="144" y="39" on="1"/>
      </contour>
    </TTGlyph>
    <TTGlyph name="Ecircumflex" xMin="108" yMin="0" xMax="468" yMax="876">
      <contour>
        <pt x="420" y="700" on="1"/>
        <pt x="292" y="826" on="1"/>
        <pt x="161" y="701" on="1"/>
        <pt x="136" y="724" on="1"/>
        <pt x="294" y="876" on="1"/>
        <pt x="295" y="876" on="1"/>
        <pt x="449" y="728" on="1"/>
      </contour>
      <contour>
        <pt x="468" y="40" on="1"/>
        <pt x="463" y="0" on="1"/>
        <pt x="108" y="0" on="1"/>
        <pt x="108" y="620" on="1"/>
        <pt x="465" y="620" on="1"/>
        <pt x="465" y="580" on="1"/>
        <pt x="153" y="580" on="1"/>
        <pt x="153" y="333" on="1"/>
        <pt x="425" y="333" on="1"/>
        <pt x="425" y="297" on="1"/>
        <pt x="153" y="297" on="1"/>
        <pt x="153" y="40" on="1"/>
      </contour>
    </TTGlyph>
    <TTGlyph name="Ecircumflex.sc" xMin="99" yMin="0" xMax="414" yMax="779">
      <contour>
        <pt x="385" y="603" on="1"/>
        <pt x="257" y="729" on="1"/>
        <pt x="126" y="604" on="1"/>
        <pt x="101" y="627" on="1"/>
        <pt x="259" y="779" on="1"/>
        <pt x="260" y="779" on="1"/>
        <pt x="414" y="631" on="1"/>
      </contour>
      <contour>
        <pt x="414" y="39" on="1"/>
        <pt x="410" y="0" on="1"/>
        <pt x="99" y="0" on="1"/>
        <pt x="99" y="523" on="1"/>
        <pt x="411" y="523" on="1"/>
        <pt x="411" y="484" on="1"/>
        <pt x="144" y="484" on="1"/>
        <pt x="144" y="282" on="1"/>
        <pt x="377" y="282" on="1"/>
        <pt x="377" y="248" on="1"/>
        <pt x="144" y="248" on="1"/>
        <pt x="144" y="39" on="1"/>
      </contour>
    </TTGlyph>
    <TTGlyph name="Edieresis" xMin="108" yMin="0" xMax="468" yMax="835">
      <contour>
        <pt x="415" y="705" on="1"/>
        <pt x="370" y="705" on="1"/>
        <pt x="370" y="835" on="1"/>
        <pt x="416" y="835" on="1"/>
      </contour>
      <contour>
        <pt x="214" y="705" on="1"/>
        <pt x="170" y="705" on="1"/>
        <pt x="169" y="835" on="1"/>
        <pt x="216" y="835" on="1"/>
      </contour>
      <contour>
        <pt x="468" y="40" on="1"/>
        <pt x="463" y="0" on="1"/>
        <pt x="108" y="0" on="1"/>
        <pt x="108" y="620" on="1"/>
        <pt x="465" y="620" on="1"/>
        <pt x="465" y="580" on="1"/>
        <pt x="153" y="580" on="1"/>
        <pt x="153" y="333" on="1"/>
        <pt x="425" y="333" on="1"/>
        <pt x="425" y="297" on="1"/>
        <pt x="153" y="297" on="1"/>
        <pt x="153" y="40" on="1"/>
      </contour>
    </TTGlyph>
    <TTGlyph name="Edieresis.sc" xMin="99" yMin="0" xMax="414" yMax="738">
      <contour>
        <pt x="380" y="608" on="1"/>
        <pt x="335" y="608" on="1"/>
        <pt x="335" y="738" on="1"/>
        <pt x="381" y="738" on="1"/>
      </contour>
      <contour>
        <pt x="179" y="608" on="1"/>
        <pt x="135" y="608" on="1"/>
        <pt x="134" y="738" on="1"/>
        <pt x="181" y="738" on="1"/>
      </contour>
      <contour>
        <pt x="414" y="39" on="1"/>
        <pt x="410" y="0" on="1"/>
        <pt x="99" y="0" on="1"/>
        <pt x="99" y="523" on="1"/>
        <pt x="411" y="523" on="1"/>
        <pt x="411" y="484" on="1"/>
        <pt x="144" y="484" on="1"/>
        <pt x="144" y="282" on="1"/>
        <pt x="377" y="282" on="1"/>
        <pt x="377" y="248" on="1"/>
        <pt x="144" y="248" on="1"/>
        <pt x="144" y="39" on="1"/>
      </contour>
    </TTGlyph>
    <TTGlyph name="Edotaccent" xMin="108" yMin="0" xMax="468" yMax="835">
      <contour>
        <pt x="312" y="705" on="1"/>
        <pt x="267" y="705" on="1"/>
        <pt x="270" y="835" on="1"/>
        <pt x="316" y="835" on="1"/>
      </contour>
      <contour>
        <pt x="468" y="40" on="1"/>
        <pt x="463" y="0" on="1"/>
        <pt x="108" y="0" on="1"/>
        <pt x="108" y="620" on="1"/>
        <pt x="465" y="620" on="1"/>
        <pt x="465" y="580" on="1"/>
        <pt x="153" y="580" on="1"/>
        <pt x="153" y="333" on="1"/>
        <pt x="425" y="333" on="1"/>
        <pt x="425" y="297" on="1"/>
        <pt x="153" y="297" on="1"/>
        <pt x="153" y="40" on="1"/>
      </contour>
    </TTGlyph>
    <TTGlyph name="Edotaccent.sc" xMin="99" yMin="0" xMax="414" yMax="738">
      <contour>
        <pt x="278" y="608" on="1"/>
        <pt x="233" y="608" on="1"/>
        <pt x="236" y="738" on="1"/>
        <pt x="282" y="738" on="1"/>
      </contour>
      <contour>
        <pt x="414" y="39" on="1"/>
        <pt x="410" y="0" on="1"/>
        <pt x="99" y="0" on="1"/>
        <pt x="99" y="523" on="1"/>
        <pt x="411" y="523" on="1"/>
        <pt x="411" y="484" on="1"/>
        <pt x="144" y="484" on="1"/>
        <pt x="144" y="282" on="1"/>
        <pt x="377" y="282" on="1"/>
        <pt x="377" y="248" on="1"/>
        <pt x="144" y="248" on="1"/>
        <pt x="144" y="39" on="1"/>
      </contour>
    </TTGlyph>
    <TTGlyph name="Egrave" xMin="108" yMin="0" xMax="468" yMax="888">
      <contour>
        <pt x="371" y="708" on="1"/>
        <pt x="356" y="688" on="1"/>
        <pt x="334" y="703" on="0"/>
        <pt x="282" y="744" on="0"/>
        <pt x="231" y="787" on="0"/>
        <pt x="182" y="830" on="0"/>
        <pt x="164" y="849" on="1"/>
        <pt x="204" y="888" on="1"/>
        <pt x="219" y="868" on="0"/>
        <pt x="261" y="819" on="0"/>
        <pt x="306" y="770" on="0"/>
        <pt x="352" y="724" on="0"/>
      </contour>
      <contour>
        <pt x="468" y="40" on="1"/>
        <pt x="463" y="0" on="1"/>
        <pt x="108" y="0" on="1"/>
        <pt x="108" y="620" on="1"/>
        <pt x="465" y="620" on="1"/>
        <pt x="465" y="580" on="1"/>
        <pt x="153" y="580" on="1"/>
        <pt x="153" y="333" on="1"/>
        <pt x="425" y="333" on="1"/>
        <pt x="425" y="297" on="1"/>
        <pt x="153" y="297" on="1"/>
        <pt x="153" y="40" on="1"/>
      </contour>
    </TTGlyph>
    <TTGlyph name="Egrave.sc" xMin="99" yMin="0" xMax="414" yMax="791">
      <contour>
        <pt x="337" y="611" on="1"/>
        <pt x="322" y="591" on="1"/>
        <pt x="300" y="606" on="0"/>
        <pt x="248" y="647" on="0"/>
        <pt x="197" y="690" on="0"/>
        <pt x="148" y="733" on="0"/>
        <pt x="130" y="752" on="1"/>
        <pt x="170" y="791" on="1"/>
        <pt x="185" y="771" on="0"/>
        <pt x="227" y="722" on="0"/>
        <pt x="272" y="673" on="0"/>
        <pt x="318" y="627" on="0"/>
      </contour>
      <contour>
        <pt x="414" y="39" on="1"/>
        <pt x="410" y="0" on="1"/>
        <pt x="99" y="0" on="1"/>
        <pt x="99" y="523" on="1"/>
        <pt x="411" y="523" on="1"/>
        <pt x="411" y="484" on="1"/>
        <pt x="144" y="484" on="1"/>
        <pt x="144" y="282" on="1"/>
        <pt x="377" y="282" on="1"/>
        <pt x="377" y="248" on="1"/>
        <pt x="144" y="248" on="1"/>
        <pt x="144" y="39" on="1"/>
      </contour>
    </TTGlyph>
    <TTGlyph name="Emacron" xMin="108" yMin="0" xMax="468" yMax="793">
      <contour>
        <pt x="439" y="793" on="1"/>
        <pt x="439" y="754" on="1"/>
        <pt x="143" y="754" on="1"/>
        <pt x="143" y="793" on="1"/>
      </contour>
      <contour>
        <pt x="468" y="40" on="1"/>
        <pt x="463" y="0" on="1"/>
        <pt x="108" y="0" on="1"/>
        <pt x="108" y="620" on="1"/>
        <pt x="465" y="620" on="1"/>
        <pt x="465" y="580" on="1"/>
        <pt x="153" y="580" on="1"/>
        <pt x="153" y="333" on="1"/>
        <pt x="425" y="333" on="1"/>
        <pt x="425" y="297" on="1"/>
        <pt x="153" y="297" on="1"/>
        <pt x="153" y="40" on="1"/>
      </contour>
    </TTGlyph>
    <TTGlyph name="Emacron.sc" xMin="99" yMin="0" xMax="414" yMax="696">
      <contour>
        <pt x="404" y="696" on="1"/>
        <pt x="404" y="657" on="1"/>
        <pt x="108" y="657" on="1"/>
        <pt x="108" y="696" on="1"/>
      </contour>
      <contour>
        <pt x="414" y="39" on="1"/>
        <pt x="410" y="0" on="1"/>
        <pt x="99" y="0" on="1"/>
        <pt x="99" y="523" on="1"/>
        <pt x="411" y="523" on="1"/>
        <pt x="411" y="484" on="1"/>
        <pt x="144" y="484" on="1"/>
        <pt x="144" y="282" on="1"/>
        <pt x="377" y="282" on="1"/>
        <pt x="377" y="248" on="1"/>
        <pt x="144" y="248" on="1"/>
        <pt x="144" y="39" on="1"/>
      </contour>
    </TTGlyph>
    <TTGlyph name="Eogonek" xMin="108" yMin="-205" xMax="468" yMax="620">
      <contour>
        <pt x="444" y="-167" on="1"/>
        <pt x="439" y="-205" on="1"/>
        <pt x="364" y="-193" on="0"/>
        <pt x="296" y="-150" on="0"/>
        <pt x="296" y="-116" on="1"/>
        <pt x="296" y="-91" on="0"/>
        <pt x="344" y="-34" on="0"/>
        <pt x="407" y="0" on="1"/>
        <pt x="108" y="0" on="1"/>
        <pt x="108" y="620" on="1"/>
        <pt x="465" y="620" on="1"/>
        <pt x="465" y="580" on="1"/>
        <pt x="153" y="580" on="1"/>
        <pt x="153" y="333" on="1"/>
        <pt x="425" y="333" on="1"/>
        <pt x="425" y="297" on="1"/>
        <pt x="153" y="297" on="1"/>
        <pt x="153" y="40" on="1"/>
        <pt x="468" y="40" on="1"/>
        <pt x="463" y="0" on="1"/>
        <pt x="385" y="-40" on="0"/>
        <pt x="335" y="-91" on="0"/>
        <pt x="335" y="-108" on="1"/>
        <pt x="335" y="-129" on="0"/>
        <pt x="390" y="-157" on="0"/>
      </contour>
    </TTGlyph>
    <TTGlyph name="Eogonek.sc" xMin="99" yMin="-205" xMax="414" yMax="523">
      <contour>
        <pt x="391" y="-167" on="1"/>
        <pt x="386" y="-205" on="1"/>
        <pt x="311" y="-193" on="0"/>
        <pt x="243" y="-150" on="0"/>
        <pt x="243" y="-116" on="1"/>
        <pt x="243" y="-91" on="0"/>
        <pt x="291" y="-34" on="0"/>
        <pt x="354" y="0" on="1"/>
        <pt x="99" y="0" on="1"/>
        <pt x="99" y="523" on="1"/>
        <pt x="411" y="523" on="1"/>
        <pt x="411" y="484" on="1"/>
        <pt x="144" y="484" on="1"/>
        <pt x="144" y="282" on="1"/>
        <pt x="377" y="282" on="1"/>
        <pt x="377" y="248" on="1"/>
        <pt x="144" y="248" on="1"/>
        <pt x="144" y="39" on="1"/>
        <pt x="414" y="39" on="1"/>
        <pt x="410" y="0" on="1"/>
        <pt x="332" y="-40" on="0"/>
        <pt x="282" y="-91" on="0"/>
        <pt x="282" y="-108" on="1"/>
        <pt x="282" y="-129" on="0"/>
        <pt x="337" y="-157" on="0"/>
      </contour>
    </TTGlyph>
    <TTGlyph name="Eth" xMin="29" yMin="-9" xMax="563" yMax="630">
      <contour>
        <pt x="213" y="-9" on="1"/>
        <pt x="188" y="-9" on="0"/>
        <pt x="136" y="-5" on="0"/>
        <pt x="108" y="-1" on="1"/>
        <pt x="108" y="298" on="1"/>
        <pt x="29" y="298" on="1"/>
        <pt x="29" y="333" on="1"/>
        <pt x="108" y="333" on="1"/>
        <pt x="108" y="621" on="1"/>
        <pt x="142" y="625" on="0"/>
        <pt x="206" y="630" on="0"/>
        <pt x="235" y="630" on="1"/>
        <pt x="404" y="630" on="0"/>
        <pt x="563" y="474" on="0"/>
        <pt x="563" y="323" on="1"/>
        <pt x="563" y="168" on="0"/>
        <pt x="379" y="-9" on="0"/>
      </contour>
      <contour>
        <pt x="236" y="31" on="1"/>
        <pt x="373" y="31" on="0"/>
        <pt x="518" y="181" on="0"/>
        <pt x="518" y="313" on="1"/>
        <pt x="518" y="453" on="0"/>
        <pt x="384" y="590" on="0"/>
        <pt x="243" y="590" on="1"/>
        <pt x="222" y="590" on="0"/>
        <pt x="177" y="587" on="0"/>
        <pt x="153" y="584" on="1"/>
        <pt x="153" y="333" on="1"/>
        <pt x="320" y="333" on="1"/>
        <pt x="318" y="298" on="1"/>
        <pt x="153" y="298" on="1"/>
        <pt x="153" y="37" on="1"/>
        <pt x="175" y="34" on="0"/>
        <pt x="217" y="31" on="0"/>
      </contour>
    </TTGlyph>
    <TTGlyph name="Eth.sc" xMin="30" yMin="-8" xMax="497" yMax="532">
      <contour>
        <pt x="190" y="-8" on="1"/>
        <pt x="169" y="-8" on="0"/>
        <pt x="123" y="-5" on="0"/>
        <pt x="99" y="-1" on="1"/>
        <pt x="99" y="251" on="1"/>
        <pt x="30" y="251" on="1"/>
        <pt x="30" y="284" on="1"/>
        <pt x="99" y="284" on="1"/>
        <pt x="99" y="524" on="1"/>
        <pt x="129" y="528" on="0"/>
        <pt x="184" y="532" on="0"/>
        <pt x="209" y="532" on="1"/>
        <pt x="358" y="532" on="0"/>
        <pt x="497" y="400" on="0"/>
        <pt x="497" y="272" on="1"/>
        <pt x="497" y="141" on="0"/>
        <pt x="337" y="-8" on="0"/>
      </contour>
      <contour>
        <pt x="217" y="30" on="1"/>
        <pt x="332" y="30" on="0"/>
        <pt x="452" y="154" on="0"/>
        <pt x="452" y="263" on="1"/>
        <pt x="452" y="379" on="0"/>
        <pt x="339" y="493" on="0"/>
        <pt x="218" y="493" on="1"/>
        <pt x="201" y="493" on="0"/>
        <pt x="163" y="491" on="0"/>
        <pt x="144" y="489" on="1"/>
        <pt x="144" y="284" on="1"/>
        <pt x="290" y="284" on="1"/>
        <pt x="288" y="251" on="1"/>
        <pt x="144" y="251" on="1"/>
        <pt x="144" y="36" on="1"/>
        <pt x="163" y="33" on="0"/>
        <pt x="200" y="30" on="0"/>
      </contour>
    </TTGlyph>
    <TTGlyph name="Euro" xMin="64" yMin="-20" xMax="488" yMax="640">
      <contour>
        <pt x="488" y="18" on="1"/>
        <pt x="481" y="-20" on="1"/>
        <pt x="327" y="0" on="0"/>
        <pt x="166" y="118" on="0"/>
        <pt x="142" y="209" on="1"/>
        <pt x="64" y="209" on="1"/>
        <pt x="64" y="246" on="1"/>
        <pt x="135" y="246" on="1"/>
        <pt x="133" y="260" on="0"/>
        <pt x="131" y="290" on="0"/>
        <pt x="131" y="306" on="1"/>
        <pt x="131" y="322" on="0"/>
        <pt x="133" y="353" on="0"/>
        <pt x="135" y="367" on="1"/>
        <pt x="64" y="367" on="1"/>
        <pt x="64" y="405" on="1"/>
        <pt x="142" y="405" on="1"/>
        <pt x="163" y="492" on="0"/>
        <pt x="315" y="610" on="0"/>
        <pt x="473" y="640" on="1"/>
        <pt x="482" y="597" on="1"/>
        <pt x="335" y="573" on="0"/>
        <pt x="201" y="480" on="0"/>
        <pt x="182" y="403" on="1"/>
        <pt x="427" y="403" on="1"/>
        <pt x="424" y="367" on="1"/>
        <pt x="176" y="367" on="1"/>
        <pt x="175" y="354" on="0"/>
        <pt x="173" y="325" on="0"/>
        <pt x="173" y="310" on="1"/>
        <pt x="173" y="294" on="0"/>
        <pt x="175" y="262" on="0"/>
        <pt x="177" y="247" on="1"/>
        <pt x="425" y="247" on="1"/>
        <pt x="423" y="211" on="1"/>
        <pt x="185" y="211" on="1"/>
        <pt x="207" y="136" on="0"/>
        <pt x="348" y="40" on="0"/>
      </contour>
    </TTGlyph>
    <TTGlyph name="F" xMin="108" yMin="0" xMax="465" yMax="620">
      <contour>
        <pt x="425" y="287" on="1"/>
        <pt x="153" y="287" on="1"/>
        <pt x="153" y="0" on="1"/>
        <pt x="108" y="0" on="1"/>
        <pt x="108" y="620" on="1"/>
        <pt x="465" y="620" on="1"/>
        <pt x="465" y="580" on="1"/>
        <pt x="153" y="580" on="1"/>
        <pt x="153" y="323" on="1"/>
        <pt x="425" y="323" on="1"/>
      </contour>
    </TTGlyph>
    <TTGlyph name="F.sc" xMin="99" yMin="0" xMax="411" yMax="523">
      <contour>
        <pt x="377" y="240" on="1"/>
        <pt x="144" y="240" on="1"/>
        <pt x="144" y="0" on="1"/>
        <pt x="99" y="0" on="1"/>
        <pt x="99" y="523" on="1"/>
        <pt x="411" y="523" on="1"/>
        <pt x="411" y="484" on="1"/>
        <pt x="144" y="484" on="1"/>
        <pt x="144" y="274" on="1"/>
        <pt x="377" y="274" on="1"/>
      </contour>
    </TTGlyph>
    <TTGlyph name="G" xMin="63" yMin="-11" xMax="514" yMax="628">
      <contour>
        <pt x="374" y="-11" on="1"/>
        <pt x="290" y="-11" on="0"/>
        <pt x="171" y="35" on="0"/>
        <pt x="97" y="116" on="0"/>
        <pt x="63" y="229" on="0"/>
        <pt x="63" y="294" on="1"/>
        <pt x="63" y="359" on="0"/>
        <pt x="104" y="477" on="0"/>
        <pt x="203" y="567" on="0"/>
        <pt x="368" y="624" on="0"/>
        <pt x="492" y="628" on="1"/>
        <pt x="495" y="585" on="1"/>
        <pt x="379" y="581" on="0"/>
        <pt x="228" y="535" on="0"/>
        <pt x="141" y="462" on="0"/>
        <pt x="108" y="362" on="0"/>
        <pt x="108" y="304" on="1"/>
        <pt x="108" y="243" on="0"/>
        <pt x="136" y="141" on="0"/>
        <pt x="202" y="67" on="0"/>
        <pt x="311" y="26" on="0"/>
        <pt x="390" y="26" on="1"/>
        <pt x="408" y="26" on="0"/>
        <pt x="447" y="29" on="0"/>
        <pt x="469" y="31" on="1"/>
        <pt x="469" y="87" on="0"/>
        <pt x="467" y="226" on="0"/>
        <pt x="467" y="310" on="1"/>
        <pt x="512" y="310" on="1"/>
        <pt x="512" y="170" on="1"/>
        <pt x="512" y="122" on="0"/>
        <pt x="513" y="40" on="0"/>
        <pt x="514" y="3" on="1"/>
        <pt x="475" y="-4" on="0"/>
        <pt x="405" y="-11" on="0"/>
      </contour>
    </TTGlyph>
    <TTGlyph name="G.sc" xMin="58" yMin="-10" xMax="453" yMax="530">
      <contour>
        <pt x="333" y="-10" on="1"/>
        <pt x="259" y="-10" on="0"/>
        <pt x="154" y="30" on="0"/>
        <pt x="88" y="98" on="0"/>
        <pt x="58" y="192" on="0"/>
        <pt x="58" y="246" on="1"/>
        <pt x="58" y="302" on="0"/>
        <pt x="94" y="402" on="0"/>
        <pt x="180" y="479" on="0"/>
        <pt x="325" y="526" on="0"/>
        <pt x="433" y="530" on="1"/>
        <pt x="436" y="489" on="1"/>
        <pt x="336" y="486" on="0"/>
        <pt x="206" y="449" on="0"/>
        <pt x="132" y="388" on="0"/>
        <pt x="103" y="305" on="0"/>
        <pt x="103" y="256" on="1"/>
        <pt x="103" y="206" on="0"/>
        <pt x="128" y="121" on="0"/>
        <pt x="184" y="61" on="0"/>
        <pt x="277" y="27" on="0"/>
        <pt x="345" y="27" on="1"/>
        <pt x="360" y="27" on="0"/>
        <pt x="393" y="29" on="0"/>
        <pt x="410" y="30" on="1"/>
        <pt x="410" y="76" on="0"/>
        <pt x="408" y="193" on="0"/>
        <pt x="408" y="261" on="1"/>
        <pt x="452" y="261" on="1"/>
        <pt x="452" y="117" on="1"/>
        <pt x="452" y="85" on="0"/>
        <pt x="452" y="28" on="0"/>
        <pt x="453" y="2" on="1"/>
        <pt x="420" y="-4" on="0"/>
        <pt x="360" y="-10" on="0"/>
      </contour>
    </TTGlyph>
    <TTGlyph name="Gbreve" xMin="63" yMin="-11" xMax="514" yMax="869">
      <contour>
        <pt x="314" y="707" on="1"/>
        <pt x="270" y="707" on="0"/>
        <pt x="191" y="777" on="0"/>
        <pt x="152" y="849" on="1"/>
        <pt x="185" y="869" on="1"/>
        <pt x="222" y="802" on="0"/>
        <pt x="282" y="744" on="0"/>
        <pt x="318" y="744" on="1"/>
        <pt x="357" y="744" on="0"/>
        <pt x="420" y="807" on="0"/>
        <pt x="457" y="865" on="1"/>
        <pt x="486" y="850" on="1"/>
        <pt x="447" y="783" on="0"/>
        <pt x="360" y="707" on="0"/>
      </contour>
      <contour>
        <pt x="374" y="-11" on="1"/>
        <pt x="290" y="-11" on="0"/>
        <pt x="171" y="35" on="0"/>
        <pt x="97" y="116" on="0"/>
        <pt x="63" y="229" on="0"/>
        <pt x="63" y="294" on="1"/>
        <pt x="63" y="359" on="0"/>
        <pt x="104" y="477" on="0"/>
        <pt x="203" y="567" on="0"/>
        <pt x="368" y="624" on="0"/>
        <pt x="492" y="628" on="1"/>
        <pt x="495" y="585" on="1"/>
        <pt x="379" y="581" on="0"/>
        <pt x="228" y="535" on="0"/>
        <pt x="141" y="462" on="0"/>
        <pt x="108" y="362" on="0"/>
        <pt x="108" y="304" on="1"/>
        <pt x="108" y="243" on="0"/>
        <pt x="136" y="141" on="0"/>
        <pt x="202" y="67" on="0"/>
        <pt x="311" y="26" on="0"/>
        <pt x="390" y="26" on="1"/>
        <pt x="408" y="26" on="0"/>
        <pt x="447" y="29" on="0"/>
        <pt x="469" y="31" on="1"/>
        <pt x="469" y="87" on="0"/>
        <pt x="467" y="226" on="0"/>
        <pt x="467" y="310" on="1"/>
        <pt x="512" y="310" on="1"/>
        <pt x="512" y="170" on="1"/>
        <pt x="512" y="122" on="0"/>
        <pt x="513" y="40" on="0"/>
        <pt x="514" y="3" on="1"/>
        <pt x="475" y="-4" on="0"/>
        <pt x="405" y="-11" on="0"/>
      </contour>
    </TTGlyph>
    <TTGlyph name="Gbreve.sc" xMin="58" yMin="-10" xMax="458" yMax="772">
      <contour>
        <pt x="286" y="610" on="1"/>
        <pt x="242" y="610" on="0"/>
        <pt x="163" y="680" on="0"/>
        <pt x="124" y="752" on="1"/>
        <pt x="157" y="772" on="1"/>
        <pt x="194" y="705" on="0"/>
        <pt x="254" y="647" on="0"/>
        <pt x="290" y="647" on="1"/>
        <pt x="329" y="647" on="0"/>
        <pt x="392" y="710" on="0"/>
        <pt x="429" y="768" on="1"/>
        <pt x="458" y="753" on="1"/>
        <pt x="419" y="686" on="0"/>
        <pt x="332" y="610" on="0"/>
      </contour>
      <contour>
        <pt x="333" y="-10" on="1"/>
        <pt x="259" y="-10" on="0"/>
        <pt x="154" y="30" on="0"/>
        <pt x="88" y="98" on="0"/>
        <pt x="58" y="192" on="0"/>
        <pt x="58" y="246" on="1"/>
        <pt x="58" y="302" on="0"/>
        <pt x="94" y="402" on="0"/>
        <pt x="180" y="479" on="0"/>
        <pt x="325" y="526" on="0"/>
        <pt x="433" y="530" on="1"/>
        <pt x="436" y="489" on="1"/>
        <pt x="336" y="486" on="0"/>
        <pt x="206" y="449" on="0"/>
        <pt x="132" y="388" on="0"/>
        <pt x="103" y="305" on="0"/>
        <pt x="103" y="256" on="1"/>
        <pt x="103" y="206" on="0"/>
        <pt x="128" y="121" on="0"/>
        <pt x="184" y="61" on="0"/>
        <pt x="277" y="27" on="0"/>
        <pt x="345" y="27" on="1"/>
        <pt x="360" y="27" on="0"/>
        <pt x="393" y="29" on="0"/>
        <pt x="410" y="30" on="1"/>
        <pt x="410" y="76" on="0"/>
        <pt x="408" y="193" on="0"/>
        <pt x="408" y="261" on="1"/>
        <pt x="452" y="261" on="1"/>
        <pt x="452" y="117" on="1"/>
        <pt x="452" y="85" on="0"/>
        <pt x="452" y="28" on="0"/>
        <pt x="453" y="2" on="1"/>
        <pt x="420" y="-4" on="0"/>
        <pt x="360" y="-10" on="0"/>
      </contour>
    </TTGlyph>
    <TTGlyph name="Gcommaaccent" xMin="63" yMin="-279" xMax="514" yMax="628">
      <contour>
        <pt x="374" y="-11" on="1"/>
        <pt x="290" y="-11" on="0"/>
        <pt x="171" y="35" on="0"/>
        <pt x="97" y="116" on="0"/>
        <pt x="63" y="229" on="0"/>
        <pt x="63" y="294" on="1"/>
        <pt x="63" y="359" on="0"/>
        <pt x="104" y="477" on="0"/>
        <pt x="203" y="567" on="0"/>
        <pt x="368" y="624" on="0"/>
        <pt x="492" y="628" on="1"/>
        <pt x="495" y="585" on="1"/>
        <pt x="379" y="581" on="0"/>
        <pt x="228" y="535" on="0"/>
        <pt x="141" y="462" on="0"/>
        <pt x="108" y="362" on="0"/>
        <pt x="108" y="304" on="1"/>
        <pt x="108" y="243" on="0"/>
        <pt x="136" y="141" on="0"/>
        <pt x="202" y="67" on="0"/>
        <pt x="311" y="26" on="0"/>
        <pt x="390" y="26" on="1"/>
        <pt x="408" y="26" on="0"/>
        <pt x="447" y="29" on="0"/>
        <pt x="469" y="31" on="1"/>
        <pt x="469" y="87" on="0"/>
        <pt x="467" y="226" on="0"/>
        <pt x="467" y="310" on="1"/>
        <pt x="512" y="310" on="1"/>
        <pt x="512" y="170" on="1"/>
        <pt x="512" y="122" on="0"/>
        <pt x="513" y="40" on="0"/>
        <pt x="514" y="3" on="1"/>
        <pt x="475" y="-4" on="0"/>
        <pt x="405" y="-11" on="0"/>
      </contour>
      <contour>
        <pt x="276" y="-272" on="1"/>
        <pt x="290" y="-244" on="0"/>
        <pt x="302" y="-194" on="0"/>
        <pt x="302" y="-172" on="1"/>
        <pt x="302" y="-149" on="0"/>
        <pt x="292" y="-105" on="0"/>
        <pt x="284" y="-84" on="1"/>
        <pt x="286" y="-84" on="0"/>
        <pt x="303" y="-83" on="0"/>
        <pt x="323" y="-82" on="0"/>
        <pt x="340" y="-81" on="0"/>
        <pt x="343" y="-81" on="1"/>
        <pt x="345" y="-92" on="0"/>
        <pt x="348" y="-116" on="0"/>
        <pt x="348" y="-128" on="1"/>
        <pt x="348" y="-163" on="0"/>
        <pt x="324" y="-240" on="0"/>
        <pt x="298" y="-279" on="1"/>
      </contour>
    </TTGlyph>
    <TTGlyph name="Gcommaaccent.sc" xMin="58" yMin="-277" xMax="453" yMax="530">
      <contour>
        <pt x="333" y="-10" on="1"/>
        <pt x="259" y="-10" on="0"/>
        <pt x="154" y="30" on="0"/>
        <pt x="88" y="98" on="0"/>
        <pt x="58" y="192" on="0"/>
        <pt x="58" y="246" on="1"/>
        <pt x="58" y="302" on="0"/>
        <pt x="94" y="402" on="0"/>
        <pt x="180" y="479" on="0"/>
        <pt x="325" y="526" on="0"/>
        <pt x="433" y="530" on="1"/>
        <pt x="436" y="489" on="1"/>
        <pt x="336" y="486" on="0"/>
        <pt x="206" y="449" on="0"/>
        <pt x="132" y="388" on="0"/>
        <pt x="103" y="305" on="0"/>
        <pt x="103" y="256" on="1"/>
        <pt x="103" y="206" on="0"/>
        <pt x="128" y="121" on="0"/>
        <pt x="184" y="61" on="0"/>
        <pt x="277" y="27" on="0"/>
        <pt x="345" y="27" on="1"/>
        <pt x="360" y="27" on="0"/>
        <pt x="393" y="29" on="0"/>
        <pt x="410" y="30" on="1"/>
        <pt x="410" y="76" on="0"/>
        <pt x="408" y="193" on="0"/>
        <pt x="408" y="261" on="1"/>
        <pt x="452" y="261" on="1"/>
        <pt x="452" y="117" on="1"/>
        <pt x="452" y="85" on="0"/>
        <pt x="452" y="28" on="0"/>
        <pt x="453" y="2" on="1"/>
        <pt x="420" y="-4" on="0"/>
        <pt x="360" y="-10" on="0"/>
      </contour>
      <contour>
        <pt x="248" y="-270" on="1"/>
        <pt x="262" y="-242" on="0"/>
        <pt x="274" y="-192" on="0"/>
        <pt x="274" y="-170" on="1"/>
        <pt x="274" y="-147" on="0"/>
        <pt x="264" y="-103" on="0"/>
        <pt x="256" y="-82" on="1"/>
        <pt x="258" y="-82" on="0"/>
        <pt x="275" y="-81" on="0"/>
        <pt x="295" y="-80" on="0"/>
        <pt x="312" y="-79" on="0"/>
        <pt x="315" y="-79" on="1"/>
        <pt x="317" y="-90" on="0"/>
        <pt x="320" y="-114" on="0"/>
        <pt x="320" y="-126" on="1"/>
        <pt x="320" y="-161" on="0"/>
        <pt x="296" y="-238" on="0"/>
        <pt x="270" y="-277" on="1"/>
      </contour>
    </TTGlyph>
    <TTGlyph name="Gdotaccent" xMin="63" yMin="-11" xMax="514" yMax="837">
      <contour>
        <pt x="339" y="707" on="1"/>
        <pt x="294" y="707" on="1"/>
        <pt x="297" y="837" on="1"/>
        <pt x="343" y="837" on="1"/>
      </contour>
      <contour>
        <pt x="374" y="-11" on="1"/>
        <pt x="290" y="-11" on="0"/>
        <pt x="171" y="35" on="0"/>
        <pt x="97" y="116" on="0"/>
        <pt x="63" y="229" on="0"/>
        <pt x="63" y="294" on="1"/>
        <pt x="63" y="359" on="0"/>
        <pt x="104" y="477" on="0"/>
        <pt x="203" y="567" on="0"/>
        <pt x="368" y="624" on="0"/>
        <pt x="492" y="628" on="1"/>
        <pt x="495" y="585" on="1"/>
        <pt x="379" y="581" on="0"/>
        <pt x="228" y="535" on="0"/>
        <pt x="141" y="462" on="0"/>
        <pt x="108" y="362" on="0"/>
        <pt x="108" y="304" on="1"/>
        <pt x="108" y="243" on="0"/>
        <pt x="136" y="141" on="0"/>
        <pt x="202" y="67" on="0"/>
        <pt x="311" y="26" on="0"/>
        <pt x="390" y="26" on="1"/>
        <pt x="408" y="26" on="0"/>
        <pt x="447" y="29" on="0"/>
        <pt x="469" y="31" on="1"/>
        <pt x="469" y="87" on="0"/>
        <pt x="467" y="226" on="0"/>
        <pt x="467" y="310" on="1"/>
        <pt x="512" y="310" on="1"/>
        <pt x="512" y="170" on="1"/>
        <pt x="512" y="122" on="0"/>
        <pt x="513" y="40" on="0"/>
        <pt x="514" y="3" on="1"/>
        <pt x="475" y="-4" on="0"/>
        <pt x="405" y="-11" on="0"/>
      </contour>
    </TTGlyph>
    <TTGlyph name="Gdotaccent.sc" xMin="58" yMin="-10" xMax="453" yMax="740">
      <contour>
        <pt x="311" y="610" on="1"/>
        <pt x="266" y="610" on="1"/>
        <pt x="269" y="740" on="1"/>
        <pt x="315" y="740" on="1"/>
      </contour>
      <contour>
        <pt x="333" y="-10" on="1"/>
        <pt x="259" y="-10" on="0"/>
        <pt x="154" y="30" on="0"/>
        <pt x="88" y="98" on="0"/>
        <pt x="58" y="192" on="0"/>
        <pt x="58" y="246" on="1"/>
        <pt x="58" y="302" on="0"/>
        <pt x="94" y="402" on="0"/>
        <pt x="180" y="479" on="0"/>
        <pt x="325" y="526" on="0"/>
        <pt x="433" y="530" on="1"/>
        <pt x="436" y="489" on="1"/>
        <pt x="336" y="486" on="0"/>
        <pt x="206" y="449" on="0"/>
        <pt x="132" y="388" on="0"/>
        <pt x="103" y="305" on="0"/>
        <pt x="103" y="256" on="1"/>
        <pt x="103" y="206" on="0"/>
        <pt x="128" y="121" on="0"/>
        <pt x="184" y="61" on="0"/>
        <pt x="277" y="27" on="0"/>
        <pt x="345" y="27" on="1"/>
        <pt x="360" y="27" on="0"/>
        <pt x="393" y="29" on="0"/>
        <pt x="410" y="30" on="1"/>
        <pt x="410" y="76" on="0"/>
        <pt x="408" y="193" on="0"/>
        <pt x="408" y="261" on="1"/>
        <pt x="452" y="261" on="1"/>
        <pt x="452" y="117" on="1"/>
        <pt x="452" y="85" on="0"/>
        <pt x="452" y="28" on="0"/>
        <pt x="453" y="2" on="1"/>
        <pt x="420" y="-4" on="0"/>
        <pt x="360" y="-10" on="0"/>
      </contour>
    </TTGlyph>
    <TTGlyph name="H" xMin="108" yMin="0" xMax="548" yMax="620">
      <contour>
        <pt x="503" y="0" on="1"/>
        <pt x="503" y="297" on="1"/>
        <pt x="153" y="297" on="1"/>
        <pt x="153" y="0" on="1"/>
        <pt x="108" y="0" on="1"/>
        <pt x="108" y="620" on="1"/>
        <pt x="153" y="620" on="1"/>
        <pt x="153" y="333" on="1"/>
        <pt x="503" y="333" on="1"/>
        <pt x="503" y="620" on="1"/>
        <pt x="548" y="620" on="1"/>
        <pt x="548" y="0" on="1"/>
      </contour>
    </TTGlyph>
    <TTGlyph name="H.sc" xMin="99" yMin="0" xMax="486" yMax="523">
      <contour>
        <pt x="441" y="0" on="1"/>
        <pt x="441" y="248" on="1"/>
        <pt x="144" y="248" on="1"/>
        <pt x="144" y="0" on="1"/>
        <pt x="99" y="0" on="1"/>
        <pt x="99" y="523" on="1"/>
        <pt x="144" y="523" on="1"/>
        <pt x="144" y="283" on="1"/>
        <pt x="441" y="283" on="1"/>
        <pt x="441" y="523" on="1"/>
        <pt x="486" y="523" on="1"/>
        <pt x="486" y="0" on="1"/>
      </contour>
    </TTGlyph>
    <TTGlyph name="Hbar" xMin="29" yMin="0" xMax="627" yMax="620">
      <contour>
        <pt x="503" y="323" on="1"/>
        <pt x="503" y="454" on="1"/>
        <pt x="153" y="454" on="1"/>
        <pt x="153" y="323" on="1"/>
      </contour>
      <contour>
        <pt x="503" y="0" on="1"/>
        <pt x="503" y="287" on="1"/>
        <pt x="153" y="287" on="1"/>
        <pt x="153" y="0" on="1"/>
        <pt x="108" y="0" on="1"/>
        <pt x="108" y="453" on="1"/>
        <pt x="29" y="453" on="1"/>
        <pt x="29" y="488" on="1"/>
        <pt x="108" y="488" on="1"/>
        <pt x="108" y="620" on="1"/>
        <pt x="153" y="620" on="1"/>
        <pt x="153" y="487" on="1"/>
        <pt x="503" y="487" on="1"/>
        <pt x="503" y="620" on="1"/>
        <pt x="548" y="620" on="1"/>
        <pt x="548" y="488" on="1"/>
        <pt x="627" y="488" on="1"/>
        <pt x="627" y="453" on="1"/>
        <pt x="548" y="453" on="1"/>
        <pt x="548" y="0" on="1"/>
      </contour>
    </TTGlyph>
    <TTGlyph name="Hbar.sc" xMin="30" yMin="0" xMax="555" yMax="523">
      <contour>
        <pt x="441" y="279" on="1"/>
        <pt x="441" y="380" on="1"/>
        <pt x="144" y="380" on="1"/>
        <pt x="144" y="279" on="1"/>
      </contour>
      <contour>
        <pt x="441" y="0" on="1"/>
        <pt x="441" y="244" on="1"/>
        <pt x="144" y="244" on="1"/>
        <pt x="144" y="0" on="1"/>
        <pt x="99" y="0" on="1"/>
        <pt x="99" y="380" on="1"/>
        <pt x="30" y="380" on="1"/>
        <pt x="30" y="414" on="1"/>
        <pt x="99" y="414" on="1"/>
        <pt x="99" y="523" on="1"/>
        <pt x="144" y="523" on="1"/>
        <pt x="144" y="413" on="1"/>
        <pt x="441" y="413" on="1"/>
        <pt x="441" y="523" on="1"/>
        <pt x="486" y="523" on="1"/>
        <pt x="486" y="414" on="1"/>
        <pt x="555" y="414" on="1"/>
        <pt x="555" y="380" on="1"/>
        <pt x="486" y="380" on="1"/>
        <pt x="486" y="0" on="1"/>
      </contour>
    </TTGlyph>
    <TTGlyph name="I" xMin="70" yMin="0" xMax="409" yMax="620">
      <contour>
        <pt x="260" y="584" on="1"/>
        <pt x="260" y="36" on="1"/>
        <pt x="409" y="36" on="1"/>
        <pt x="406" y="0" on="1"/>
        <pt x="70" y="0" on="1"/>
        <pt x="70" y="36" on="1"/>
        <pt x="215" y="36" on="1"/>
        <pt x="215" y="584" on="1"/>
        <pt x="70" y="584" on="1"/>
        <pt x="70" y="620" on="1"/>
        <pt x="406" y="620" on="1"/>
        <pt x="406" y="584" on="1"/>
      </contour>
    </TTGlyph>
    <TTGlyph name="I.sc" xMin="63" yMin="0" xMax="362" yMax="523">
      <contour>
        <pt x="234" y="488" on="1"/>
        <pt x="234" y="35" on="1"/>
        <pt x="362" y="35" on="1"/>
        <pt x="359" y="0" on="1"/>
        <pt x="63" y="0" on="1"/>
        <pt x="63" y="35" on="1"/>
        <pt x="189" y="35" on="1"/>
        <pt x="189" y="488" on="1"/>
        <pt x="63" y="488" on="1"/>
        <pt x="63" y="523" on="1"/>
        <pt x="359" y="523" on="1"/>
        <pt x="359" y="488" on="1"/>
      </contour>
    </TTGlyph>
    <TTGlyph name="Iacute" xMin="70" yMin="0" xMax="409" yMax="896">
      <contour>
        <pt x="157" y="717" on="1"/>
        <pt x="177" y="733" on="0"/>
        <pt x="223" y="778" on="0"/>
        <pt x="267" y="826" on="0"/>
        <pt x="308" y="875" on="0"/>
        <pt x="323" y="896" on="1"/>
        <pt x="364" y="859" on="1"/>
        <pt x="346" y="840" on="0"/>
        <pt x="298" y="795" on="0"/>
        <pt x="247" y="752" on="0"/>
        <pt x="194" y="711" on="0"/>
        <pt x="172" y="696" on="1"/>
      </contour>
      <contour>
        <pt x="260" y="584" on="1"/>
        <pt x="260" y="36" on="1"/>
        <pt x="409" y="36" on="1"/>
        <pt x="406" y="0" on="1"/>
        <pt x="70" y="0" on="1"/>
        <pt x="70" y="36" on="1"/>
        <pt x="215" y="36" on="1"/>
        <pt x="215" y="584" on="1"/>
        <pt x="70" y="584" on="1"/>
        <pt x="70" y="620" on="1"/>
        <pt x="406" y="620" on="1"/>
        <pt x="406" y="584" on="1"/>
      </contour>
    </TTGlyph>
    <TTGlyph name="Iacute.sc" xMin="63" yMin="0" xMax="362" yMax="799">
      <contour>
        <pt x="130" y="620" on="1"/>
        <pt x="150" y="636" on="0"/>
        <pt x="196" y="681" on="0"/>
        <pt x="240" y="729" on="0"/>
        <pt x="281" y="778" on="0"/>
        <pt x="296" y="799" on="1"/>
        <pt x="337" y="762" on="1"/>
        <pt x="319" y="743" on="0"/>
        <pt x="271" y="698" on="0"/>
        <pt x="220" y="655" on="0"/>
        <pt x="167" y="614" on="0"/>
        <pt x="145" y="599" on="1"/>
      </contour>
      <contour>
        <pt x="234" y="488" on="1"/>
        <pt x="234" y="35" on="1"/>
        <pt x="362" y="35" on="1"/>
        <pt x="359" y="0" on="1"/>
        <pt x="63" y="0" on="1"/>
        <pt x="63" y="35" on="1"/>
        <pt x="189" y="35" on="1"/>
        <pt x="189" y="488" on="1"/>
        <pt x="63" y="488" on="1"/>
        <pt x="63" y="523" on="1"/>
        <pt x="359" y="523" on="1"/>
        <pt x="359" y="488" on="1"/>
      </contour>
    </TTGlyph>
    <TTGlyph name="Ibreve" xMin="70" yMin="0" xMax="409" yMax="867">
      <contour>
        <pt x="236" y="705" on="1"/>
        <pt x="192" y="705" on="0"/>
        <pt x="113" y="775" on="0"/>
        <pt x="74" y="847" on="1"/>
        <pt x="107" y="867" on="1"/>
        <pt x="144" y="800" on="0"/>
        <pt x="204" y="742" on="0"/>
        <pt x="240" y="742" on="1"/>
        <pt x="279" y="742" on="0"/>
        <pt x="342" y="805" on="0"/>
        <pt x="379" y="863" on="1"/>
        <pt x="408" y="848" on="1"/>
        <pt x="369" y="781" on="0"/>
        <pt x="282" y="705" on="0"/>
      </contour>
      <contour>
        <pt x="260" y="584" on="1"/>
        <pt x="260" y="36" on="1"/>
        <pt x="409" y="36" on="1"/>
        <pt x="406" y="0" on="1"/>
        <pt x="70" y="0" on="1"/>
        <pt x="70" y="36" on="1"/>
        <pt x="215" y="36" on="1"/>
        <pt x="215" y="584" on="1"/>
        <pt x="70" y="584" on="1"/>
        <pt x="70" y="620" on="1"/>
        <pt x="406" y="620" on="1"/>
        <pt x="406" y="584" on="1"/>
      </contour>
    </TTGlyph>
    <TTGlyph name="Ibreve.sc" xMin="47" yMin="0" xMax="381" yMax="770">
      <contour>
        <pt x="209" y="608" on="1"/>
        <pt x="165" y="608" on="0"/>
        <pt x="86" y="678" on="0"/>
        <pt x="47" y="750" on="1"/>
        <pt x="80" y="770" on="1"/>
        <pt x="117" y="703" on="0"/>
        <pt x="177" y="645" on="0"/>
        <pt x="213" y="645" on="1"/>
        <pt x="252" y="645" on="0"/>
        <pt x="315" y="708" on="0"/>
        <pt x="352" y="766" on="1"/>
        <pt x="381" y="751" on="1"/>
        <pt x="342" y="684" on="0"/>
        <pt x="255" y="608" on="0"/>
      </contour>
      <contour>
        <pt x="234" y="488" on="1"/>
        <pt x="234" y="35" on="1"/>
        <pt x="362" y="35" on="1"/>
        <pt x="359" y="0" on="1"/>
        <pt x="63" y="0" on="1"/>
        <pt x="63" y="35" on="1"/>
        <pt x="189" y="35" on="1"/>
        <pt x="189" y="488" on="1"/>
        <pt x="63" y="488" on="1"/>
        <pt x="63" y="523" on="1"/>
        <pt x="359" y="523" on="1"/>
        <pt x="359" y="488" on="1"/>
      </contour>
    </TTGlyph>
    <TTGlyph name="Icircumflex" xMin="70" yMin="0" xMax="409" yMax="876">
      <contour>
        <pt x="369" y="700" on="1"/>
        <pt x="241" y="826" on="1"/>
        <pt x="110" y="701" on="1"/>
        <pt x="85" y="724" on="1"/>
        <pt x="243" y="876" on="1"/>
        <pt x="244" y="876" on="1"/>
        <pt x="398" y="728" on="1"/>
      </contour>
      <contour>
        <pt x="260" y="584" on="1"/>
        <pt x="260" y="36" on="1"/>
        <pt x="409" y="36" on="1"/>
        <pt x="406" y="0" on="1"/>
        <pt x="70" y="0" on="1"/>
        <pt x="70" y="36" on="1"/>
        <pt x="215" y="36" on="1"/>
        <pt x="215" y="584" on="1"/>
        <pt x="70" y="584" on="1"/>
        <pt x="70" y="620" on="1"/>
        <pt x="406" y="620" on="1"/>
        <pt x="406" y="584" on="1"/>
      </contour>
    </TTGlyph>
    <TTGlyph name="Icircumflex.sc" xMin="58" yMin="0" xMax="371" yMax="779">
      <contour>
        <pt x="342" y="603" on="1"/>
        <pt x="214" y="729" on="1"/>
        <pt x="83" y="604" on="1"/>
        <pt x="58" y="627" on="1"/>
        <pt x="216" y="779" on="1"/>
        <pt x="217" y="779" on="1"/>
        <pt x="371" y="631" on="1"/>
      </contour>
      <contour>
        <pt x="234" y="488" on="1"/>
        <pt x="234" y="35" on="1"/>
        <pt x="362" y="35" on="1"/>
        <pt x="359" y="0" on="1"/>
        <pt x="63" y="0" on="1"/>
        <pt x="63" y="35" on="1"/>
        <pt x="189" y="35" on="1"/>
        <pt x="189" y="488" on="1"/>
        <pt x="63" y="488" on="1"/>
        <pt x="63" y="523" on="1"/>
        <pt x="359" y="523" on="1"/>
        <pt x="359" y="488" on="1"/>
      </contour>
    </TTGlyph>
    <TTGlyph name="Idieresis" xMin="70" yMin="0" xMax="409" yMax="835">
      <contour>
        <pt x="364" y="705" on="1"/>
        <pt x="319" y="705" on="1"/>
        <pt x="319" y="835" on="1"/>
        <pt x="365" y="835" on="1"/>
      </contour>
      <contour>
        <pt x="163" y="705" on="1"/>
        <pt x="119" y="705" on="1"/>
        <pt x="118" y="835" on="1"/>
        <pt x="165" y="835" on="1"/>
      </contour>
      <contour>
        <pt x="260" y="584" on="1"/>
        <pt x="260" y="36" on="1"/>
        <pt x="409" y="36" on="1"/>
        <pt x="406" y="0" on="1"/>
        <pt x="70" y="0" on="1"/>
        <pt x="70" y="36" on="1"/>
        <pt x="215" y="36" on="1"/>
        <pt x="215" y="584" on="1"/>
        <pt x="70" y="584" on="1"/>
        <pt x="70" y="620" on="1"/>
        <pt x="406" y="620" on="1"/>
        <pt x="406" y="584" on="1"/>
      </contour>
    </TTGlyph>
    <TTGlyph name="Idieresis.sc" xMin="63" yMin="0" xMax="362" yMax="738">
      <contour>
        <pt x="337" y="608" on="1"/>
        <pt x="292" y="608" on="1"/>
        <pt x="292" y="738" on="1"/>
        <pt x="338" y="738" on="1"/>
      </contour>
      <contour>
        <pt x="136" y="608" on="1"/>
        <pt x="92" y="608" on="1"/>
        <pt x="91" y="738" on="1"/>
        <pt x="138" y="738" on="1"/>
      </contour>
      <contour>
        <pt x="234" y="488" on="1"/>
        <pt x="234" y="35" on="1"/>
        <pt x="362" y="35" on="1"/>
        <pt x="359" y="0" on="1"/>
        <pt x="63" y="0" on="1"/>
        <pt x="63" y="35" on="1"/>
        <pt x="189" y="35" on="1"/>
        <pt x="189" y="488" on="1"/>
        <pt x="63" y="488" on="1"/>
        <pt x="63" y="523" on="1"/>
        <pt x="359" y="523" on="1"/>
        <pt x="359" y="488" on="1"/>
      </contour>
    </TTGlyph>
    <TTGlyph name="Idotaccent" xMin="70" yMin="0" xMax="409" yMax="835">
      <contour>
        <pt x="261" y="705" on="1"/>
        <pt x="216" y="705" on="1"/>
        <pt x="219" y="835" on="1"/>
        <pt x="265" y="835" on="1"/>
      </contour>
      <contour>
        <pt x="260" y="584" on="1"/>
        <pt x="260" y="36" on="1"/>
        <pt x="409" y="36" on="1"/>
        <pt x="406" y="0" on="1"/>
        <pt x="70" y="0" on="1"/>
        <pt x="70" y="36" on="1"/>
        <pt x="215" y="36" on="1"/>
        <pt x="215" y="584" on="1"/>
        <pt x="70" y="584" on="1"/>
        <pt x="70" y="620" on="1"/>
        <pt x="406" y="620" on="1"/>
        <pt x="406" y="584" on="1"/>
      </contour>
    </TTGlyph>
    <TTGlyph name="Idotaccent.sc" xMin="63" yMin="0" xMax="362" yMax="738">
      <contour>
        <pt x="234" y="608" on="1"/>
        <pt x="189" y="608" on="1"/>
        <pt x="192" y="738" on="1"/>
        <pt x="238" y="738" on="1"/>
      </contour>
      <contour>
        <pt x="234" y="488" on="1"/>
        <pt x="234" y="35" on="1"/>
        <pt x="362" y="35" on="1"/>
        <pt x="359" y="0" on="1"/>
        <pt x="63" y="0" on="1"/>
        <pt x="63" y="35" on="1"/>
        <pt x="189" y="35" on="1"/>
        <pt x="189" y="488" on="1"/>
        <pt x="63" y="488" on="1"/>
        <pt x="63" y="523" on="1"/>
        <pt x="359" y="523" on="1"/>
        <pt x="359" y="488" on="1"/>
      </contour>
    </TTGlyph>
    <TTGlyph name="Igrave" xMin="70" yMin="0" xMax="409" yMax="888">
      <contour>
        <pt x="320" y="708" on="1"/>
        <pt x="305" y="688" on="1"/>
        <pt x="283" y="703" on="0"/>
        <pt x="231" y="744" on="0"/>
        <pt x="180" y="787" on="0"/>
        <pt x="131" y="830" on="0"/>
        <pt x="113" y="849" on="1"/>
        <pt x="153" y="888" on="1"/>
        <pt x="168" y="868" on="0"/>
        <pt x="210" y="819" on="0"/>
        <pt x="255" y="770" on="0"/>
        <pt x="301" y="724" on="0"/>
      </contour>
      <contour>
        <pt x="260" y="584" on="1"/>
        <pt x="260" y="36" on="1"/>
        <pt x="409" y="36" on="1"/>
        <pt x="406" y="0" on="1"/>
        <pt x="70" y="0" on="1"/>
        <pt x="70" y="36" on="1"/>
        <pt x="215" y="36" on="1"/>
        <pt x="215" y="584" on="1"/>
        <pt x="70" y="584" on="1"/>
        <pt x="70" y="620" on="1"/>
        <pt x="406" y="620" on="1"/>
        <pt x="406" y="584" on="1"/>
      </contour>
    </TTGlyph>
    <TTGlyph name="Igrave.sc" xMin="63" yMin="0" xMax="362" yMax="791">
      <contour>
        <pt x="293" y="611" on="1"/>
        <pt x="278" y="591" on="1"/>
        <pt x="256" y="606" on="0"/>
        <pt x="204" y="647" on="0"/>
        <pt x="153" y="690" on="0"/>
        <pt x="104" y="733" on="0"/>
        <pt x="86" y="752" on="1"/>
        <pt x="126" y="791" on="1"/>
        <pt x="141" y="771" on="0"/>
        <pt x="183" y="722" on="0"/>
        <pt x="228" y="673" on="0"/>
        <pt x="274" y="627" on="0"/>
      </contour>
      <contour>
        <pt x="234" y="488" on="1"/>
        <pt x="234" y="35" on="1"/>
        <pt x="362" y="35" on="1"/>
        <pt x="359" y="0" on="1"/>
        <pt x="63" y="0" on="1"/>
        <pt x="63" y="35" on="1"/>
        <pt x="189" y="35" on="1"/>
        <pt x="189" y="488" on="1"/>
        <pt x="63" y="488" on="1"/>
        <pt x="63" y="523" on="1"/>
        <pt x="359" y="523" on="1"/>
        <pt x="359" y="488" on="1"/>
      </contour>
    </TTGlyph>
    <TTGlyph name="Imacron" xMin="70" yMin="0" xMax="409" yMax="793">
      <contour>
        <pt x="388" y="793" on="1"/>
        <pt x="388" y="754" on="1"/>
        <pt x="92" y="754" on="1"/>
        <pt x="92" y="793" on="1"/>
      </contour>
      <contour>
        <pt x="260" y="584" on="1"/>
        <pt x="260" y="36" on="1"/>
        <pt x="409" y="36" on="1"/>
        <pt x="406" y="0" on="1"/>
        <pt x="70" y="0" on="1"/>
        <pt x="70" y="36" on="1"/>
        <pt x="215" y="36" on="1"/>
        <pt x="215" y="584" on="1"/>
        <pt x="70" y="584" on="1"/>
        <pt x="70" y="620" on="1"/>
        <pt x="406" y="620" on="1"/>
        <pt x="406" y="584" on="1"/>
      </contour>
    </TTGlyph>
    <TTGlyph name="Imacron.sc" xMin="63" yMin="0" xMax="362" yMax="696">
      <contour>
        <pt x="361" y="696" on="1"/>
        <pt x="361" y="657" on="1"/>
        <pt x="65" y="657" on="1"/>
        <pt x="65" y="696" on="1"/>
      </contour>
      <contour>
        <pt x="234" y="488" on="1"/>
        <pt x="234" y="35" on="1"/>
        <pt x="362" y="35" on="1"/>
        <pt x="359" y="0" on="1"/>
        <pt x="63" y="0" on="1"/>
        <pt x="63" y="35" on="1"/>
        <pt x="189" y="35" on="1"/>
        <pt x="189" y="488" on="1"/>
        <pt x="63" y="488" on="1"/>
        <pt x="63" y="523" on="1"/>
        <pt x="359" y="523" on="1"/>
        <pt x="359" y="488" on="1"/>
      </contour>
    </TTGlyph>
    <TTGlyph name="Iogonek" xMin="70" yMin="-205" xMax="409" yMax="620">
      <contour>
        <pt x="297" y="-167" on="1"/>
        <pt x="292" y="-205" on="1"/>
        <pt x="213" y="-190" on="0"/>
        <pt x="137" y="-142" on="0"/>
        <pt x="137" y="-106" on="1"/>
        <pt x="137" y="-82" on="0"/>
        <pt x="172" y="-31" on="0"/>
        <pt x="215" y="0" on="1"/>
        <pt x="70" y="0" on="1"/>
        <pt x="70" y="36" on="1"/>
        <pt x="215" y="36" on="1"/>
        <pt x="215" y="584" on="1"/>
        <pt x="70" y="584" on="1"/>
        <pt x="70" y="620" on="1"/>
        <pt x="406" y="620" on="1"/>
        <pt x="406" y="584" on="1"/>
        <pt x="260" y="584" on="1"/>
        <pt x="260" y="36" on="1"/>
        <pt x="409" y="36" on="1"/>
        <pt x="406" y="0" on="1"/>
        <pt x="260" y="0" on="1"/>
        <pt x="212" y="-34" on="0"/>
        <pt x="176" y="-81" on="0"/>
        <pt x="176" y="-98" on="1"/>
        <pt x="176" y="-123" on="0"/>
        <pt x="238" y="-154" on="0"/>
      </contour>
    </TTGlyph>
    <TTGlyph name="Iogonek.sc" xMin="63" yMin="-205" xMax="362" yMax="523">
      <contour>
        <pt x="275" y="-167" on="1"/>
        <pt x="269" y="-205" on="1"/>
        <pt x="191" y="-190" on="0"/>
        <pt x="114" y="-142" on="0"/>
        <pt x="114" y="-106" on="1"/>
        <pt x="114" y="-82" on="0"/>
        <pt x="149" y="-31" on="0"/>
        <pt x="190" y="0" on="1"/>
        <pt x="63" y="0" on="1"/>
        <pt x="63" y="35" on="1"/>
        <pt x="189" y="35" on="1"/>
        <pt x="189" y="488" on="1"/>
        <pt x="63" y="488" on="1"/>
        <pt x="63" y="523" on="1"/>
        <pt x="359" y="523" on="1"/>
        <pt x="359" y="488" on="1"/>
        <pt x="234" y="488" on="1"/>
        <pt x="234" y="35" on="1"/>
        <pt x="362" y="35" on="1"/>
        <pt x="359" y="0" on="1"/>
        <pt x="237" y="0" on="1"/>
        <pt x="189" y="-34" on="0"/>
        <pt x="153" y="-81" on="0"/>
        <pt x="153" y="-98" on="1"/>
        <pt x="153" y="-123" on="0"/>
        <pt x="215" y="-154" on="0"/>
      </contour>
    </TTGlyph>
    <TTGlyph name="J" xMin="62" yMin="-11" xMax="335" yMax="620">
      <contour>
        <pt x="96" y="620" on="1"/>
        <pt x="335" y="620" on="1"/>
        <pt x="335" y="190" on="1"/>
        <pt x="335" y="89" on="0"/>
        <pt x="228" y="-11" on="0"/>
        <pt x="87" y="-11" on="1"/>
        <pt x="62" y="-11" on="1"/>
        <pt x="62" y="32" on="1"/>
        <pt x="75" y="31" on="0"/>
        <pt x="99" y="31" on="0"/>
        <pt x="110" y="31" on="1"/>
        <pt x="166" y="31" on="0"/>
        <pt x="237" y="47" on="0"/>
        <pt x="276" y="84" on="0"/>
        <pt x="290" y="146" on="0"/>
        <pt x="290" y="191" on="1"/>
        <pt x="290" y="584" on="1"/>
        <pt x="96" y="584" on="1"/>
      </contour>
    </TTGlyph>
    <TTGlyph name="J.sc" xMin="59" yMin="-9" xMax="299" yMax="523">
      <contour>
        <pt x="88" y="523" on="1"/>
        <pt x="299" y="523" on="1"/>
        <pt x="299" y="161" on="1"/>
        <pt x="299" y="76" on="0"/>
        <pt x="205" y="-9" on="0"/>
        <pt x="81" y="-9" on="1"/>
        <pt x="59" y="-9" on="1"/>
        <pt x="59" y="31" on="1"/>
        <pt x="71" y="30" on="0"/>
        <pt x="92" y="30" on="0"/>
        <pt x="102" y="30" on="1"/>
        <pt x="150" y="30" on="0"/>
        <pt x="210" y="43" on="0"/>
        <pt x="243" y="74" on="0"/>
        <pt x="254" y="125" on="0"/>
        <pt x="254" y="163" on="1"/>
        <pt x="254" y="488" on="1"/>
        <pt x="88" y="488" on="1"/>
      </contour>
    </TTGlyph>
    <TTGlyph name="K" xMin="108" yMin="-4" xMax="525" yMax="620">
      <contour>
        <pt x="475" y="-4" on="1"/>
        <pt x="235" y="293" on="1"/>
        <pt x="153" y="293" on="1"/>
        <pt x="153" y="0" on="1"/>
        <pt x="108" y="0" on="1"/>
        <pt x="108" y="620" on="1"/>
        <pt x="153" y="620" on="1"/>
        <pt x="153" y="333" on="1"/>
        <pt x="238" y="333" on="1"/>
        <pt x="462" y="620" on="1"/>
        <pt x="511" y="620" on="1"/>
        <pt x="273" y="313" on="1"/>
        <pt x="525" y="3" on="1"/>
      </contour>
    </TTGlyph>
    <TTGlyph name="K.sc" xMin="99" yMin="-3" xMax="467" yMax="523">
      <contour>
        <pt x="418" y="-3" on="1"/>
        <pt x="222" y="244" on="1"/>
        <pt x="144" y="244" on="1"/>
        <pt x="144" y="0" on="1"/>
        <pt x="99" y="0" on="1"/>
        <pt x="99" y="523" on="1"/>
        <pt x="144" y="523" on="1"/>
        <pt x="144" y="283" on="1"/>
        <pt x="224" y="283" on="1"/>
        <pt x="406" y="523" on="1"/>
        <pt x="455" y="523" on="1"/>
        <pt x="258" y="265" on="1"/>
        <pt x="467" y="2" on="1"/>
      </contour>
    </TTGlyph>
    <TTGlyph name="Kcommaaccent" xMin="108" yMin="-272" xMax="525" yMax="620">
      <contour>
        <pt x="475" y="-4" on="1"/>
        <pt x="235" y="293" on="1"/>
        <pt x="153" y="293" on="1"/>
        <pt x="153" y="0" on="1"/>
        <pt x="108" y="0" on="1"/>
        <pt x="108" y="620" on="1"/>
        <pt x="153" y="620" on="1"/>
        <pt x="153" y="333" on="1"/>
        <pt x="238" y="333" on="1"/>
        <pt x="462" y="620" on="1"/>
        <pt x="511" y="620" on="1"/>
        <pt x="273" y="313" on="1"/>
        <pt x="525" y="3" on="1"/>
      </contour>
      <contour>
        <pt x="241" y="-265" on="1"/>
        <pt x="255" y="-237" on="0"/>
        <pt x="267" y="-187" on="0"/>
        <pt x="267" y="-165" on="1"/>
        <pt x="267" y="-142" on="0"/>
        <pt x="257" y="-98" on="0"/>
        <pt x="249" y="-77" on="1"/>
        <pt x="251" y="-77" on="0"/>
        <pt x="268" y="-76" on="0"/>
        <pt x="288" y="-75" on="0"/>
        <pt x="305" y="-74" on="0"/>
        <pt x="308" y="-74" on="1"/>
        <pt x="310" y="-85" on="0"/>
        <pt x="313" y="-109" on="0"/>
        <pt x="313" y="-121" on="1"/>
        <pt x="313" y="-156" on="0"/>
        <pt x="289" y="-233" on="0"/>
        <pt x="263" y="-272" on="1"/>
      </contour>
    </TTGlyph>
    <TTGlyph name="Kcommaaccent.sc" xMin="99" yMin="-271" xMax="467" yMax="523">
      <contour>
        <pt x="418" y="-3" on="1"/>
        <pt x="222" y="244" on="1"/>
        <pt x="144" y="244" on="1"/>
        <pt x="144" y="0" on="1"/>
        <pt x="99" y="0" on="1"/>
        <pt x="99" y="523" on="1"/>
        <pt x="144" y="523" on="1"/>
        <pt x="144" y="283" on="1"/>
        <pt x="224" y="283" on="1"/>
        <pt x="406" y="523" on="1"/>
        <pt x="455" y="523" on="1"/>
        <pt x="258" y="265" on="1"/>
        <pt x="467" y="2" on="1"/>
      </contour>
      <contour>
        <pt x="217" y="-264" on="1"/>
        <pt x="231" y="-236" on="0"/>
        <pt x="243" y="-186" on="0"/>
        <pt x="243" y="-164" on="1"/>
        <pt x="243" y="-141" on="0"/>
        <pt x="233" y="-97" on="0"/>
        <pt x="225" y="-76" on="1"/>
        <pt x="227" y="-76" on="0"/>
        <pt x="244" y="-75" on="0"/>
        <pt x="264" y="-74" on="0"/>
        <pt x="281" y="-73" on="0"/>
        <pt x="284" y="-73" on="1"/>
        <pt x="286" y="-84" on="0"/>
        <pt x="289" y="-108" on="0"/>
        <pt x="289" y="-120" on="1"/>
        <pt x="289" y="-155" on="0"/>
        <pt x="265" y="-232" on="0"/>
        <pt x="239" y="-271" on="1"/>
      </contour>
    </TTGlyph>
    <TTGlyph name="L" xMin="108" yMin="0" xMax="463" yMax="620">
      <contour>
        <pt x="459" y="0" on="1"/>
        <pt x="108" y="0" on="1"/>
        <pt x="108" y="620" on="1"/>
        <pt x="153" y="620" on="1"/>
        <pt x="153" y="40" on="1"/>
        <pt x="463" y="40" on="1"/>
      </contour>
    </TTGlyph>
    <TTGlyph name="L.sc" xMin="99" yMin="0" xMax="410" yMax="523">
      <contour>
        <pt x="406" y="0" on="1"/>
        <pt x="99" y="0" on="1"/>
        <pt x="99" y="523" on="1"/>
        <pt x="144" y="523" on="1"/>
        <pt x="144" y="38" on="1"/>
        <pt x="410" y="38" on="1"/>
      </contour>
    </TTGlyph>
    <TTGlyph name="Lacute" xMin="108" yMin="0" xMax="463" yMax="896">
      <contour>
        <pt x="202" y="717" on="1"/>
        <pt x="222" y="733" on="0"/>
        <pt x="268" y="778" on="0"/>
        <pt x="312" y="826" on="0"/>
        <pt x="353" y="875" on="0"/>
        <pt x="368" y="896" on="1"/>
        <pt x="409" y="859" on="1"/>
        <pt x="391" y="840" on="0"/>
        <pt x="343" y="795" on="0"/>
        <pt x="292" y="752" on="0"/>
        <pt x="239" y="711" on="0"/>
        <pt x="217" y="696" on="1"/>
      </contour>
      <contour>
        <pt x="459" y="0" on="1"/>
        <pt x="108" y="0" on="1"/>
        <pt x="108" y="620" on="1"/>
        <pt x="153" y="620" on="1"/>
        <pt x="153" y="40" on="1"/>
        <pt x="463" y="40" on="1"/>
      </contour>
    </TTGlyph>
    <TTGlyph name="Lacute.sc" xMin="99" yMin="0" xMax="410" yMax="799">
      <contour>
        <pt x="155" y="620" on="1"/>
        <pt x="175" y="636" on="0"/>
        <pt x="221" y="681" on="0"/>
        <pt x="265" y="729" on="0"/>
        <pt x="306" y="778" on="0"/>
        <pt x="321" y="799" on="1"/>
        <pt x="362" y="762" on="1"/>
        <pt x="344" y="743" on="0"/>
        <pt x="296" y="698" on="0"/>
        <pt x="245" y="655" on="0"/>
        <pt x="192" y="614" on="0"/>
        <pt x="170" y="599" on="1"/>
      </contour>
      <contour>
        <pt x="406" y="0" on="1"/>
        <pt x="99" y="0" on="1"/>
        <pt x="99" y="523" on="1"/>
        <pt x="144" y="523" on="1"/>
        <pt x="144" y="38" on="1"/>
        <pt x="410" y="38" on="1"/>
      </contour>
    </TTGlyph>
    <TTGlyph name="Lcaron" xMin="108" yMin="0" xMax="463" yMax="696">
      <contour>
        <pt x="340" y="459" on="1"/>
        <pt x="358" y="496" on="0"/>
        <pt x="372" y="559" on="0"/>
        <pt x="372" y="588" on="1"/>
        <pt x="372" y="616" on="0"/>
        <pt x="361" y="668" on="0"/>
        <pt x="353" y="694" on="1"/>
        <pt x="410" y="696" on="1"/>
        <pt x="414" y="680" on="0"/>
        <pt x="418" y="648" on="0"/>
        <pt x="418" y="631" on="1"/>
        <pt x="418" y="590" on="0"/>
        <pt x="391" y="499" on="0"/>
        <pt x="360" y="450" on="1"/>
      </contour>
      <contour>
        <pt x="459" y="0" on="1"/>
        <pt x="108" y="0" on="1"/>
        <pt x="108" y="620" on="1"/>
        <pt x="153" y="620" on="1"/>
        <pt x="153" y="40" on="1"/>
        <pt x="463" y="40" on="1"/>
      </contour>
    </TTGlyph>
    <TTGlyph name="Lcaron.sc" xMin="99" yMin="0" xMax="410" yMax="646">
      <contour>
        <pt x="291" y="409" on="1"/>
        <pt x="309" y="446" on="0"/>
        <pt x="323" y="509" on="0"/>
        <pt x="323" y="538" on="1"/>
        <pt x="323" y="566" on="0"/>
        <pt x="312" y="618" on="0"/>
        <pt x="304" y="644" on="1"/>
        <pt x="361" y="646" on="1"/>
        <pt x="365" y="630" on="0"/>
        <pt x="369" y="598" on="0"/>
        <pt x="369" y="581" on="1"/>
        <pt x="369" y="540" on="0"/>
        <pt x="342" y="449" on="0"/>
        <pt x="311" y="400" on="1"/>
      </contour>
      <contour>
        <pt x="406" y="0" on="1"/>
        <pt x="99" y="0" on="1"/>
        <pt x="99" y="523" on="1"/>
        <pt x="144" y="523" on="1"/>
        <pt x="144" y="38" on="1"/>
        <pt x="410" y="38" on="1"/>
      </contour>
    </TTGlyph>
    <TTGlyph name="Lcommaaccent" xMin="108" yMin="-268" xMax="463" yMax="620">
      <contour>
        <pt x="459" y="0" on="1"/>
        <pt x="108" y="0" on="1"/>
        <pt x="108" y="620" on="1"/>
        <pt x="153" y="620" on="1"/>
        <pt x="153" y="40" on="1"/>
        <pt x="463" y="40" on="1"/>
      </contour>
      <contour>
        <pt x="242" y="-261" on="1"/>
        <pt x="256" y="-233" on="0"/>
        <pt x="268" y="-183" on="0"/>
        <pt x="268" y="-161" on="1"/>
        <pt x="268" y="-138" on="0"/>
        <pt x="258" y="-94" on="0"/>
        <pt x="250" y="-73" on="1"/>
        <pt x="252" y="-73" on="0"/>
        <pt x="269" y="-72" on="0"/>
        <pt x="289" y="-71" on="0"/>
        <pt x="306" y="-70" on="0"/>
        <pt x="309" y="-70" on="1"/>
        <pt x="311" y="-81" on="0"/>
        <pt x="314" y="-105" on="0"/>
        <pt x="314" y="-117" on="1"/>
        <pt x="314" y="-152" on="0"/>
        <pt x="290" y="-229" on="0"/>
        <pt x="264" y="-268" on="1"/>
      </contour>
    </TTGlyph>
    <TTGlyph name="Lcommaaccent.sc" xMin="99" yMin="-268" xMax="410" yMax="523">
      <contour>
        <pt x="406" y="0" on="1"/>
        <pt x="99" y="0" on="1"/>
        <pt x="99" y="523" on="1"/>
        <pt x="144" y="523" on="1"/>
        <pt x="144" y="38" on="1"/>
        <pt x="410" y="38" on="1"/>
      </contour>
      <contour>
        <pt x="211" y="-261" on="1"/>
        <pt x="225" y="-233" on="0"/>
        <pt x="237" y="-183" on="0"/>
        <pt x="237" y="-161" on="1"/>
        <pt x="237" y="-138" on="0"/>
        <pt x="227" y="-94" on="0"/>
        <pt x="219" y="-73" on="1"/>
        <pt x="221" y="-73" on="0"/>
        <pt x="238" y="-72" on="0"/>
        <pt x="258" y="-71" on="0"/>
        <pt x="275" y="-70" on="0"/>
        <pt x="278" y="-70" on="1"/>
        <pt x="280" y="-81" on="0"/>
        <pt x="283" y="-105" on="0"/>
        <pt x="283" y="-117" on="1"/>
        <pt x="283" y="-152" on="0"/>
        <pt x="259" y="-229" on="0"/>
        <pt x="233" y="-268" on="1"/>
      </contour>
    </TTGlyph>
    <TTGlyph name="Ldot" xMin="108" yMin="0" xMax="463" yMax="620">
      <contour>
        <pt x="459" y="0" on="1"/>
        <pt x="108" y="0" on="1"/>
        <pt x="108" y="620" on="1"/>
        <pt x="153" y="620" on="1"/>
        <pt x="153" y="40" on="1"/>
        <pt x="463" y="40" on="1"/>
      </contour>
      <contour>
        <pt x="416" y="274" on="1"/>
        <pt x="351" y="274" on="1"/>
        <pt x="355" y="355" on="1"/>
        <pt x="420" y="355" on="1"/>
      </contour>
    </TTGlyph>
    <TTGlyph name="Ldot.sc" xMin="99" yMin="0" xMax="410" yMax="523">
      <contour>
        <pt x="406" y="0" on="1"/>
        <pt x="99" y="0" on="1"/>
        <pt x="99" y="523" on="1"/>
        <pt x="144" y="523" on="1"/>
        <pt x="144" y="38" on="1"/>
        <pt x="410" y="38" on="1"/>
      </contour>
      <contour>
        <pt x="380" y="234" on="1"/>
        <pt x="315" y="234" on="1"/>
        <pt x="319" y="315" on="1"/>
        <pt x="384" y="315" on="1"/>
      </contour>
    </TTGlyph>
    <TTGlyph name="Lslash" xMin="20" yMin="0" xMax="463" yMax="620">
      <contour>
        <pt x="459" y="0" on="1"/>
        <pt x="108" y="0" on="1"/>
        <pt x="108" y="315" on="1"/>
        <pt x="29" y="273" on="1"/>
        <pt x="20" y="307" on="1"/>
        <pt x="108" y="354" on="1"/>
        <pt x="108" y="620" on="1"/>
        <pt x="153" y="620" on="1"/>
        <pt x="153" y="378" on="1"/>
        <pt x="301" y="456" on="1"/>
        <pt x="310" y="422" on="1"/>
        <pt x="153" y="339" on="1"/>
        <pt x="153" y="40" on="1"/>
        <pt x="463" y="40" on="1"/>
      </contour>
    </TTGlyph>
    <TTGlyph name="Lslash.sc" xMin="14" yMin="0" xMax="410" yMax="523">
      <contour>
        <pt x="406" y="0" on="1"/>
        <pt x="99" y="0" on="1"/>
        <pt x="99" y="248" on="1"/>
        <pt x="23" y="207" on="1"/>
        <pt x="14" y="241" on="1"/>
        <pt x="99" y="286" on="1"/>
        <pt x="99" y="523" on="1"/>
        <pt x="144" y="523" on="1"/>
        <pt x="144" y="310" on="1"/>
        <pt x="287" y="386" on="1"/>
        <pt x="295" y="352" on="1"/>
        <pt x="144" y="272" on="1"/>
        <pt x="144" y="38" on="1"/>
        <pt x="410" y="38" on="1"/>
      </contour>
    </TTGlyph>
    <TTGlyph name="M" xMin="108" yMin="0" xMax="641" yMax="620">
      <contour>
        <pt x="570" y="620" on="1"/>
        <pt x="641" y="620" on="1"/>
        <pt x="641" y="0" on="1"/>
        <pt x="597" y="0" on="1"/>
        <pt x="598" y="568" on="1"/>
        <pt x="592" y="568" on="1"/>
        <pt x="398" y="70" on="1"/>
        <pt x="351" y="70" on="1"/>
        <pt x="156" y="568" on="1"/>
        <pt x="151" y="568" on="1"/>
        <pt x="151" y="0" on="1"/>
        <pt x="108" y="0" on="1"/>
        <pt x="108" y="620" on="1"/>
        <pt x="182" y="620" on="1"/>
        <pt x="182" y="620" on="0"/>
        <pt x="232" y="490" on="0"/>
        <pt x="297" y="323" on="0"/>
        <pt x="361" y="161" on="0"/>
        <pt x="374" y="129" on="1"/>
        <pt x="378" y="129" on="1"/>
        <pt x="391" y="161" on="0"/>
        <pt x="455" y="323" on="0"/>
        <pt x="520" y="490" on="0"/>
        <pt x="570" y="620" on="0"/>
      </contour>
    </TTGlyph>
    <TTGlyph name="M.sc" xMin="99" yMin="0" xMax="567" yMax="523">
      <contour>
        <pt x="311" y="57" on="1"/>
        <pt x="146" y="471" on="1"/>
        <pt x="140" y="471" on="1"/>
        <pt x="142" y="0" on="1"/>
        <pt x="99" y="0" on="1"/>
        <pt x="99" y="523" on="1"/>
        <pt x="169" y="523" on="1"/>
        <pt x="169" y="523" on="0"/>
        <pt x="212" y="415" on="0"/>
        <pt x="268" y="275" on="0"/>
        <pt x="322" y="141" on="0"/>
        <pt x="333" y="115" on="1"/>
        <pt x="337" y="115" on="1"/>
        <pt x="347" y="141" on="0"/>
        <pt x="401" y="275" on="0"/>
        <pt x="457" y="415" on="0"/>
        <pt x="500" y="523" on="0"/>
        <pt x="500" y="523" on="1"/>
        <pt x="567" y="523" on="1"/>
        <pt x="567" y="0" on="1"/>
        <pt x="523" y="0" on="1"/>
        <pt x="525" y="471" on="1"/>
        <pt x="520" y="471" on="1"/>
        <pt x="354" y="58" on="1"/>
      </contour>
    </TTGlyph>
    <TTGlyph name="N" xMin="108" yMin="0" xMax="546" yMax="620">
      <contour>
        <pt x="488" y="0" on="1"/>
        <pt x="156" y="564" on="1"/>
        <pt x="151" y="564" on="1"/>
        <pt x="151" y="0" on="1"/>
        <pt x="108" y="0" on="1"/>
        <pt x="108" y="620" on="1"/>
        <pt x="174" y="620" on="1"/>
        <pt x="498" y="70" on="1"/>
        <pt x="503" y="70" on="1"/>
        <pt x="503" y="620" on="1"/>
        <pt x="546" y="620" on="1"/>
        <pt x="546" y="0" on="1"/>
      </contour>
    </TTGlyph>
    <TTGlyph name="N.sc" xMin="99" yMin="0" xMax="484" yMax="523">
      <contour>
        <pt x="427" y="0" on="1"/>
        <pt x="147" y="467" on="1"/>
        <pt x="141" y="467" on="1"/>
        <pt x="142" y="0" on="1"/>
        <pt x="99" y="0" on="1"/>
        <pt x="99" y="523" on="1"/>
        <pt x="162" y="523" on="1"/>
        <pt x="436" y="68" on="1"/>
        <pt x="442" y="68" on="1"/>
        <pt x="441" y="523" on="1"/>
        <pt x="484" y="523" on="1"/>
        <pt x="484" y="0" on="1"/>
      </contour>
    </TTGlyph>
    <TTGlyph name="Nacute" xMin="108" yMin="0" xMax="546" yMax="896">
      <contour>
        <pt x="249" y="717" on="1"/>
        <pt x="269" y="733" on="0"/>
        <pt x="315" y="778" on="0"/>
        <pt x="359" y="826" on="0"/>
        <pt x="400" y="875" on="0"/>
        <pt x="415" y="896" on="1"/>
        <pt x="456" y="859" on="1"/>
        <pt x="438" y="840" on="0"/>
        <pt x="390" y="795" on="0"/>
        <pt x="339" y="752" on="0"/>
        <pt x="286" y="711" on="0"/>
        <pt x="264" y="696" on="1"/>
      </contour>
      <contour>
        <pt x="488" y="0" on="1"/>
        <pt x="156" y="564" on="1"/>
        <pt x="151" y="564" on="1"/>
        <pt x="151" y="0" on="1"/>
        <pt x="108" y="0" on="1"/>
        <pt x="108" y="620" on="1"/>
        <pt x="174" y="620" on="1"/>
        <pt x="498" y="70" on="1"/>
        <pt x="503" y="70" on="1"/>
        <pt x="503" y="620" on="1"/>
        <pt x="546" y="620" on="1"/>
        <pt x="546" y="0" on="1"/>
      </contour>
    </TTGlyph>
    <TTGlyph name="Nacute.sc" xMin="99" yMin="0" xMax="484" yMax="799">
      <contour>
        <pt x="213" y="620" on="1"/>
        <pt x="233" y="636" on="0"/>
        <pt x="279" y="681" on="0"/>
        <pt x="323" y="729" on="0"/>
        <pt x="364" y="778" on="0"/>
        <pt x="379" y="799" on="1"/>
        <pt x="420" y="762" on="1"/>
        <pt x="402" y="743" on="0"/>
        <pt x="354" y="698" on="0"/>
        <pt x="303" y="655" on="0"/>
        <pt x="250" y="614" on="0"/>
        <pt x="228" y="599" on="1"/>
      </contour>
      <contour>
        <pt x="427" y="0" on="1"/>
        <pt x="147" y="467" on="1"/>
        <pt x="141" y="467" on="1"/>
        <pt x="142" y="0" on="1"/>
        <pt x="99" y="0" on="1"/>
        <pt x="99" y="523" on="1"/>
        <pt x="162" y="523" on="1"/>
        <pt x="436" y="68" on="1"/>
        <pt x="442" y="68" on="1"/>
        <pt x="441" y="523" on="1"/>
        <pt x="484" y="523" on="1"/>
        <pt x="484" y="0" on="1"/>
      </contour>
    </TTGlyph>
    <TTGlyph name="Ncaron" xMin="108" yMin="0" xMax="546" yMax="870">
      <contour>
        <pt x="336" y="695" on="1"/>
        <pt x="335" y="695" on="1"/>
        <pt x="180" y="842" on="1"/>
        <pt x="210" y="870" on="1"/>
        <pt x="338" y="744" on="1"/>
        <pt x="469" y="870" on="1"/>
        <pt x="493" y="846" on="1"/>
      </contour>
      <contour>
        <pt x="488" y="0" on="1"/>
        <pt x="156" y="564" on="1"/>
        <pt x="151" y="564" on="1"/>
        <pt x="151" y="0" on="1"/>
        <pt x="108" y="0" on="1"/>
        <pt x="108" y="620" on="1"/>
        <pt x="174" y="620" on="1"/>
        <pt x="498" y="70" on="1"/>
        <pt x="503" y="70" on="1"/>
        <pt x="503" y="620" on="1"/>
        <pt x="546" y="620" on="1"/>
        <pt x="546" y="0" on="1"/>
      </contour>
    </TTGlyph>
    <TTGlyph name="Ncaron.sc" xMin="99" yMin="0" xMax="484" yMax="773">
      <contour>
        <pt x="301" y="598" on="1"/>
        <pt x="300" y="598" on="1"/>
        <pt x="145" y="745" on="1"/>
        <pt x="175" y="773" on="1"/>
        <pt x="303" y="647" on="1"/>
        <pt x="434" y="773" on="1"/>
        <pt x="458" y="749" on="1"/>
      </contour>
      <contour>
        <pt x="427" y="0" on="1"/>
        <pt x="147" y="467" on="1"/>
        <pt x="141" y="467" on="1"/>
        <pt x="142" y="0" on="1"/>
        <pt x="99" y="0" on="1"/>
        <pt x="99" y="523" on="1"/>
        <pt x="162" y="523" on="1"/>
        <pt x="436" y="68" on="1"/>
        <pt x="442" y="68" on="1"/>
        <pt x="441" y="523" on="1"/>
        <pt x="484" y="523" on="1"/>
        <pt x="484" y="0" on="1"/>
      </contour>
    </TTGlyph>
    <TTGlyph name="Ncommaaccent" xMin="108" yMin="-268" xMax="546" yMax="620">
      <contour>
        <pt x="488" y="0" on="1"/>
        <pt x="156" y="564" on="1"/>
        <pt x="151" y="564" on="1"/>
        <pt x="151" y="0" on="1"/>
        <pt x="108" y="0" on="1"/>
        <pt x="108" y="620" on="1"/>
        <pt x="174" y="620" on="1"/>
        <pt x="498" y="70" on="1"/>
        <pt x="503" y="70" on="1"/>
        <pt x="503" y="620" on="1"/>
        <pt x="546" y="620" on="1"/>
        <pt x="546" y="0" on="1"/>
      </contour>
      <contour>
        <pt x="289" y="-261" on="1"/>
        <pt x="303" y="-233" on="0"/>
        <pt x="315" y="-183" on="0"/>
        <pt x="315" y="-161" on="1"/>
        <pt x="315" y="-138" on="0"/>
        <pt x="305" y="-94" on="0"/>
        <pt x="297" y="-73" on="1"/>
        <pt x="299" y="-73" on="0"/>
        <pt x="316" y="-72" on="0"/>
        <pt x="336" y="-71" on="0"/>
        <pt x="353" y="-70" on="0"/>
        <pt x="356" y="-70" on="1"/>
        <pt x="358" y="-81" on="0"/>
        <pt x="361" y="-105" on="0"/>
        <pt x="361" y="-117" on="1"/>
        <pt x="361" y="-152" on="0"/>
        <pt x="337" y="-229" on="0"/>
        <pt x="311" y="-268" on="1"/>
      </contour>
    </TTGlyph>
    <TTGlyph name="Ncommaaccent.sc" xMin="99" yMin="-268" xMax="484" yMax="523">
      <contour>
        <pt x="427" y="0" on="1"/>
        <pt x="147" y="467" on="1"/>
        <pt x="141" y="467" on="1"/>
        <pt x="142" y="0" on="1"/>
        <pt x="99" y="0" on="1"/>
        <pt x="99" y="523" on="1"/>
        <pt x="162" y="523" on="1"/>
        <pt x="436" y="68" on="1"/>
        <pt x="442" y="68" on="1"/>
        <pt x="441" y="523" on="1"/>
        <pt x="484" y="523" on="1"/>
        <pt x="484" y="0" on="1"/>
      </contour>
      <contour>
        <pt x="254" y="-261" on="1"/>
        <pt x="268" y="-233" on="0"/>
        <pt x="280" y="-183" on="0"/>
        <pt x="280" y="-161" on="1"/>
        <pt x="280" y="-138" on="0"/>
        <pt x="270" y="-94" on="0"/>
        <pt x="262" y="-73" on="1"/>
        <pt x="264" y="-73" on="0"/>
        <pt x="281" y="-72" on="0"/>
        <pt x="301" y="-71" on="0"/>
        <pt x="318" y="-70" on="0"/>
        <pt x="321" y="-70" on="1"/>
        <pt x="323" y="-81" on="0"/>
        <pt x="326" y="-105" on="0"/>
        <pt x="326" y="-117" on="1"/>
        <pt x="326" y="-152" on="0"/>
        <pt x="302" y="-229" on="0"/>
        <pt x="276" y="-268" on="1"/>
      </contour>
    </TTGlyph>
    <TTGlyph name="Ntilde" xMin="108" yMin="0" xMax="546" yMax="862">
      <contour>
        <pt x="407" y="705" on="1"/>
        <pt x="383" y="705" on="0"/>
        <pt x="346" y="742" on="0"/>
        <pt x="312" y="787" on="0"/>
        <pt x="281" y="824" on="0"/>
        <pt x="263" y="824" on="1"/>
        <pt x="241" y="824" on="0"/>
        <pt x="202" y="762" on="0"/>
        <pt x="183" y="714" on="1"/>
        <pt x="154" y="726" on="1"/>
        <pt x="179" y="791" on="0"/>
        <pt x="236" y="862" on="0"/>
        <pt x="268" y="862" on="1"/>
        <pt x="292" y="862" on="0"/>
        <pt x="329" y="825" on="0"/>
        <pt x="362" y="780" on="0"/>
        <pt x="393" y="743" on="0"/>
        <pt x="411" y="743" on="1"/>
        <pt x="433" y="743" on="0"/>
        <pt x="473" y="805" on="0"/>
        <pt x="492" y="853" on="1"/>
        <pt x="520" y="841" on="1"/>
        <pt x="496" y="776" on="0"/>
        <pt x="438" y="705" on="0"/>
      </contour>
      <contour>
        <pt x="488" y="0" on="1"/>
        <pt x="156" y="564" on="1"/>
        <pt x="151" y="564" on="1"/>
        <pt x="151" y="0" on="1"/>
        <pt x="108" y="0" on="1"/>
        <pt x="108" y="620" on="1"/>
        <pt x="174" y="620" on="1"/>
        <pt x="498" y="70" on="1"/>
        <pt x="503" y="70" on="1"/>
        <pt x="503" y="620" on="1"/>
        <pt x="546" y="620" on="1"/>
        <pt x="546" y="0" on="1"/>
      </contour>
    </TTGlyph>
    <TTGlyph name="Ntilde.sc" xMin="99" yMin="0" xMax="485" yMax="765">
      <contour>
        <pt x="372" y="608" on="1"/>
        <pt x="348" y="608" on="0"/>
        <pt x="311" y="645" on="0"/>
        <pt x="277" y="690" on="0"/>
        <pt x="246" y="727" on="0"/>
        <pt x="228" y="727" on="1"/>
        <pt x="206" y="727" on="0"/>
        <pt x="167" y="665" on="0"/>
        <pt x="148" y="617" on="1"/>
        <pt x="119" y="629" on="1"/>
        <pt x="144" y="694" on="0"/>
        <pt x="201" y="765" on="0"/>
        <pt x="233" y="765" on="1"/>
        <pt x="257" y="765" on="0"/>
        <pt x="294" y="728" on="0"/>
        <pt x="327" y="683" on="0"/>
        <pt x="358" y="646" on="0"/>
        <pt x="376" y="646" on="1"/>
        <pt x="398" y="646" on="0"/>
        <pt x="438" y="708" on="0"/>
        <pt x="457" y="756" on="1"/>
        <pt x="485" y="744" on="1"/>
        <pt x="461" y="679" on="0"/>
        <pt x="403" y="608" on="0"/>
      </contour>
      <contour>
        <pt x="427" y="0" on="1"/>
        <pt x="147" y="467" on="1"/>
        <pt x="141" y="467" on="1"/>
        <pt x="142" y="0" on="1"/>
        <pt x="99" y="0" on="1"/>
        <pt x="99" y="523" on="1"/>
        <pt x="162" y="523" on="1"/>
        <pt x="436" y="68" on="1"/>
        <pt x="442" y="68" on="1"/>
        <pt x="441" y="523" on="1"/>
        <pt x="484" y="523" on="1"/>
        <pt x="484" y="0" on="1"/>
      </contour>
    </TTGlyph>
    <TTGlyph name="O" xMin="63" yMin="-13" xMax="583" yMax="633">
      <contour>
        <pt x="315" y="-13" on="1"/>
        <pt x="261" y="-13" on="0"/>
        <pt x="169" y="30" on="0"/>
        <pt x="101" y="111" on="0"/>
        <pt x="63" y="228" on="0"/>
        <pt x="63" y="301" on="1"/>
        <pt x="63" y="377" on="0"/>
        <pt x="106" y="500" on="0"/>
        <pt x="178" y="586" on="0"/>
        <pt x="276" y="633" on="0"/>
        <pt x="331" y="633" on="1"/>
        <pt x="384" y="633" on="0"/>
        <pt x="477" y="590" on="0"/>
        <pt x="544" y="509" on="0"/>
        <pt x="583" y="392" on="0"/>
        <pt x="583" y="319" on="1"/>
        <pt x="583" y="244" on="0"/>
        <pt x="540" y="120" on="0"/>
        <pt x="468" y="34" on="0"/>
        <pt x="370" y="-13" on="0"/>
      </contour>
      <contour>
        <pt x="323" y="594" on="1"/>
        <pt x="277" y="594" on="0"/>
        <pt x="198" y="555" on="0"/>
        <pt x="140" y="482" on="0"/>
        <pt x="108" y="376" on="0"/>
        <pt x="108" y="310" on="1"/>
        <pt x="108" y="243" on="0"/>
        <pt x="141" y="137" on="0"/>
        <pt x="198" y="65" on="0"/>
        <pt x="277" y="26" on="0"/>
        <pt x="323" y="26" on="1"/>
        <pt x="369" y="26" on="0"/>
        <pt x="448" y="65" on="0"/>
        <pt x="506" y="138" on="0"/>
        <pt x="538" y="244" on="0"/>
        <pt x="538" y="310" on="1"/>
        <pt x="538" y="377" on="0"/>
        <pt x="505" y="483" on="0"/>
        <pt x="448" y="555" on="0"/>
        <pt x="369" y="594" on="0"/>
      </contour>
    </TTGlyph>
    <TTGlyph name="O.sc" xMin="58" yMin="-11" xMax="513" yMax="534">
      <contour>
        <pt x="279" y="-11" on="1"/>
        <pt x="232" y="-11" on="0"/>
        <pt x="150" y="26" on="0"/>
        <pt x="91" y="93" on="0"/>
        <pt x="58" y="192" on="0"/>
        <pt x="58" y="253" on="1"/>
        <pt x="58" y="317" on="0"/>
        <pt x="95" y="422" on="0"/>
        <pt x="159" y="494" on="0"/>
        <pt x="245" y="534" on="0"/>
        <pt x="294" y="534" on="1"/>
        <pt x="341" y="534" on="0"/>
        <pt x="421" y="497" on="0"/>
        <pt x="480" y="430" on="0"/>
        <pt x="513" y="331" on="0"/>
        <pt x="513" y="270" on="1"/>
        <pt x="513" y="206" on="0"/>
        <pt x="476" y="101" on="0"/>
        <pt x="413" y="29" on="0"/>
        <pt x="328" y="-11" on="0"/>
      </contour>
      <contour>
        <pt x="285" y="496" on="1"/>
        <pt x="207" y="496" on="0"/>
        <pt x="103" y="372" on="0"/>
        <pt x="103" y="262" on="1"/>
        <pt x="103" y="151" on="0"/>
        <pt x="209" y="27" on="0"/>
        <pt x="287" y="27" on="1"/>
        <pt x="365" y="27" on="0"/>
        <pt x="468" y="151" on="0"/>
        <pt x="468" y="261" on="1"/>
        <pt x="468" y="372" on="0"/>
        <pt x="364" y="496" on="0"/>
      </contour>
    </TTGlyph>
    <TTGlyph name="OE" xMin="63" yMin="0" xMax="813" yMax="620">
      <contour>
        <pt x="108" y="307" on="1"/>
        <pt x="108" y="170" on="0"/>
        <pt x="278" y="43" on="0"/>
        <pt x="453" y="40" on="1"/>
        <pt x="453" y="579" on="1"/>
        <pt x="288" y="577" on="0"/>
        <pt x="108" y="442" on="0"/>
      </contour>
      <contour>
        <pt x="813" y="40" on="1"/>
        <pt x="808" y="0" on="1"/>
        <pt x="472" y="0" on="1"/>
        <pt x="260" y="0" on="0"/>
        <pt x="63" y="149" on="0"/>
        <pt x="63" y="298" on="1"/>
        <pt x="63" y="450" on="0"/>
        <pt x="277" y="620" on="0"/>
        <pt x="473" y="620" on="1"/>
        <pt x="810" y="620" on="1"/>
        <pt x="810" y="580" on="1"/>
        <pt x="498" y="580" on="1"/>
        <pt x="498" y="333" on="1"/>
        <pt x="770" y="333" on="1"/>
        <pt x="770" y="297" on="1"/>
        <pt x="498" y="297" on="1"/>
        <pt x="498" y="40" on="1"/>
      </contour>
    </TTGlyph>
    <TTGlyph name="OE.sc" xMin="57" yMin="0" xMax="717" yMax="523">
      <contour>
        <pt x="101" y="260" on="1"/>
        <pt x="101" y="195" on="0"/>
        <pt x="143" y="109" on="0"/>
        <pt x="221" y="59" on="0"/>
        <pt x="334" y="38" on="0"/>
        <pt x="403" y="38" on="1"/>
        <pt x="402" y="484" on="1"/>
        <pt x="262" y="484" on="0"/>
        <pt x="101" y="384" on="0"/>
      </contour>
      <contour>
        <pt x="717" y="39" on="1"/>
        <pt x="712" y="0" on="1"/>
        <pt x="421" y="0" on="1"/>
        <pt x="240" y="0" on="0"/>
        <pt x="57" y="112" on="0"/>
        <pt x="57" y="251" on="1"/>
        <pt x="57" y="394" on="0"/>
        <pt x="250" y="523" on="0"/>
        <pt x="422" y="523" on="1"/>
        <pt x="714" y="523" on="1"/>
        <pt x="714" y="484" on="1"/>
        <pt x="446" y="484" on="1"/>
        <pt x="446" y="282" on="1"/>
        <pt x="679" y="282" on="1"/>
        <pt x="679" y="248" on="1"/>
        <pt x="446" y="248" on="1"/>
        <pt x="446" y="39" on="1"/>
      </contour>
    </TTGlyph>
    <TTGlyph name="Oacute" xMin="63" yMin="-13" xMax="583" yMax="903">
      <contour>
        <pt x="242" y="724" on="1"/>
        <pt x="262" y="740" on="0"/>
        <pt x="308" y="785" on="0"/>
        <pt x="352" y="833" on="0"/>
        <pt x="393" y="882" on="0"/>
        <pt x="408" y="903" on="1"/>
        <pt x="449" y="866" on="1"/>
        <pt x="431" y="847" on="0"/>
        <pt x="383" y="802" on="0"/>
        <pt x="332" y="759" on="0"/>
        <pt x="279" y="718" on="0"/>
        <pt x="257" y="703" on="1"/>
      </contour>
      <contour>
        <pt x="315" y="-13" on="1"/>
        <pt x="261" y="-13" on="0"/>
        <pt x="169" y="30" on="0"/>
        <pt x="101" y="111" on="0"/>
        <pt x="63" y="228" on="0"/>
        <pt x="63" y="301" on="1"/>
        <pt x="63" y="377" on="0"/>
        <pt x="106" y="500" on="0"/>
        <pt x="178" y="586" on="0"/>
        <pt x="276" y="633" on="0"/>
        <pt x="331" y="633" on="1"/>
        <pt x="384" y="633" on="0"/>
        <pt x="477" y="590" on="0"/>
        <pt x="544" y="509" on="0"/>
        <pt x="583" y="392" on="0"/>
        <pt x="583" y="319" on="1"/>
        <pt x="583" y="244" on="0"/>
        <pt x="540" y="120" on="0"/>
        <pt x="468" y="34" on="0"/>
        <pt x="370" y="-13" on="0"/>
      </contour>
      <contour>
        <pt x="323" y="594" on="1"/>
        <pt x="277" y="594" on="0"/>
        <pt x="198" y="555" on="0"/>
        <pt x="140" y="482" on="0"/>
        <pt x="108" y="376" on="0"/>
        <pt x="108" y="310" on="1"/>
        <pt x="108" y="243" on="0"/>
        <pt x="141" y="137" on="0"/>
        <pt x="198" y="65" on="0"/>
        <pt x="277" y="26" on="0"/>
        <pt x="323" y="26" on="1"/>
        <pt x="369" y="26" on="0"/>
        <pt x="448" y="65" on="0"/>
        <pt x="506" y="138" on="0"/>
        <pt x="538" y="244" on="0"/>
        <pt x="538" y="310" on="1"/>
        <pt x="538" y="377" on="0"/>
        <pt x="505" y="483" on="0"/>
        <pt x="448" y="555" on="0"/>
        <pt x="369" y="594" on="0"/>
      </contour>
    </TTGlyph>
    <TTGlyph name="Oacute.sc" xMin="58" yMin="-11" xMax="513" yMax="805">
      <contour>
        <pt x="205" y="626" on="1"/>
        <pt x="225" y="642" on="0"/>
        <pt x="271" y="687" on="0"/>
        <pt x="315" y="735" on="0"/>
        <pt x="356" y="784" on="0"/>
        <pt x="371" y="805" on="1"/>
        <pt x="412" y="768" on="1"/>
        <pt x="394" y="749" on="0"/>
        <pt x="346" y="704" on="0"/>
        <pt x="295" y="661" on="0"/>
        <pt x="242" y="620" on="0"/>
        <pt x="220" y="605" on="1"/>
      </contour>
      <contour>
        <pt x="279" y="-11" on="1"/>
        <pt x="232" y="-11" on="0"/>
        <pt x="150" y="26" on="0"/>
        <pt x="91" y="93" on="0"/>
        <pt x="58" y="192" on="0"/>
        <pt x="58" y="253" on="1"/>
        <pt x="58" y="317" on="0"/>
        <pt x="95" y="422" on="0"/>
        <pt x="159" y="494" on="0"/>
        <pt x="245" y="534" on="0"/>
        <pt x="294" y="534" on="1"/>
        <pt x="341" y="534" on="0"/>
        <pt x="421" y="497" on="0"/>
        <pt x="480" y="430" on="0"/>
        <pt x="513" y="331" on="0"/>
        <pt x="513" y="270" on="1"/>
        <pt x="513" y="206" on="0"/>
        <pt x="476" y="101" on="0"/>
        <pt x="413" y="29" on="0"/>
        <pt x="328" y="-11" on="0"/>
      </contour>
      <contour>
        <pt x="285" y="496" on="1"/>
        <pt x="207" y="496" on="0"/>
        <pt x="103" y="372" on="0"/>
        <pt x="103" y="262" on="1"/>
        <pt x="103" y="151" on="0"/>
        <pt x="209" y="27" on="0"/>
        <pt x="287" y="27" on="1"/>
        <pt x="365" y="27" on="0"/>
        <pt x="468" y="151" on="0"/>
        <pt x="468" y="261" on="1"/>
        <pt x="468" y="372" on="0"/>
        <pt x="364" y="496" on="0"/>
      </contour>
    </TTGlyph>
    <TTGlyph name="Obreve" xMin="63" yMin="-13" xMax="583" yMax="874">
      <contour>
        <pt x="321" y="712" on="1"/>
        <pt x="277" y="712" on="0"/>
        <pt x="198" y="782" on="0"/>
        <pt x="159" y="854" on="1"/>
        <pt x="192" y="874" on="1"/>
        <pt x="229" y="807" on="0"/>
        <pt x="289" y="749" on="0"/>
        <pt x="325" y="749" on="1"/>
        <pt x="364" y="749" on="0"/>
        <pt x="427" y="812" on="0"/>
        <pt x="464" y="870" on="1"/>
        <pt x="493" y="855" on="1"/>
        <pt x="454" y="788" on="0"/>
        <pt x="367" y="712" on="0"/>
      </contour>
      <contour>
        <pt x="315" y="-13" on="1"/>
        <pt x="261" y="-13" on="0"/>
        <pt x="169" y="30" on="0"/>
        <pt x="101" y="111" on="0"/>
        <pt x="63" y="228" on="0"/>
        <pt x="63" y="301" on="1"/>
        <pt x="63" y="377" on="0"/>
        <pt x="106" y="500" on="0"/>
        <pt x="178" y="586" on="0"/>
        <pt x="276" y="633" on="0"/>
        <pt x="331" y="633" on="1"/>
        <pt x="384" y="633" on="0"/>
        <pt x="477" y="590" on="0"/>
        <pt x="544" y="509" on="0"/>
        <pt x="583" y="392" on="0"/>
        <pt x="583" y="319" on="1"/>
        <pt x="583" y="244" on="0"/>
        <pt x="540" y="120" on="0"/>
        <pt x="468" y="34" on="0"/>
        <pt x="370" y="-13" on="0"/>
      </contour>
      <contour>
        <pt x="323" y="594" on="1"/>
        <pt x="277" y="594" on="0"/>
        <pt x="198" y="555" on="0"/>
        <pt x="140" y="482" on="0"/>
        <pt x="108" y="376" on="0"/>
        <pt x="108" y="310" on="1"/>
        <pt x="108" y="243" on="0"/>
        <pt x="141" y="137" on="0"/>
        <pt x="198" y="65" on="0"/>
        <pt x="277" y="26" on="0"/>
        <pt x="323" y="26" on="1"/>
        <pt x="369" y="26" on="0"/>
        <pt x="448" y="65" on="0"/>
        <pt x="506" y="138" on="0"/>
        <pt x="538" y="244" on="0"/>
        <pt x="538" y="310" on="1"/>
        <pt x="538" y="377" on="0"/>
        <pt x="505" y="483" on="0"/>
        <pt x="448" y="555" on="0"/>
        <pt x="369" y="594" on="0"/>
      </contour>
    </TTGlyph>
    <TTGlyph name="Obreve.sc" xMin="58" yMin="-11" xMax="513" yMax="776">
      <contour>
        <pt x="284" y="614" on="1"/>
        <pt x="240" y="614" on="0"/>
        <pt x="161" y="684" on="0"/>
        <pt x="122" y="756" on="1"/>
        <pt x="155" y="776" on="1"/>
        <pt x="192" y="709" on="0"/>
        <pt x="252" y="651" on="0"/>
        <pt x="288" y="651" on="1"/>
        <pt x="327" y="651" on="0"/>
        <pt x="390" y="714" on="0"/>
        <pt x="427" y="772" on="1"/>
        <pt x="456" y="757" on="1"/>
        <pt x="417" y="690" on="0"/>
        <pt x="330" y="614" on="0"/>
      </contour>
      <contour>
        <pt x="279" y="-11" on="1"/>
        <pt x="232" y="-11" on="0"/>
        <pt x="150" y="26" on="0"/>
        <pt x="91" y="93" on="0"/>
        <pt x="58" y="192" on="0"/>
        <pt x="58" y="253" on="1"/>
        <pt x="58" y="317" on="0"/>
        <pt x="95" y="422" on="0"/>
        <pt x="159" y="494" on="0"/>
        <pt x="245" y="534" on="0"/>
        <pt x="294" y="534" on="1"/>
        <pt x="341" y="534" on="0"/>
        <pt x="421" y="497" on="0"/>
        <pt x="480" y="430" on="0"/>
        <pt x="513" y="331" on="0"/>
        <pt x="513" y="270" on="1"/>
        <pt x="513" y="206" on="0"/>
        <pt x="476" y="101" on="0"/>
        <pt x="413" y="29" on="0"/>
        <pt x="328" y="-11" on="0"/>
      </contour>
      <contour>
        <pt x="285" y="496" on="1"/>
        <pt x="207" y="496" on="0"/>
        <pt x="103" y="372" on="0"/>
        <pt x="103" y="262" on="1"/>
        <pt x="103" y="151" on="0"/>
        <pt x="209" y="27" on="0"/>
        <pt x="287" y="27" on="1"/>
        <pt x="365" y="27" on="0"/>
        <pt x="468" y="151" on="0"/>
        <pt x="468" y="261" on="1"/>
        <pt x="468" y="372" on="0"/>
        <pt x="364" y="496" on="0"/>
      </contour>
    </TTGlyph>
    <TTGlyph name="Ocircumflex" xMin="63" yMin="-13" xMax="583" yMax="883">
      <contour>
        <pt x="453" y="707" on="1"/>
        <pt x="325" y="833" on="1"/>
        <pt x="194" y="708" on="1"/>
        <pt x="169" y="731" on="1"/>
        <pt x="327" y="883" on="1"/>
        <pt x="328" y="883" on="1"/>
        <pt x="482" y="735" on="1"/>
      </contour>
      <contour>
        <pt x="315" y="-13" on="1"/>
        <pt x="261" y="-13" on="0"/>
        <pt x="169" y="30" on="0"/>
        <pt x="101" y="111" on="0"/>
        <pt x="63" y="228" on="0"/>
        <pt x="63" y="301" on="1"/>
        <pt x="63" y="377" on="0"/>
        <pt x="106" y="500" on="0"/>
        <pt x="178" y="586" on="0"/>
        <pt x="276" y="633" on="0"/>
        <pt x="331" y="633" on="1"/>
        <pt x="384" y="633" on="0"/>
        <pt x="477" y="590" on="0"/>
        <pt x="544" y="509" on="0"/>
        <pt x="583" y="392" on="0"/>
        <pt x="583" y="319" on="1"/>
        <pt x="583" y="244" on="0"/>
        <pt x="540" y="120" on="0"/>
        <pt x="468" y="34" on="0"/>
        <pt x="370" y="-13" on="0"/>
      </contour>
      <contour>
        <pt x="323" y="594" on="1"/>
        <pt x="277" y="594" on="0"/>
        <pt x="198" y="555" on="0"/>
        <pt x="140" y="482" on="0"/>
        <pt x="108" y="376" on="0"/>
        <pt x="108" y="310" on="1"/>
        <pt x="108" y="243" on="0"/>
        <pt x="141" y="137" on="0"/>
        <pt x="198" y="65" on="0"/>
        <pt x="277" y="26" on="0"/>
        <pt x="323" y="26" on="1"/>
        <pt x="369" y="26" on="0"/>
        <pt x="448" y="65" on="0"/>
        <pt x="506" y="138" on="0"/>
        <pt x="538" y="244" on="0"/>
        <pt x="538" y="310" on="1"/>
        <pt x="538" y="377" on="0"/>
        <pt x="505" y="483" on="0"/>
        <pt x="448" y="555" on="0"/>
        <pt x="369" y="594" on="0"/>
      </contour>
    </TTGlyph>
    <TTGlyph name="Ocircumflex.sc" xMin="58" yMin="-11" xMax="513" yMax="785">
      <contour>
        <pt x="416" y="609" on="1"/>
        <pt x="288" y="735" on="1"/>
        <pt x="157" y="610" on="1"/>
        <pt x="132" y="633" on="1"/>
        <pt x="290" y="785" on="1"/>
        <pt x="291" y="785" on="1"/>
        <pt x="445" y="637" on="1"/>
      </contour>
      <contour>
        <pt x="279" y="-11" on="1"/>
        <pt x="232" y="-11" on="0"/>
        <pt x="150" y="26" on="0"/>
        <pt x="91" y="93" on="0"/>
        <pt x="58" y="192" on="0"/>
        <pt x="58" y="253" on="1"/>
        <pt x="58" y="317" on="0"/>
        <pt x="95" y="422" on="0"/>
        <pt x="159" y="494" on="0"/>
        <pt x="245" y="534" on="0"/>
        <pt x="294" y="534" on="1"/>
        <pt x="341" y="534" on="0"/>
        <pt x="421" y="497" on="0"/>
        <pt x="480" y="430" on="0"/>
        <pt x="513" y="331" on="0"/>
        <pt x="513" y="270" on="1"/>
        <pt x="513" y="206" on="0"/>
        <pt x="476" y="101" on="0"/>
        <pt x="413" y="29" on="0"/>
        <pt x="328" y="-11" on="0"/>
      </contour>
      <contour>
        <pt x="285" y="496" on="1"/>
        <pt x="207" y="496" on="0"/>
        <pt x="103" y="372" on="0"/>
        <pt x="103" y="262" on="1"/>
        <pt x="103" y="151" on="0"/>
        <pt x="209" y="27" on="0"/>
        <pt x="287" y="27" on="1"/>
        <pt x="365" y="27" on="0"/>
        <pt x="468" y="151" on="0"/>
        <pt x="468" y="261" on="1"/>
        <pt x="468" y="372" on="0"/>
        <pt x="364" y="496" on="0"/>
      </contour>
    </TTGlyph>
    <TTGlyph name="Odieresis" xMin="63" yMin="-13" xMax="583" yMax="842">
      <contour>
        <pt x="448" y="712" on="1"/>
        <pt x="403" y="712" on="1"/>
        <pt x="403" y="842" on="1"/>
        <pt x="449" y="842" on="1"/>
      </contour>
      <contour>
        <pt x="247" y="712" on="1"/>
        <pt x="203" y="712" on="1"/>
        <pt x="202" y="842" on="1"/>
        <pt x="249" y="842" on="1"/>
      </contour>
      <contour>
        <pt x="315" y="-13" on="1"/>
        <pt x="261" y="-13" on="0"/>
        <pt x="169" y="30" on="0"/>
        <pt x="101" y="111" on="0"/>
        <pt x="63" y="228" on="0"/>
        <pt x="63" y="301" on="1"/>
        <pt x="63" y="377" on="0"/>
        <pt x="106" y="500" on="0"/>
        <pt x="178" y="586" on="0"/>
        <pt x="276" y="633" on="0"/>
        <pt x="331" y="633" on="1"/>
        <pt x="384" y="633" on="0"/>
        <pt x="477" y="590" on="0"/>
        <pt x="544" y="509" on="0"/>
        <pt x="583" y="392" on="0"/>
        <pt x="583" y="319" on="1"/>
        <pt x="583" y="244" on="0"/>
        <pt x="540" y="120" on="0"/>
        <pt x="468" y="34" on="0"/>
        <pt x="370" y="-13" on="0"/>
      </contour>
      <contour>
        <pt x="323" y="594" on="1"/>
        <pt x="277" y="594" on="0"/>
        <pt x="198" y="555" on="0"/>
        <pt x="140" y="482" on="0"/>
        <pt x="108" y="376" on="0"/>
        <pt x="108" y="310" on="1"/>
        <pt x="108" y="243" on="0"/>
        <pt x="141" y="137" on="0"/>
        <pt x="198" y="65" on="0"/>
        <pt x="277" y="26" on="0"/>
        <pt x="323" y="26" on="1"/>
        <pt x="369" y="26" on="0"/>
        <pt x="448" y="65" on="0"/>
        <pt x="506" y="138" on="0"/>
        <pt x="538" y="244" on="0"/>
        <pt x="538" y="310" on="1"/>
        <pt x="538" y="377" on="0"/>
        <pt x="505" y="483" on="0"/>
        <pt x="448" y="555" on="0"/>
        <pt x="369" y="594" on="0"/>
      </contour>
    </TTGlyph>
    <TTGlyph name="Odieresis.sc" xMin="58" yMin="-11" xMax="513" yMax="744">
      <contour>
        <pt x="411" y="614" on="1"/>
        <pt x="366" y="614" on="1"/>
        <pt x="366" y="744" on="1"/>
        <pt x="412" y="744" on="1"/>
      </contour>
      <contour>
        <pt x="210" y="614" on="1"/>
        <pt x="166" y="614" on="1"/>
        <pt x="165" y="744" on="1"/>
        <pt x="212" y="744" on="1"/>
      </contour>
      <contour>
        <pt x="279" y="-11" on="1"/>
        <pt x="232" y="-11" on="0"/>
        <pt x="150" y="26" on="0"/>
        <pt x="91" y="93" on="0"/>
        <pt x="58" y="192" on="0"/>
        <pt x="58" y="253" on="1"/>
        <pt x="58" y="317" on="0"/>
        <pt x="95" y="422" on="0"/>
        <pt x="159" y="494" on="0"/>
        <pt x="245" y="534" on="0"/>
        <pt x="294" y="534" on="1"/>
        <pt x="341" y="534" on="0"/>
        <pt x="421" y="497" on="0"/>
        <pt x="480" y="430" on="0"/>
        <pt x="513" y="331" on="0"/>
        <pt x="513" y="270" on="1"/>
        <pt x="513" y="206" on="0"/>
        <pt x="476" y="101" on="0"/>
        <pt x="413" y="29" on="0"/>
        <pt x="328" y="-11" on="0"/>
      </contour>
      <contour>
        <pt x="285" y="496" on="1"/>
        <pt x="207" y="496" on="0"/>
        <pt x="103" y="372" on="0"/>
        <pt x="103" y="262" on="1"/>
        <pt x="103" y="151" on="0"/>
        <pt x="209" y="27" on="0"/>
        <pt x="287" y="27" on="1"/>
        <pt x="365" y="27" on="0"/>
        <pt x="468" y="151" on="0"/>
        <pt x="468" y="261" on="1"/>
        <pt x="468" y="372" on="0"/>
        <pt x="364" y="496" on="0"/>
      </contour>
    </TTGlyph>
    <TTGlyph name="Ograve" xMin="63" yMin="-13" xMax="583" yMax="895">
      <contour>
        <pt x="405" y="715" on="1"/>
        <pt x="390" y="695" on="1"/>
        <pt x="368" y="710" on="0"/>
        <pt x="316" y="751" on="0"/>
        <pt x="265" y="794" on="0"/>
        <pt x="216" y="837" on="0"/>
        <pt x="198" y="856" on="1"/>
        <pt x="238" y="895" on="1"/>
        <pt x="253" y="875" on="0"/>
        <pt x="295" y="826" on="0"/>
        <pt x="340" y="777" on="0"/>
        <pt x="386" y="731" on="0"/>
      </contour>
      <contour>
        <pt x="315" y="-13" on="1"/>
        <pt x="261" y="-13" on="0"/>
        <pt x="169" y="30" on="0"/>
        <pt x="101" y="111" on="0"/>
        <pt x="63" y="228" on="0"/>
        <pt x="63" y="301" on="1"/>
        <pt x="63" y="377" on="0"/>
        <pt x="106" y="500" on="0"/>
        <pt x="178" y="586" on="0"/>
        <pt x="276" y="633" on="0"/>
        <pt x="331" y="633" on="1"/>
        <pt x="384" y="633" on="0"/>
        <pt x="477" y="590" on="0"/>
        <pt x="544" y="509" on="0"/>
        <pt x="583" y="392" on="0"/>
        <pt x="583" y="319" on="1"/>
        <pt x="583" y="244" on="0"/>
        <pt x="540" y="120" on="0"/>
        <pt x="468" y="34" on="0"/>
        <pt x="370" y="-13" on="0"/>
      </contour>
      <contour>
        <pt x="323" y="594" on="1"/>
        <pt x="277" y="594" on="0"/>
        <pt x="198" y="555" on="0"/>
        <pt x="140" y="482" on="0"/>
        <pt x="108" y="376" on="0"/>
        <pt x="108" y="310" on="1"/>
        <pt x="108" y="243" on="0"/>
        <pt x="141" y="137" on="0"/>
        <pt x="198" y="65" on="0"/>
        <pt x="277" y="26" on="0"/>
        <pt x="323" y="26" on="1"/>
        <pt x="369" y="26" on="0"/>
        <pt x="448" y="65" on="0"/>
        <pt x="506" y="138" on="0"/>
        <pt x="538" y="244" on="0"/>
        <pt x="538" y="310" on="1"/>
        <pt x="538" y="377" on="0"/>
        <pt x="505" y="483" on="0"/>
        <pt x="448" y="555" on="0"/>
        <pt x="369" y="594" on="0"/>
      </contour>
    </TTGlyph>
    <TTGlyph name="Ograve.sc" xMin="58" yMin="-11" xMax="513" yMax="797">
      <contour>
        <pt x="368" y="617" on="1"/>
        <pt x="353" y="597" on="1"/>
        <pt x="331" y="612" on="0"/>
        <pt x="279" y="653" on="0"/>
        <pt x="228" y="696" on="0"/>
        <pt x="179" y="739" on="0"/>
        <pt x="161" y="758" on="1"/>
        <pt x="201" y="797" on="1"/>
        <pt x="216" y="777" on="0"/>
        <pt x="258" y="728" on="0"/>
        <pt x="303" y="679" on="0"/>
        <pt x="349" y="633" on="0"/>
      </contour>
      <contour>
        <pt x="279" y="-11" on="1"/>
        <pt x="232" y="-11" on="0"/>
        <pt x="150" y="26" on="0"/>
        <pt x="91" y="93" on="0"/>
        <pt x="58" y="192" on="0"/>
        <pt x="58" y="253" on="1"/>
        <pt x="58" y="317" on="0"/>
        <pt x="95" y="422" on="0"/>
        <pt x="159" y="494" on="0"/>
        <pt x="245" y="534" on="0"/>
        <pt x="294" y="534" on="1"/>
        <pt x="341" y="534" on="0"/>
        <pt x="421" y="497" on="0"/>
        <pt x="480" y="430" on="0"/>
        <pt x="513" y="331" on="0"/>
        <pt x="513" y="270" on="1"/>
        <pt x="513" y="206" on="0"/>
        <pt x="476" y="101" on="0"/>
        <pt x="413" y="29" on="0"/>
        <pt x="328" y="-11" on="0"/>
      </contour>
      <contour>
        <pt x="285" y="496" on="1"/>
        <pt x="207" y="496" on="0"/>
        <pt x="103" y="372" on="0"/>
        <pt x="103" y="262" on="1"/>
        <pt x="103" y="151" on="0"/>
        <pt x="209" y="27" on="0"/>
        <pt x="287" y="27" on="1"/>
        <pt x="365" y="27" on="0"/>
        <pt x="468" y="151" on="0"/>
        <pt x="468" y="261" on="1"/>
        <pt x="468" y="372" on="0"/>
        <pt x="364" y="496" on="0"/>
      </contour>
    </TTGlyph>
    <TTGlyph name="Ohungarumlaut" xMin="63" yMin="-13" xMax="583" yMax="914">
      <contour>
        <pt x="200" y="718" on="1"/>
        <pt x="213" y="738" on="0"/>
        <pt x="242" y="789" on="0"/>
        <pt x="268" y="842" on="0"/>
        <pt x="292" y="893" on="0"/>
        <pt x="300" y="914" on="1"/>
        <pt x="350" y="890" on="1"/>
        <pt x="328" y="850" on="0"/>
        <pt x="255" y="743" on="0"/>
        <pt x="222" y="703" on="1"/>
      </contour>
      <contour>
        <pt x="390" y="718" on="1"/>
        <pt x="403" y="738" on="0"/>
        <pt x="432" y="788" on="0"/>
        <pt x="458" y="840" on="0"/>
        <pt x="481" y="891" on="0"/>
        <pt x="489" y="912" on="1"/>
        <pt x="540" y="890" on="1"/>
        <pt x="518" y="850" on="0"/>
        <pt x="446" y="743" on="0"/>
        <pt x="412" y="703" on="1"/>
      </contour>
      <contour>
        <pt x="315" y="-13" on="1"/>
        <pt x="261" y="-13" on="0"/>
        <pt x="169" y="30" on="0"/>
        <pt x="101" y="111" on="0"/>
        <pt x="63" y="228" on="0"/>
        <pt x="63" y="301" on="1"/>
        <pt x="63" y="377" on="0"/>
        <pt x="106" y="500" on="0"/>
        <pt x="178" y="586" on="0"/>
        <pt x="276" y="633" on="0"/>
        <pt x="331" y="633" on="1"/>
        <pt x="384" y="633" on="0"/>
        <pt x="477" y="590" on="0"/>
        <pt x="544" y="509" on="0"/>
        <pt x="583" y="392" on="0"/>
        <pt x="583" y="319" on="1"/>
        <pt x="583" y="244" on="0"/>
        <pt x="540" y="120" on="0"/>
        <pt x="468" y="34" on="0"/>
        <pt x="370" y="-13" on="0"/>
      </contour>
      <contour>
        <pt x="323" y="594" on="1"/>
        <pt x="277" y="594" on="0"/>
        <pt x="198" y="555" on="0"/>
        <pt x="140" y="482" on="0"/>
        <pt x="108" y="376" on="0"/>
        <pt x="108" y="310" on="1"/>
        <pt x="108" y="243" on="0"/>
        <pt x="141" y="137" on="0"/>
        <pt x="198" y="65" on="0"/>
        <pt x="277" y="26" on="0"/>
        <pt x="323" y="26" on="1"/>
        <pt x="369" y="26" on="0"/>
        <pt x="448" y="65" on="0"/>
        <pt x="506" y="138" on="0"/>
        <pt x="538" y="244" on="0"/>
        <pt x="538" y="310" on="1"/>
        <pt x="538" y="377" on="0"/>
        <pt x="505" y="483" on="0"/>
        <pt x="448" y="555" on="0"/>
        <pt x="369" y="594" on="0"/>
      </contour>
    </TTGlyph>
    <TTGlyph name="Ohungarumlaut.sc" xMin="58" yMin="-11" xMax="513" yMax="816">
      <contour>
        <pt x="163" y="620" on="1"/>
        <pt x="176" y="640" on="0"/>
        <pt x="205" y="691" on="0"/>
        <pt x="231" y="744" on="0"/>
        <pt x="255" y="795" on="0"/>
        <pt x="263" y="816" on="1"/>
        <pt x="313" y="792" on="1"/>
        <pt x="291" y="752" on="0"/>
        <pt x="218" y="645" on="0"/>
        <pt x="185" y="605" on="1"/>
      </contour>
      <contour>
        <pt x="353" y="620" on="1"/>
        <pt x="366" y="640" on="0"/>
        <pt x="395" y="690" on="0"/>
        <pt x="421" y="742" on="0"/>
        <pt x="444" y="793" on="0"/>
        <pt x="452" y="814" on="1"/>
        <pt x="503" y="792" on="1"/>
        <pt x="481" y="752" on="0"/>
        <pt x="409" y="645" on="0"/>
        <pt x="375" y="605" on="1"/>
      </contour>
      <contour>
        <pt x="279" y="-11" on="1"/>
        <pt x="232" y="-11" on="0"/>
        <pt x="150" y="26" on="0"/>
        <pt x="91" y="93" on="0"/>
        <pt x="58" y="192" on="0"/>
        <pt x="58" y="253" on="1"/>
        <pt x="58" y="317" on="0"/>
        <pt x="95" y="422" on="0"/>
        <pt x="159" y="494" on="0"/>
        <pt x="245" y="534" on="0"/>
        <pt x="294" y="534" on="1"/>
        <pt x="341" y="534" on="0"/>
        <pt x="421" y="497" on="0"/>
        <pt x="480" y="430" on="0"/>
        <pt x="513" y="331" on="0"/>
        <pt x="513" y="270" on="1"/>
        <pt x="513" y="206" on="0"/>
        <pt x="476" y="101" on="0"/>
        <pt x="413" y="29" on="0"/>
        <pt x="328" y="-11" on="0"/>
      </contour>
      <contour>
        <pt x="285" y="496" on="1"/>
        <pt x="207" y="496" on="0"/>
        <pt x="103" y="372" on="0"/>
        <pt x="103" y="262" on="1"/>
        <pt x="103" y="151" on="0"/>
        <pt x="209" y="27" on="0"/>
        <pt x="287" y="27" on="1"/>
        <pt x="365" y="27" on="0"/>
        <pt x="468" y="151" on="0"/>
        <pt x="468" y="261" on="1"/>
        <pt x="468" y="372" on="0"/>
        <pt x="364" y="496" on="0"/>
      </contour>
    </TTGlyph>
    <TTGlyph name="Omacron" xMin="63" yMin="-13" xMax="583" yMax="800">
      <contour>
        <pt x="472" y="800" on="1"/>
        <pt x="472" y="761" on="1"/>
        <pt x="176" y="761" on="1"/>
        <pt x="176" y="800" on="1"/>
      </contour>
      <contour>
        <pt x="315" y="-13" on="1"/>
        <pt x="261" y="-13" on="0"/>
        <pt x="169" y="30" on="0"/>
        <pt x="101" y="111" on="0"/>
        <pt x="63" y="228" on="0"/>
        <pt x="63" y="301" on="1"/>
        <pt x="63" y="377" on="0"/>
        <pt x="106" y="500" on="0"/>
        <pt x="178" y="586" on="0"/>
        <pt x="276" y="633" on="0"/>
        <pt x="331" y="633" on="1"/>
        <pt x="384" y="633" on="0"/>
        <pt x="477" y="590" on="0"/>
        <pt x="544" y="509" on="0"/>
        <pt x="583" y="392" on="0"/>
        <pt x="583" y="319" on="1"/>
        <pt x="583" y="244" on="0"/>
        <pt x="540" y="120" on="0"/>
        <pt x="468" y="34" on="0"/>
        <pt x="370" y="-13" on="0"/>
      </contour>
      <contour>
        <pt x="323" y="594" on="1"/>
        <pt x="277" y="594" on="0"/>
        <pt x="198" y="555" on="0"/>
        <pt x="140" y="482" on="0"/>
        <pt x="108" y="376" on="0"/>
        <pt x="108" y="310" on="1"/>
        <pt x="108" y="243" on="0"/>
        <pt x="141" y="137" on="0"/>
        <pt x="198" y="65" on="0"/>
        <pt x="277" y="26" on="0"/>
        <pt x="323" y="26" on="1"/>
        <pt x="369" y="26" on="0"/>
        <pt x="448" y="65" on="0"/>
        <pt x="506" y="138" on="0"/>
        <pt x="538" y="244" on="0"/>
        <pt x="538" y="310" on="1"/>
        <pt x="538" y="377" on="0"/>
        <pt x="505" y="483" on="0"/>
        <pt x="448" y="555" on="0"/>
        <pt x="369" y="594" on="0"/>
      </contour>
    </TTGlyph>
    <TTGlyph name="Omacron.sc" xMin="58" yMin="-11" xMax="513" yMax="702">
      <contour>
        <pt x="435" y="702" on="1"/>
        <pt x="435" y="663" on="1"/>
        <pt x="139" y="663" on="1"/>
        <pt x="139" y="702" on="1"/>
      </contour>
      <contour>
        <pt x="279" y="-11" on="1"/>
        <pt x="232" y="-11" on="0"/>
        <pt x="150" y="26" on="0"/>
        <pt x="91" y="93" on="0"/>
        <pt x="58" y="192" on="0"/>
        <pt x="58" y="253" on="1"/>
        <pt x="58" y="317" on="0"/>
        <pt x="95" y="422" on="0"/>
        <pt x="159" y="494" on="0"/>
        <pt x="245" y="534" on="0"/>
        <pt x="294" y="534" on="1"/>
        <pt x="341" y="534" on="0"/>
        <pt x="421" y="497" on="0"/>
        <pt x="480" y="430" on="0"/>
        <pt x="513" y="331" on="0"/>
        <pt x="513" y="270" on="1"/>
        <pt x="513" y="206" on="0"/>
        <pt x="476" y="101" on="0"/>
        <pt x="413" y="29" on="0"/>
        <pt x="328" y="-11" on="0"/>
      </contour>
      <contour>
        <pt x="285" y="496" on="1"/>
        <pt x="207" y="496" on="0"/>
        <pt x="103" y="372" on="0"/>
        <pt x="103" y="262" on="1"/>
        <pt x="103" y="151" on="0"/>
        <pt x="209" y="27" on="0"/>
        <pt x="287" y="27" on="1"/>
        <pt x="365" y="27" on="0"/>
        <pt x="468" y="151" on="0"/>
        <pt x="468" y="261" on="1"/>
        <pt x="468" y="372" on="0"/>
        <pt x="364" y="496" on="0"/>
      </contour>
    </TTGlyph>
    <TTGlyph name="Omega" xMin="66" yMin="0" xMax="565" yMax="632">
      <contour>
        <pt x="255" y="4" on="1"/>
        <pt x="252" y="0" on="1"/>
        <pt x="66" y="0" on="1"/>
        <pt x="66" y="40" on="1"/>
        <pt x="202" y="40" on="1"/>
        <pt x="150" y="134" on="0"/>
        <pt x="93" y="314" on="0"/>
        <pt x="93" y="385" on="1"/>
        <pt x="93" y="445" on="0"/>
        <pt x="129" y="537" on="0"/>
        <pt x="191" y="600" on="0"/>
        <pt x="274" y="632" on="0"/>
        <pt x="321" y="632" on="1"/>
        <pt x="414" y="632" on="0"/>
        <pt x="536" y="505" on="0"/>
        <pt x="536" y="392" on="1"/>
        <pt x="536" y="316" on="0"/>
        <pt x="475" y="134" on="0"/>
        <pt x="425" y="40" on="1"/>
        <pt x="565" y="40" on="1"/>
        <pt x="565" y="0" on="1"/>
        <pt x="376" y="0" on="1"/>
        <pt x="373" y="4" on="1"/>
        <pt x="432" y="111" on="0"/>
        <pt x="495" y="307" on="0"/>
        <pt x="495" y="381" on="1"/>
        <pt x="495" y="482" on="0"/>
        <pt x="396" y="591" on="0"/>
        <pt x="318" y="591" on="1"/>
        <pt x="240" y="591" on="0"/>
        <pt x="135" y="482" on="0"/>
        <pt x="135" y="379" on="1"/>
        <pt x="135" y="307" on="0"/>
        <pt x="196" y="112" on="0"/>
      </contour>
    </TTGlyph>
    <TTGlyph name="Oslash" xMin="63" yMin="-25" xMax="583" yMax="645">
      <contour>
        <pt x="108" y="310" on="1"/>
        <pt x="108" y="247" on="0"/>
        <pt x="138" y="145" on="0"/>
        <pt x="163" y="109" on="1"/>
        <pt x="460" y="538" on="1"/>
        <pt x="432" y="566" on="0"/>
        <pt x="363" y="594" on="0"/>
        <pt x="323" y="594" on="1"/>
        <pt x="277" y="594" on="0"/>
        <pt x="198" y="555" on="0"/>
        <pt x="140" y="482" on="0"/>
        <pt x="108" y="376" on="0"/>
      </contour>
      <contour>
        <pt x="323" y="26" on="1"/>
        <pt x="369" y="26" on="0"/>
        <pt x="448" y="65" on="0"/>
        <pt x="506" y="138" on="0"/>
        <pt x="538" y="244" on="0"/>
        <pt x="538" y="310" on="1"/>
        <pt x="538" y="373" on="0"/>
        <pt x="508" y="475" on="0"/>
        <pt x="483" y="511" on="1"/>
        <pt x="187" y="82" on="1"/>
        <pt x="214" y="54" on="0"/>
        <pt x="283" y="26" on="0"/>
      </contour>
      <contour>
        <pt x="315" y="-13" on="1"/>
        <pt x="271" y="-13" on="0"/>
        <pt x="192" y="16" on="0"/>
        <pt x="161" y="44" on="1"/>
        <pt x="114" y="-25" on="1"/>
        <pt x="85" y="-5" on="1"/>
        <pt x="136" y="70" on="1"/>
        <pt x="102" y="110" on="0"/>
        <pt x="63" y="228" on="0"/>
        <pt x="63" y="301" on="1"/>
        <pt x="63" y="377" on="0"/>
        <pt x="106" y="500" on="0"/>
        <pt x="178" y="586" on="0"/>
        <pt x="276" y="633" on="0"/>
        <pt x="331" y="633" on="1"/>
        <pt x="375" y="633" on="0"/>
        <pt x="455" y="603" on="0"/>
        <pt x="486" y="575" on="1"/>
        <pt x="534" y="645" on="1"/>
        <pt x="563" y="625" on="1"/>
        <pt x="510" y="550" on="1"/>
        <pt x="544" y="510" on="0"/>
        <pt x="583" y="392" on="0"/>
        <pt x="583" y="319" on="1"/>
        <pt x="583" y="244" on="0"/>
        <pt x="540" y="120" on="0"/>
        <pt x="468" y="34" on="0"/>
        <pt x="370" y="-13" on="0"/>
      </contour>
    </TTGlyph>
    <TTGlyph name="Oslash.sc" xMin="58" yMin="-29" xMax="513" yMax="550">
      <contour>
        <pt x="103" y="262" on="1"/>
        <pt x="103" y="210" on="0"/>
        <pt x="127" y="127" on="0"/>
        <pt x="149" y="97" on="1"/>
        <pt x="397" y="455" on="1"/>
        <pt x="375" y="475" on="0"/>
        <pt x="317" y="496" on="0"/>
        <pt x="285" y="496" on="1"/>
        <pt x="207" y="496" on="0"/>
        <pt x="103" y="372" on="0"/>
      </contour>
      <contour>
        <pt x="287" y="27" on="1"/>
        <pt x="365" y="27" on="0"/>
        <pt x="468" y="151" on="0"/>
        <pt x="468" y="261" on="1"/>
        <pt x="468" y="314" on="0"/>
        <pt x="443" y="398" on="0"/>
        <pt x="421" y="428" on="1"/>
        <pt x="173" y="71" on="1"/>
        <pt x="196" y="49" on="0"/>
        <pt x="254" y="27" on="0"/>
      </contour>
      <contour>
        <pt x="279" y="-11" on="1"/>
        <pt x="242" y="-11" on="0"/>
        <pt x="174" y="12" on="0"/>
        <pt x="147" y="34" on="1"/>
        <pt x="104" y="-29" on="1"/>
        <pt x="75" y="-9" on="1"/>
        <pt x="122" y="58" on="1"/>
        <pt x="92" y="92" on="0"/>
        <pt x="58" y="191" on="0"/>
        <pt x="58" y="253" on="1"/>
        <pt x="58" y="317" on="0"/>
        <pt x="95" y="422" on="0"/>
        <pt x="159" y="494" on="0"/>
        <pt x="245" y="534" on="0"/>
        <pt x="294" y="534" on="1"/>
        <pt x="331" y="534" on="0"/>
        <pt x="396" y="512" on="0"/>
        <pt x="423" y="490" on="1"/>
        <pt x="465" y="550" on="1"/>
        <pt x="494" y="530" on="1"/>
        <pt x="448" y="466" on="1"/>
        <pt x="479" y="432" on="0"/>
        <pt x="513" y="333" on="0"/>
        <pt x="513" y="270" on="1"/>
        <pt x="513" y="206" on="0"/>
        <pt x="476" y="101" on="0"/>
        <pt x="413" y="29" on="0"/>
        <pt x="328" y="-11" on="0"/>
      </contour>
    </TTGlyph>
    <TTGlyph name="Oslashacute" xMin="63" yMin="-25" xMax="583" yMax="899">
      <contour>
        <pt x="241" y="720" on="1"/>
        <pt x="261" y="736" on="0"/>
        <pt x="307" y="781" on="0"/>
        <pt x="351" y="829" on="0"/>
        <pt x="392" y="878" on="0"/>
        <pt x="407" y="899" on="1"/>
        <pt x="448" y="862" on="1"/>
        <pt x="430" y="843" on="0"/>
        <pt x="382" y="798" on="0"/>
        <pt x="331" y="755" on="0"/>
        <pt x="278" y="714" on="0"/>
        <pt x="256" y="699" on="1"/>
      </contour>
      <contour>
        <pt x="108" y="310" on="1"/>
        <pt x="108" y="247" on="0"/>
        <pt x="138" y="145" on="0"/>
        <pt x="163" y="109" on="1"/>
        <pt x="460" y="538" on="1"/>
        <pt x="432" y="566" on="0"/>
        <pt x="363" y="594" on="0"/>
        <pt x="323" y="594" on="1"/>
        <pt x="277" y="594" on="0"/>
        <pt x="198" y="555" on="0"/>
        <pt x="140" y="482" on="0"/>
        <pt x="108" y="376" on="0"/>
      </contour>
      <contour>
        <pt x="323" y="26" on="1"/>
        <pt x="369" y="26" on="0"/>
        <pt x="448" y="65" on="0"/>
        <pt x="506" y="138" on="0"/>
        <pt x="538" y="244" on="0"/>
        <pt x="538" y="310" on="1"/>
        <pt x="538" y="373" on="0"/>
        <pt x="508" y="475" on="0"/>
        <pt x="483" y="511" on="1"/>
        <pt x="187" y="82" on="1"/>
        <pt x="214" y="54" on="0"/>
        <pt x="283" y="26" on="0"/>
      </contour>
      <contour>
        <pt x="315" y="-13" on="1"/>
        <pt x="271" y="-13" on="0"/>
        <pt x="192" y="16" on="0"/>
        <pt x="161" y="44" on="1"/>
        <pt x="114" y="-25" on="1"/>
        <pt x="85" y="-5" on="1"/>
        <pt x="136" y="70" on="1"/>
        <pt x="102" y="110" on="0"/>
        <pt x="63" y="228" on="0"/>
        <pt x="63" y="301" on="1"/>
        <pt x="63" y="377" on="0"/>
        <pt x="106" y="500" on="0"/>
        <pt x="178" y="586" on="0"/>
        <pt x="276" y="633" on="0"/>
        <pt x="331" y="633" on="1"/>
        <pt x="375" y="633" on="0"/>
        <pt x="455" y="603" on="0"/>
        <pt x="486" y="575" on="1"/>
        <pt x="534" y="645" on="1"/>
        <pt x="563" y="625" on="1"/>
        <pt x="510" y="550" on="1"/>
        <pt x="544" y="510" on="0"/>
        <pt x="583" y="392" on="0"/>
        <pt x="583" y="319" on="1"/>
        <pt x="583" y="244" on="0"/>
        <pt x="540" y="120" on="0"/>
        <pt x="468" y="34" on="0"/>
        <pt x="370" y="-13" on="0"/>
      </contour>
    </TTGlyph>
    <TTGlyph name="Oslashacute.sc" xMin="58" yMin="-29" xMax="513" yMax="801">
      <contour>
        <pt x="201" y="622" on="1"/>
        <pt x="221" y="638" on="0"/>
        <pt x="267" y="683" on="0"/>
        <pt x="311" y="731" on="0"/>
        <pt x="352" y="780" on="0"/>
        <pt x="367" y="801" on="1"/>
        <pt x="408" y="764" on="1"/>
        <pt x="390" y="745" on="0"/>
        <pt x="342" y="700" on="0"/>
        <pt x="291" y="657" on="0"/>
        <pt x="238" y="616" on="0"/>
        <pt x="216" y="601" on="1"/>
      </contour>
      <contour>
        <pt x="103" y="262" on="1"/>
        <pt x="103" y="210" on="0"/>
        <pt x="127" y="127" on="0"/>
        <pt x="149" y="97" on="1"/>
        <pt x="397" y="455" on="1"/>
        <pt x="375" y="475" on="0"/>
        <pt x="317" y="496" on="0"/>
        <pt x="285" y="496" on="1"/>
        <pt x="207" y="496" on="0"/>
        <pt x="103" y="372" on="0"/>
      </contour>
      <contour>
        <pt x="287" y="27" on="1"/>
        <pt x="365" y="27" on="0"/>
        <pt x="468" y="151" on="0"/>
        <pt x="468" y="261" on="1"/>
        <pt x="468" y="314" on="0"/>
        <pt x="443" y="398" on="0"/>
        <pt x="421" y="428" on="1"/>
        <pt x="173" y="71" on="1"/>
        <pt x="196" y="49" on="0"/>
        <pt x="254" y="27" on="0"/>
      </contour>
      <contour>
        <pt x="279" y="-11" on="1"/>
        <pt x="242" y="-11" on="0"/>
        <pt x="174" y="12" on="0"/>
        <pt x="147" y="34" on="1"/>
        <pt x="104" y="-29" on="1"/>
        <pt x="75" y="-9" on="1"/>
        <pt x="122" y="58" on="1"/>
        <pt x="92" y="92" on="0"/>
        <pt x="58" y="191" on="0"/>
        <pt x="58" y="253" on="1"/>
        <pt x="58" y="317" on="0"/>
        <pt x="95" y="422" on="0"/>
        <pt x="159" y="494" on="0"/>
        <pt x="245" y="534" on="0"/>
        <pt x="294" y="534" on="1"/>
        <pt x="331" y="534" on="0"/>
        <pt x="396" y="512" on="0"/>
        <pt x="423" y="490" on="1"/>
        <pt x="465" y="550" on="1"/>
        <pt x="494" y="530" on="1"/>
        <pt x="448" y="466" on="1"/>
        <pt x="479" y="432" on="0"/>
        <pt x="513" y="333" on="0"/>
        <pt x="513" y="270" on="1"/>
        <pt x="513" y="206" on="0"/>
        <pt x="476" y="101" on="0"/>
        <pt x="413" y="29" on="0"/>
        <pt x="328" y="-11" on="0"/>
      </contour>
    </TTGlyph>
    <TTGlyph name="Otilde" xMin="63" yMin="-13" xMax="583" yMax="869">
      <contour>
        <pt x="400" y="712" on="1"/>
        <pt x="376" y="712" on="0"/>
        <pt x="339" y="749" on="0"/>
        <pt x="305" y="794" on="0"/>
        <pt x="274" y="831" on="0"/>
        <pt x="256" y="831" on="1"/>
        <pt x="234" y="831" on="0"/>
        <pt x="195" y="769" on="0"/>
        <pt x="176" y="721" on="1"/>
        <pt x="147" y="733" on="1"/>
        <pt x="172" y="798" on="0"/>
        <pt x="229" y="869" on="0"/>
        <pt x="261" y="869" on="1"/>
        <pt x="285" y="869" on="0"/>
        <pt x="322" y="832" on="0"/>
        <pt x="355" y="787" on="0"/>
        <pt x="386" y="750" on="0"/>
        <pt x="404" y="750" on="1"/>
        <pt x="426" y="750" on="0"/>
        <pt x="466" y="812" on="0"/>
        <pt x="485" y="860" on="1"/>
        <pt x="513" y="848" on="1"/>
        <pt x="489" y="783" on="0"/>
        <pt x="431" y="712" on="0"/>
      </contour>
      <contour>
        <pt x="315" y="-13" on="1"/>
        <pt x="261" y="-13" on="0"/>
        <pt x="169" y="30" on="0"/>
        <pt x="101" y="111" on="0"/>
        <pt x="63" y="228" on="0"/>
        <pt x="63" y="301" on="1"/>
        <pt x="63" y="377" on="0"/>
        <pt x="106" y="500" on="0"/>
        <pt x="178" y="586" on="0"/>
        <pt x="276" y="633" on="0"/>
        <pt x="331" y="633" on="1"/>
        <pt x="384" y="633" on="0"/>
        <pt x="477" y="590" on="0"/>
        <pt x="544" y="509" on="0"/>
        <pt x="583" y="392" on="0"/>
        <pt x="583" y="319" on="1"/>
        <pt x="583" y="244" on="0"/>
        <pt x="540" y="120" on="0"/>
        <pt x="468" y="34" on="0"/>
        <pt x="370" y="-13" on="0"/>
      </contour>
      <contour>
        <pt x="323" y="594" on="1"/>
        <pt x="277" y="594" on="0"/>
        <pt x="198" y="555" on="0"/>
        <pt x="140" y="482" on="0"/>
        <pt x="108" y="376" on="0"/>
        <pt x="108" y="310" on="1"/>
        <pt x="108" y="243" on="0"/>
        <pt x="141" y="137" on="0"/>
        <pt x="198" y="65" on="0"/>
        <pt x="277" y="26" on="0"/>
        <pt x="323" y="26" on="1"/>
        <pt x="369" y="26" on="0"/>
        <pt x="448" y="65" on="0"/>
        <pt x="506" y="138" on="0"/>
        <pt x="538" y="244" on="0"/>
        <pt x="538" y="310" on="1"/>
        <pt x="538" y="377" on="0"/>
        <pt x="505" y="483" on="0"/>
        <pt x="448" y="555" on="0"/>
        <pt x="369" y="594" on="0"/>
      </contour>
    </TTGlyph>
    <TTGlyph name="Otilde.sc" xMin="58" yMin="-11" xMax="513" yMax="771">
      <contour>
        <pt x="363" y="614" on="1"/>
        <pt x="339" y="614" on="0"/>
        <pt x="302" y="651" on="0"/>
        <pt x="268" y="696" on="0"/>
        <pt x="237" y="733" on="0"/>
        <pt x="219" y="733" on="1"/>
        <pt x="197" y="733" on="0"/>
        <pt x="158" y="671" on="0"/>
        <pt x="139" y="623" on="1"/>
        <pt x="110" y="635" on="1"/>
        <pt x="135" y="700" on="0"/>
        <pt x="192" y="771" on="0"/>
        <pt x="224" y="771" on="1"/>
        <pt x="248" y="771" on="0"/>
        <pt x="285" y="734" on="0"/>
        <pt x="318" y="689" on="0"/>
        <pt x="349" y="652" on="0"/>
        <pt x="367" y="652" on="1"/>
        <pt x="389" y="652" on="0"/>
        <pt x="429" y="714" on="0"/>
        <pt x="448" y="762" on="1"/>
        <pt x="476" y="750" on="1"/>
        <pt x="452" y="685" on="0"/>
        <pt x="394" y="614" on="0"/>
      </contour>
      <contour>
        <pt x="279" y="-11" on="1"/>
        <pt x="232" y="-11" on="0"/>
        <pt x="150" y="26" on="0"/>
        <pt x="91" y="93" on="0"/>
        <pt x="58" y="192" on="0"/>
        <pt x="58" y="253" on="1"/>
        <pt x="58" y="317" on="0"/>
        <pt x="95" y="422" on="0"/>
        <pt x="159" y="494" on="0"/>
        <pt x="245" y="534" on="0"/>
        <pt x="294" y="534" on="1"/>
        <pt x="341" y="534" on="0"/>
        <pt x="421" y="497" on="0"/>
        <pt x="480" y="430" on="0"/>
        <pt x="513" y="331" on="0"/>
        <pt x="513" y="270" on="1"/>
        <pt x="513" y="206" on="0"/>
        <pt x="476" y="101" on="0"/>
        <pt x="413" y="29" on="0"/>
        <pt x="328" y="-11" on="0"/>
      </contour>
      <contour>
        <pt x="285" y="496" on="1"/>
        <pt x="207" y="496" on="0"/>
        <pt x="103" y="372" on="0"/>
        <pt x="103" y="262" on="1"/>
        <pt x="103" y="151" on="0"/>
        <pt x="209" y="27" on="0"/>
        <pt x="287" y="27" on="1"/>
        <pt x="365" y="27" on="0"/>
        <pt x="468" y="151" on="0"/>
        <pt x="468" y="261" on="1"/>
        <pt x="468" y="372" on="0"/>
        <pt x="364" y="496" on="0"/>
      </contour>
    </TTGlyph>
    <TTGlyph name="P" xMin="108" yMin="0" xMax="489" yMax="629">
      <contour>
        <pt x="153" y="0" on="1"/>
        <pt x="108" y="0" on="1"/>
        <pt x="108" y="618" on="1"/>
        <pt x="142" y="624" on="0"/>
        <pt x="202" y="629" on="0"/>
        <pt x="230" y="629" on="1"/>
        <pt x="356" y="629" on="0"/>
        <pt x="489" y="524" on="0"/>
        <pt x="489" y="434" on="1"/>
        <pt x="489" y="381" on="0"/>
        <pt x="441" y="302" on="0"/>
        <pt x="354" y="250" on="0"/>
        <pt x="229" y="222" on="0"/>
        <pt x="153" y="220" on="1"/>
      </contour>
      <contour>
        <pt x="192" y="262" on="1"/>
        <pt x="311" y="262" on="0"/>
        <pt x="444" y="340" on="0"/>
        <pt x="444" y="427" on="1"/>
        <pt x="444" y="502" on="0"/>
        <pt x="337" y="590" on="0"/>
        <pt x="234" y="590" on="1"/>
        <pt x="215" y="590" on="0"/>
        <pt x="175" y="587" on="0"/>
        <pt x="153" y="584" on="1"/>
        <pt x="153" y="263" on="1"/>
        <pt x="163" y="263" on="0"/>
        <pt x="183" y="262" on="0"/>
      </contour>
    </TTGlyph>
    <TTGlyph name="P.sc" xMin="99" yMin="0" xMax="434" yMax="530">
      <contour>
        <pt x="144" y="0" on="1"/>
        <pt x="99" y="0" on="1"/>
        <pt x="99" y="521" on="1"/>
        <pt x="128" y="525" on="0"/>
        <pt x="182" y="530" on="0"/>
        <pt x="207" y="530" on="1"/>
        <pt x="318" y="530" on="0"/>
        <pt x="434" y="441" on="0"/>
        <pt x="434" y="366" on="1"/>
        <pt x="434" y="275" on="0"/>
        <pt x="275" y="187" on="0"/>
        <pt x="144" y="183" on="1"/>
      </contour>
      <contour>
        <pt x="176" y="222" on="1"/>
        <pt x="277" y="222" on="0"/>
        <pt x="389" y="286" on="0"/>
        <pt x="389" y="358" on="1"/>
        <pt x="389" y="419" on="0"/>
        <pt x="299" y="493" on="0"/>
        <pt x="212" y="493" on="1"/>
        <pt x="196" y="493" on="0"/>
        <pt x="163" y="490" on="0"/>
        <pt x="144" y="487" on="1"/>
        <pt x="144" y="222" on="1"/>
        <pt x="152" y="222" on="0"/>
        <pt x="169" y="222" on="0"/>
      </contour>
    </TTGlyph>
</ttFont>
